<?xml version="1.0" standalone="no"?>
<!DOCTYPE svg PUBLIC "-//W3C//DTD SVG 20010904//EN"
 "http://www.w3.org/TR/2001/REC-SVG-20010904/DTD/svg10.dtd">
<svg version="1.0" xmlns="http://www.w3.org/2000/svg"
 width="608.000000pt" height="608.000000pt" viewBox="0 0 608.000000 608.000000"
 preserveAspectRatio="xMidYMid meet">
<metadata>
Created by potrace 1.14, written by Peter Selinger 2001-2017
</metadata>
<g transform="translate(0.000000,608.000000) scale(0.100000,-0.100000)"
fill="#000000" stroke="none">
<path d="M2848 5836 c-1 -2 -37 -6 -78 -10 -109 -9 -147 -14 -204 -25 -28 -6
-67 -13 -86 -16 -19 -3 -42 -8 -50 -10 -8 -2 -28 -7 -45 -10 -16 -3 -34 -7
-40 -9 -5 -2 -23 -6 -40 -10 -155 -40 -394 -130 -556 -212 -419 -209 -798
-536 -1065 -920 -77 -110 -73 -105 -144 -225 -85 -146 -218 -444 -234 -525 -2
-10 -9 -32 -15 -47 -15 -39 -69 -254 -76 -302 -4 -22 -8 -48 -11 -57 -7 -24
-12 -53 -19 -113 -3 -27 -9 -79 -13 -115 -9 -83 -8 -463 1 -555 9 -86 12 -107
27 -198 17 -99 16 -95 34 -168 9 -35 18 -73 20 -84 8 -35 63 -207 96 -295 43
-118 150 -336 223 -455 55 -90 170 -257 200 -291 7 -7 17 -19 22 -26 84 -111
261 -292 395 -404 215 -180 482 -345 710 -439 36 -14 79 -32 95 -40 50 -22
300 -101 345 -109 14 -2 45 -9 70 -16 25 -7 61 -14 80 -16 19 -3 51 -9 70 -14
19 -5 69 -12 110 -15 41 -4 78 -9 81 -11 5 -3 239 -16 284 -15 130 1 349 18
455 36 8 2 35 6 60 10 44 7 62 11 98 19 9 2 40 9 67 15 107 24 341 101 426
139 25 12 51 22 59 24 8 2 17 5 20 8 3 3 71 39 153 80 81 41 147 78 147 82 0
4 5 8 11 8 24 0 262 170 384 274 123 105 338 332 407 431 4 5 21 26 38 46 16
20 30 39 30 42 0 3 25 41 55 85 30 44 55 85 55 90 0 6 3 12 8 14 37 16 251
487 277 610 2 9 9 26 15 37 6 12 8 21 6 21 -3 0 -1 12 5 28 6 15 13 38 15 50
3 13 11 49 19 80 8 31 18 77 21 102 3 25 8 49 11 53 4 8 7 21 17 107 3 25 9
74 13 110 10 82 10 472 0 565 -33 303 -106 584 -221 853 -36 84 -135 283 -145
292 -3 3 -15 21 -25 40 -11 19 -48 79 -84 132 -298 449 -774 845 -1252 1042
-36 15 -78 33 -95 41 -100 44 -427 135 -540 151 -27 3 -52 8 -55 9 -3 2 -34 6
-69 10 -34 4 -72 9 -84 11 -24 6 -483 15 -489 10z m602 -1180 c216 -18 395
-67 580 -158 58 -29 110 -56 115 -60 6 -5 38 -28 72 -51 72 -50 146 -112 214
-183 57 -59 159 -190 159 -204 0 -5 5 -10 10 -10 6 0 10 -7 10 -15 0 -8 3 -15
8 -15 4 0 12 -10 17 -23 6 -12 23 -44 37 -72 43 -84 101 -229 113 -285 2 -8
10 -44 19 -80 33 -144 38 -221 38 -660 0 -444 -3 -488 -43 -625 -32 -110 -112
-268 -172 -342 -88 -107 -195 -202 -295 -260 -87 -51 -227 -100 -308 -107 -11
-1 -25 -5 -31 -9 -14 -9 -2178 -3 -2218 6 -27 6 -76 23 -162 58 -18 7 -33 17
-33 21 0 4 -5 8 -11 8 -12 0 -76 48 -119 90 -76 72 -143 184 -179 296 -70 220
-23 438 126 581 58 56 175 118 243 129 14 2 35 7 48 9 13 3 471 6 1018 6 l995
0 46 -23 c144 -72 146 -279 2 -353 -17 -9 -41 -18 -52 -21 -12 -2 -460 -4
-995 -4 -1072 0 -1014 3 -1048 -62 -12 -24 -15 -46 -10 -90 10 -100 66 -182
156 -229 l45 -24 1065 0 c1057 0 1065 0 1122 21 207 76 358 256 398 474 13 70
17 749 6 875 -6 59 -22 146 -40 216 -53 202 -204 425 -374 551 -31 24 -58 46
-60 51 -2 4 -8 7 -12 7 -5 0 -31 13 -57 28 -119 69 -305 125 -453 137 -108 9
-560 9 -620 0 -84 -12 -100 -15 -148 -31 -91 -31 -167 -79 -238 -149 -65 -65
-123 -144 -106 -146 4 0 185 -2 402 -4 217 -2 407 -6 421 -8 69 -12 146 -29
159 -34 8 -3 23 -8 33 -10 40 -7 186 -88 253 -138 85 -65 207 -193 243 -255
18 -31 23 -106 9 -152 -21 -72 -108 -138 -182 -138 -82 0 -103 14 -240 158
-93 98 -188 149 -311 168 -56 8 -845 12 -845 4 -1 -3 -2 -46 -4 -96 -4 -111
-41 -237 -83 -282 -7 -7 -13 -17 -13 -22 0 -10 -107 -113 -123 -119 -6 -2 -17
-10 -24 -17 -14 -14 -106 -50 -150 -59 -15 -3 -71 -8 -123 -10 -83 -4 -125 -8
-191 -20 -9 -2 -34 -8 -55 -14 -53 -15 -95 -14 -137 4 -44 18 -97 62 -97 81 0
8 -4 14 -9 14 -9 0 -25 75 -22 100 23 161 134 214 486 234 85 5 99 10 121 43
20 32 29 159 11 165 -7 3 -59 3 -117 2 -116 -2 -152 -7 -243 -32 -126 -35
-254 56 -257 183 -3 104 65 182 185 214 95 25 174 33 329 35 l139 2 24 69 c30
83 83 181 136 255 41 56 194 210 209 210 5 0 18 8 28 18 11 10 59 37 107 61
49 24 95 46 104 51 21 11 165 50 203 55 17 2 63 7 101 10 39 4 71 7 72 8 4 5
508 -1 573 -7z"/>
</g>
</svg>
