<svg width="21" height="18" viewBox="0 0 21 18" fill="none" xmlns="http://www.w3.org/2000/svg">
<path d="M4.4793 4.87183L4.30242 4.87806C2.92004 4.92673 1.98094 5.08899 1.38899 5.19862C1.00235 5.27023 0.746673 5.64331 0.817915 6.03192C0.889158 6.42053 1.26034 6.67751 1.64698 6.60591C2.17084 6.50889 2.98718 6.36654 4.18693 6.31462L4.41889 6.30459V7.45625C4.41889 7.70919 4.36447 7.84647 4.32086 7.91907C4.27763 7.99103 4.21936 8.04225 4.143 8.08236C3.96572 8.17549 3.74918 8.181 3.65047 8.181C3.07039 8.181 2.50228 8.26655 2.08396 8.34752C1.87243 8.38846 1.69422 8.42925 1.56747 8.45918L1.48415 8.47901L1.42301 8.49351L1.4127 8.49591L1.40505 8.49713C1.06562 8.55138 0.80613 8.84729 0.80613 9.2037C0.80613 9.59885 1.12484 9.91919 1.51799 9.91919C1.57676 9.91919 1.625 9.9115 1.63448 9.91L1.63601 9.90975C1.6545 9.90685 1.6709 9.90364 1.68137 9.90151C1.7028 9.89715 1.72561 9.89193 1.74468 9.88749L1.82151 9.86926L1.89317 9.85221C2.01029 9.82455 2.16794 9.78853 2.35319 9.75267C2.72841 9.68005 3.19766 9.61198 3.65047 9.61198L3.65984 9.61198C3.79206 9.61217 4.3053 9.61175 4.80249 9.35055C5.06961 9.21023 5.33994 8.99116 5.53965 8.6587C5.73922 8.32649 5.84261 7.92377 5.84261 7.45625V6.29473H10.2575C11.618 6.29473 12.2929 6.65952 12.6355 6.97036C12.9746 7.278 13.0795 7.60949 13.1425 7.80831L13.1489 7.82876C13.2685 8.20511 13.6691 8.41294 14.0436 8.29279C14.4181 8.17262 14.6248 7.77004 14.5052 7.39361L14.4957 7.36352C14.4195 7.12055 14.2176 6.47794 13.5895 5.90811C12.9271 5.30714 11.8833 4.86376 10.2575 4.86376H5.92254L6.00414 4.57846C6.11138 4.20351 6.28511 3.77531 6.56064 3.37016C7.12007 2.54756 8.13529 1.76035 10.0728 1.76035H12.3806C14.8319 1.76035 16.4448 2.75584 17.4604 4.03443C18.4967 5.33904 18.9331 6.96968 18.9331 8.2165V11.2181C18.9331 12.091 18.52 13.3539 17.6529 14.3969C16.8029 15.4194 15.552 16.1902 13.8832 16.1902H5.09857C3.71139 16.1902 3.02717 15.7573 2.67702 15.3493C2.30605 14.9169 2.20961 14.3951 2.20961 14.081C2.20961 13.8177 2.26133 13.6093 2.35514 13.442C2.44919 13.2742 2.57608 13.1648 2.69834 13.0853C3.00246 12.8878 3.39487 12.8164 3.65047 12.8164H13.8271C14.2202 12.8164 14.5389 12.4961 14.5389 12.1009C14.5389 11.7058 14.2202 11.3855 13.8271 11.3855H3.65047C3.20671 11.3855 2.52286 11.4955 1.92555 11.8835C1.28683 12.2984 0.785889 13.012 0.785889 14.081C0.785889 14.6293 0.943181 15.5196 1.59886 16.2838C2.27534 17.0722 3.39127 17.6211 5.09857 17.6211H13.8832C16.0409 17.6211 17.671 16.6068 18.7454 15.3145C19.8026 14.0429 20.3568 12.4621 20.3568 11.2181V8.2165C20.3568 6.68282 19.8329 4.72766 18.573 3.1416C17.2924 1.52947 15.2731 0.329376 12.3806 0.329376H10.0728C7.66681 0.329376 6.21098 1.3485 5.38527 2.56265C4.88721 3.29502 4.63292 4.07491 4.51296 4.69718L4.4793 4.87183Z" fill="#101011"/>
</svg>
