<svg width="19" height="19" viewBox="0 0 19 19" fill="none" xmlns="http://www.w3.org/2000/svg">
<path fill-rule="evenodd" clip-rule="evenodd" d="M3.9834 8.03278C3.9834 5.1106 6.35229 2.7417 9.27448 2.7417C12.1967 2.7417 14.5656 5.1106 14.5656 8.03278C14.5656 9.33262 14.0981 10.5207 13.321 11.442C12.758 12.1094 11.5685 13.4327 10.5066 14.6031C10.0478 15.1088 9.61612 15.5823 9.27448 15.9563C8.93284 15.5823 8.50114 15.1088 8.04238 14.6031C6.98045 13.4327 5.79094 12.1094 5.22794 11.442C4.45084 10.5207 3.9834 9.33262 3.9834 8.03278ZM8.53785 18.1136L9.27448 17.4373L8.5379 18.1137L9.27448 18.9158L10.0111 18.1137L9.27448 17.4373L10.0111 18.1136L10.0112 18.1135L10.0118 18.1129L10.0138 18.1107L10.0217 18.102L10.0527 18.0683L10.1711 17.9392C10.2736 17.8273 10.4212 17.6661 10.602 17.4684C10.9634 17.0731 11.4575 16.5315 11.9878 15.947C13.0428 14.7842 14.2588 13.4321 14.8498 12.7315C15.9198 11.463 16.5656 9.82199 16.5656 8.03278C16.5656 4.00603 13.3012 0.741699 9.27448 0.741699C5.24773 0.741699 1.9834 4.00603 1.9834 8.03278C1.9834 9.822 2.62916 11.463 3.69918 12.7315C4.29019 13.4321 5.50614 14.7842 6.56117 15.947C7.09149 16.5315 7.58556 17.0731 7.94699 17.4684C8.12774 17.6661 8.27537 17.8273 8.37786 17.9392L8.49624 18.0683L8.52722 18.102L8.53517 18.1107L8.5372 18.1129L8.53772 18.1135L8.53785 18.1136ZM7.6715 8.03278C7.6715 7.14741 8.38923 6.42967 9.2746 6.42967C10.16 6.42967 10.8777 7.14741 10.8777 8.03278C10.8777 8.91815 10.16 9.63589 9.2746 9.63589C8.38923 9.63589 7.6715 8.91815 7.6715 8.03278ZM9.2746 4.42967C7.28466 4.42967 5.6715 6.04284 5.6715 8.03278C5.6715 10.0227 7.28466 11.6359 9.2746 11.6359C11.2645 11.6359 12.8777 10.0227 12.8777 8.03278C12.8777 6.04284 11.2645 4.42967 9.2746 4.42967Z" fill="black"/>
</svg>
