<svg width="21" height="20" viewBox="0 0 21 20" fill="none" xmlns="http://www.w3.org/2000/svg">
<path fill-rule="evenodd" clip-rule="evenodd" d="M8.32694 0.859375L9.04087 1.62931L10.5006 3.20354L11.9604 1.62931L12.6743 0.859375L14.2142 2.28725L13.5002 3.05718L11.5506 5.1597V6.26257L12.7661 7.1745L13.9948 8.03872L15.5273 7.5333L16.185 5.36754L16.49 4.36284L18.4994 4.97301L18.1944 5.97771L17.5964 7.9468L19.2901 9.16753L20.1419 9.78149L18.914 11.4851L18.0622 10.8711L16.1941 9.52465L14.8011 9.98408L14.2257 11.6666L13.8291 12.9541L14.87 14.3291L17.1916 14.3333L18.2416 14.3352L18.2378 16.4352L17.1878 16.4333L15.1095 16.4296L14.4721 18.39L14.1474 19.3886L12.1503 18.7392L12.475 17.7407L13.1792 15.5748L12.3448 14.4727L10.4045 14.4429L8.65866 14.4697L7.82205 15.5748L8.52626 17.7407L8.85093 18.7392L6.85384 19.3886L6.52917 18.39L5.89174 16.4296L3.81348 16.4333L2.76349 16.4352L2.75968 14.3352L3.80968 14.3333L6.13121 14.3291L7.03547 13.1346L6.58327 11.6666L5.98346 9.91261L4.80716 9.52466L2.93908 10.8711L2.08729 11.4851L0.859375 9.78149L1.71117 9.16753L3.40481 7.9468L2.80688 5.97771L2.50179 4.97301L4.5112 4.36284L4.81628 5.36754L5.47393 7.5333L6.87552 7.99555L8.04285 7.1745L9.45062 6.11833V5.1597L7.50101 3.05718L6.78707 2.28725L8.32694 0.859375ZM11.558 8.89217L12.6842 9.68431L12.2387 10.9871L12.2283 11.0176L12.2188 11.0484L11.8134 12.3643L10.4367 12.3431L10.4045 12.3427L10.3723 12.3431L8.99555 12.3643L8.59021 11.0484L8.58072 11.0176L8.5703 10.9871L8.12478 9.68431L9.25099 8.89217L9.27734 8.87364L9.30311 8.85431L10.4045 8.028L11.5059 8.85431L11.5316 8.87364L11.558 8.89217Z" fill="black"/>
</svg>
