<svg width="19" height="19" viewBox="0 0 19 19" fill="none" xmlns="http://www.w3.org/2000/svg">
<path fill-rule="evenodd" clip-rule="evenodd" d="M4.49559 14.5095C1.71294 11.7269 1.71294 7.21538 4.49559 4.43276C5.16966 3.7587 5.94424 3.24825 6.77107 2.90093C6.06158 3.97847 5.61035 5.18674 5.50562 6.43643C5.34928 8.30203 5.97419 10.1865 7.52781 11.74C9.08141 13.2936 10.9658 13.9185 12.8314 13.7622C13.8745 13.6748 14.8887 13.346 15.8221 12.8271C15.4992 13.4315 15.0827 13.9993 14.5725 14.5095C11.7898 17.2922 7.27825 17.2922 4.49559 14.5095ZM3.01066 2.94785C-0.592096 6.55056 -0.592096 12.3917 3.01066 15.9944C6.61342 19.5972 12.4546 19.5972 16.0574 15.9944C17.4811 14.5708 18.3433 12.7948 18.6413 10.9467C18.7799 10.0872 18.0966 9.64261 17.7445 9.5252C17.3823 9.40443 16.7721 9.38277 16.3132 9.84168C15.2298 10.9251 13.9249 11.5632 12.6561 11.6695C11.4123 11.7738 10.1335 11.3759 9.01273 10.2551C7.89194 9.13436 7.49407 7.85558 7.5983 6.6118C7.70463 5.34295 8.34273 4.03806 9.42618 2.95461C9.87874 2.50205 9.91294 1.87578 9.84583 1.49629C9.80771 1.28075 9.71453 0.994024 9.49465 0.745576C9.24434 0.46275 8.84468 0.259075 8.37001 0.319145C6.41085 0.567078 4.51439 1.44414 3.01066 2.94785ZM13.7637 5.85217C13.487 5.57543 13.487 5.12675 13.7637 4.85001C14.0405 4.57327 14.4892 4.57327 14.7659 4.85001C15.0426 5.12675 15.0426 5.57543 14.7659 5.85217C14.4892 6.12891 14.0405 6.12891 13.7637 5.85217ZM12.2788 3.36509C11.182 4.46193 11.182 6.24025 12.2788 7.33709C13.3756 8.43392 15.154 8.43392 16.2508 7.33709C17.3477 6.24025 17.3477 4.46193 16.2508 3.36509C15.154 2.26826 13.3756 2.26826 12.2788 3.36509Z" fill="#101011"/>
</svg>
