<svg width="21" height="22" viewBox="0 0 21 22" fill="none" xmlns="http://www.w3.org/2000/svg">
<path fill-rule="evenodd" clip-rule="evenodd" d="M8.64648 3.17662C9.10207 3.09547 9.57109 3.05312 10.05 3.05312C13.012 3.05312 15.5956 4.67297 16.9634 7.07512C16.5078 7.15628 16.0388 7.19862 15.5599 7.19862C12.5979 7.19862 10.0143 5.57878 8.64648 3.17662ZM6.17448 4.0601C4.48763 5.0037 3.17997 6.54423 2.53745 8.39573C4.2243 7.45213 5.53196 5.9116 6.17448 4.0601ZM2.10067 10.899C2.10022 10.9337 2.1 10.9684 2.1 11.0031C2.1 15.3938 5.65934 18.9531 10.05 18.9531C14.4407 18.9531 18 15.3938 18 11.0031C18 10.3317 17.9168 9.6798 17.7601 9.05705C17.052 9.21519 16.3157 9.29862 15.5599 9.29862C12.436 9.29862 9.64509 7.87339 7.8018 5.6377C6.68703 8.06835 4.63117 9.9776 2.10067 10.899ZM10.05 0.953125C4.49954 0.953125 0 5.45266 0 11.0031C0 16.5536 4.49954 21.0531 10.05 21.0531C15.6005 21.0531 20.1 16.5536 20.1 11.0031C20.1 5.45266 15.6005 0.953125 10.05 0.953125ZM7.01911 10.6656C6.27268 10.6656 5.66758 11.2707 5.66758 12.0172C5.66758 12.7636 6.27268 13.3687 7.01911 13.3687C7.76554 13.3687 8.37064 12.7636 8.37064 12.0172C8.37064 11.2707 7.76554 10.6656 7.01911 10.6656ZM11.9137 12.0172C11.9137 11.2707 12.5188 10.6656 13.2652 10.6656C14.0116 10.6656 14.6167 11.2707 14.6167 12.0172C14.6167 12.7636 14.0116 13.3687 13.2652 13.3687C12.5188 13.3687 11.9137 12.7636 11.9137 12.0172Z" fill="black"/>
</svg>
