<svg width="19" height="19" viewBox="0 0 19 19" fill="none" xmlns="http://www.w3.org/2000/svg">
<path fill-rule="evenodd" clip-rule="evenodd" d="M17.8911 7.9306C15.8655 5.41369 12.7593 3.8031 9.27706 3.8031C5.79244 3.8031 2.6845 5.41585 0.658931 7.93566L2.19149 9.22164C3.8498 7.13845 6.40749 5.8031 9.27706 5.8031C12.1443 5.8031 14.7002 7.13627 16.3586 9.21655L17.8911 7.9306ZM15.3551 10.0586C13.9329 8.249 11.7243 7.08672 9.24418 7.08672C6.77694 7.08672 4.57836 8.23699 3.15547 10.0305L4.6884 11.3168C5.7437 9.95977 7.39199 9.08672 9.24418 9.08672C11.1092 9.08672 12.7675 9.97193 13.8218 11.3451L15.3551 10.0586ZM12.8364 12.172C12.0187 11.0792 10.7141 10.3719 9.24418 10.3719C7.78716 10.3719 6.49246 11.0668 5.67349 12.1434L7.20886 13.4317C7.65803 12.7909 8.40218 12.3719 9.24418 12.3719C10.0991 12.3719 10.8531 12.8038 11.2999 13.4613L12.8364 12.172ZM8.24418 14.8543C8.24418 15.4066 8.69189 15.8543 9.24418 15.8543C9.79646 15.8543 10.2442 15.4066 10.2442 14.8543C10.2442 14.302 9.79646 13.8543 9.24418 13.8543C8.69189 13.8543 8.24418 14.302 8.24418 14.8543Z" fill="black"/>
</svg>
