<svg width="94" height="67" viewBox="0 0 94 67" fill="none" xmlns="http://www.w3.org/2000/svg">
<path fill-rule="evenodd" clip-rule="evenodd" d="M33.9226 20.3133L33.8863 22.921C33.8863 26.3184 34.6951 32.1999 25.7714 32.1999C18.1 32.1999 12.5988 33.805 7.99052 35.2985C3.38229 36.792 0.508131 35.9304 0.508131 32.0519C0.475722 30.5197 1.14421 29.0805 3.30194 27.9512C9.67156 25.2674 15.322 24.2447 18.5229 23.5896C20.2929 23.2274 20.2929 22.921 20.2929 21.5584C20.2943 20.8062 20.2441 21.0475 20.2929 20.3133C18.5229 20.3133 12.7851 21.0745 9.24208 22.2855C3.91907 24.1048 0.483916 23.9686 0.483916 19.3081C0.478018 17.854 1.35803 16.6649 3.30194 15.7761C9.98918 12.7188 18.5229 11.7772 20.2929 11.7772C20.2929 9.25615 25.7714 0.0161133 43.6458 0.0161133H53.9559C85.304 0.0161133 93.15 11.7772 93.15 26.3184V45.2684C93.15 58.8201 84.2729 66.999 62.1948 66.999L25.7714 66.999C3.30194 66.999 0.544422 58.8201 0.544422 51.1509C0.544422 42.1112 8.74615 35.2985 25.7714 35.2985C42.7967 35.2985 62.1948 35.2985 62.1948 35.2985C66.9535 35.2985 71.6381 38.6191 71.6381 45.2684C71.6381 51.9177 66.163 55.2382 62.1948 55.2382L25.7775 55.2382C23.519 55.2382 21.688 53.4073 21.6881 51.1488C21.6881 48.8902 23.519 47.0593 25.7775 47.0593L54.9559 47.0593C56.1043 47.0593 56.9795 46.5908 56.9795 45.2684C56.9795 43.946 56.1043 43.4774 54.9559 43.4774C54.9559 43.4774 30.1603 43.4774 25.7714 43.4774C21.3826 43.4774 18.1 46.9121 18.1 51.1488C18.1 55.3856 21.5346 58.8201 25.7714 58.8201L62.1948 58.8201C69.6792 58.8201 75.7465 52.7528 75.7465 45.2684V26.3184C75.7465 14.0076 65.0127 8.20282 53.9559 8.20282C42.899 8.20282 53.6986 8.32244 43.6458 8.20282C37.9846 8.20282 34.2339 10.3205 34.2339 11.7772C38.2672 11.7882 43.6458 11.7769 43.6458 11.7769C49.3732 11.7769 54.2921 11.7772 62.1948 15.7761C71.1611 20.3133 69.7208 32.1999 62.1948 32.1999C55.4348 32.1999 52.9875 26.2807 49.3732 23.5896C44.9728 20.3133 43.5527 20.3133 33.9226 20.3133Z" fill="#0B3520"/>
</svg>
