<svg width="94" height="68" viewBox="0 0 94 68" fill="none" xmlns="http://www.w3.org/2000/svg">
<path fill-rule="evenodd" clip-rule="evenodd" d="M33.9226 20.7979L33.8863 23.4056C33.8863 26.803 34.6951 32.6845 25.7714 32.6845C18.1 32.6845 12.5988 34.2897 7.99052 35.7832C3.38229 37.2766 0.508131 36.4151 0.508131 32.5365C0.475722 31.0043 1.14421 29.5651 3.30194 28.4359C9.67156 25.752 15.322 24.7293 18.5229 24.0742C20.2929 23.712 20.2929 23.4056 20.2929 22.043C20.2943 21.2908 20.2441 21.5321 20.2929 20.7979C18.5229 20.7979 12.7851 21.5592 9.24208 22.7701C3.91907 24.5894 0.483916 24.4532 0.483916 19.7927C0.478018 18.3386 1.35803 17.1495 3.30194 16.2608C9.98918 13.2035 18.5229 12.2618 20.2929 12.2618C20.2929 9.74077 25.7714 0.500732 43.6458 0.500732H53.9559C85.304 0.500732 93.15 12.2618 93.15 26.803V45.753C93.15 59.3048 84.2729 67.4836 62.1948 67.4836L25.7714 67.4836C3.30194 67.4836 0.544422 59.3048 0.544422 51.6355C0.544422 42.5958 8.74615 35.7832 25.7714 35.7832C42.7967 35.7832 62.1948 35.7832 62.1948 35.7832C66.9535 35.7832 71.6381 39.1037 71.6381 45.753C71.6381 52.4023 66.163 55.7229 62.1948 55.7229L25.7775 55.7228C23.519 55.7228 21.688 53.8919 21.6881 51.6334C21.6881 49.3748 23.519 47.5439 25.7775 47.5439L54.9559 47.544C56.1043 47.544 56.9795 47.0754 56.9795 45.753C56.9795 44.4306 56.1043 43.962 54.9559 43.962C54.9559 43.962 30.1603 43.962 25.7714 43.962C21.3826 43.962 18.1 47.3967 18.1 51.6334C18.1 55.8702 21.5346 59.3048 25.7714 59.3048L62.1948 59.3047C69.6792 59.3047 75.7465 53.2374 75.7465 45.753V26.803C75.7465 14.4922 65.0127 8.68744 53.9559 8.68744C42.899 8.68744 53.6986 8.80706 43.6458 8.68744C37.9846 8.68744 34.2339 10.8051 34.2339 12.2618C38.2672 12.2729 43.6458 12.2615 43.6458 12.2615C49.3732 12.2615 54.2921 12.2618 62.1948 16.2608C71.1611 20.7979 69.7208 32.6845 62.1948 32.6845C55.4348 32.6845 52.9875 26.7653 49.3732 24.0742C44.9728 20.7979 43.5527 20.7979 33.9226 20.7979Z" fill="#FCFCFB"/>
</svg>
