<svg width="12" height="12" viewBox="0 0 12 12" fill="none" xmlns="http://www.w3.org/2000/svg">
<path d="M1.5 6C1.5 8.20914 3.29086 10 5.5 10H6.5C8.70914 10 10.5 8.20914 10.5 6V6H1.5V6Z" stroke="#202521" stroke-linejoin="round"/>
<path d="M6.10429 4V4C5.82935 3.72515 5.83046 3.27829 6.10534 3.00338V3.00338C6.38146 2.72723 6.38041 2.27615 6.10429 2V2" stroke="#202521" stroke-linecap="round"/>
<path d="M3.55302 4V4C3.27808 3.72515 3.27919 3.27829 3.55407 3.00338V3.00338C3.83019 2.72723 3.82914 2.27615 3.55302 2V2" stroke="#202521" stroke-linecap="round"/>
<path d="M8.65556 4V4C8.38062 3.72515 8.38173 3.27829 8.65661 3.00338V3.00338C8.93273 2.72723 8.93168 2.27615 8.65556 2V2" stroke="#202521" stroke-linecap="round"/>
</svg>
