<svg width="18" height="19" viewBox="0 0 18 19" fill="none" xmlns="http://www.w3.org/2000/svg">
<path fill-rule="evenodd" clip-rule="evenodd" d="M9 18.75C13.9706 18.75 18 14.7206 18 9.75C18 4.77944 13.9706 0.75 9 0.75C4.02944 0.75 0 4.77944 0 9.75C0 14.7206 4.02944 18.75 9 18.75ZM6.7515 6.73251C7.0106 6.21655 7.5935 5.6813 8.64021 5.6813L9.84776 5.6813C11.9947 5.6813 13.3793 7.24617 13.3793 9.13405V11.1856C13.3793 12.1938 12.5774 13.0907 11.5959 13.0907L5.50831 13.0907C4.96599 13.0907 4.62096 12.6481 4.62096 12.1829C4.62096 12.0495 4.66885 11.9678 4.72727 11.9143C4.79266 11.8545 4.89418 11.811 5.01593 11.811H8.76385L10.9341 11.811C11.2795 11.811 11.5596 11.531 11.5596 11.1856C11.5596 10.8401 11.2795 10.5601 10.9341 10.5601L8.76385 10.5601H5.01593C4.18925 10.5601 3.37002 11.1689 3.37002 12.1829C3.37002 13.199 4.14297 14.3417 5.50831 14.3417L11.5959 14.3417C13.3713 14.3417 14.6302 12.7769 14.6302 11.1856V9.13405C14.6302 6.58092 12.7109 4.43036 9.84776 4.43036L8.64021 4.43036C6.73403 4.43036 5.71195 5.6538 5.422 6.73251H5.28009H5.09827H4.94673H4.8045C4.39808 6.73251 3.9332 6.8516 3.79576 6.89789C3.46839 7.00815 3.29238 7.36291 3.40264 7.69028C3.5129 8.01765 3.86766 8.19366 4.19503 8.0834C4.1949 8.08345 4.19494 8.08344 4.19514 8.08337C4.19628 8.08301 4.20276 8.08095 4.2156 8.07732C4.22968 8.07333 4.24828 8.06833 4.2708 8.06268C4.31596 8.05134 4.3731 8.03832 4.43641 8.0261C4.56886 8.00053 4.70281 7.98345 4.8045 7.98345H4.88779H4.94673H5.28009H5.33466V8.29799C5.33466 8.39248 5.29851 8.48442 5.24221 8.5471C5.19322 8.60164 5.12412 8.64138 5.016 8.64138C4.58461 8.64138 4.11371 8.70536 3.79306 8.81504C3.46621 8.92684 3.29188 9.28243 3.40368 9.60928C3.51548 9.93612 3.87107 10.1105 4.19792 9.99866C4.3507 9.9464 4.67611 9.89232 5.016 9.89232C6.00811 9.89232 6.58561 9.06566 6.58561 8.29799V7.98345H8.76385C9.14698 7.98345 9.41867 8.02363 9.65662 8.12732C9.89006 8.22905 10.1439 8.41539 10.4438 8.79414C10.6583 9.06495 11.0517 9.11063 11.3225 8.89618C11.5933 8.68172 11.639 8.28834 11.4245 8.01753C11.0318 7.52168 10.6235 7.18409 10.1564 6.98054C9.6938 6.77896 9.22664 6.73251 8.76385 6.73251H6.7515Z" fill="#165937"/>
</svg>
