<svg width="19" height="18" viewBox="0 0 19 18" fill="none" xmlns="http://www.w3.org/2000/svg">
<path d="M9.01401 9.07949C9.01401 8.35955 9.01401 7.23597 9.01401 7.23594C9.01401 7.23594 9.01401 7.23594 9.01401 7.23594V5.54981M9.01401 9.07949C9.70295 9.07949 10.7782 9.07949 10.7782 9.07949C10.7782 9.07949 10.7782 9.07949 10.7782 9.07949H12.4648M9.01401 9.07949C8.32511 9.07949 7.93887 9.07949 7.24996 9.07949H5.57322M9.01401 9.07949C9.01401 9.73739 9.01401 10.7642 9.01401 10.7642C9.01401 10.7642 9.01401 10.7642 9.01401 10.7642L9.01401 12.451M5.57322 9.07949C5.57322 9.07949 4.75388 9.15003 4.63764 9.2041C2.87025 10.0263 2.45846 12.3554 3.8368 13.7337L4.28042 14.1773C5.65876 15.5557 7.98788 15.1439 8.81005 13.3765C8.86412 13.2603 8.90202 13.1372 8.92267 13.0106L9.01401 12.451M5.57322 9.07949C5.57322 9.07949 4.75375 8.84997 4.63751 8.7959C2.87012 7.97373 2.45834 5.64462 3.83668 4.26628L4.28029 3.82267C5.65863 2.44433 7.98775 2.85612 8.80992 4.6235C8.864 4.73974 8.90189 4.86284 8.92254 4.98937L9.01401 5.54981M9.01401 12.451L9.10535 13.0105C9.126 13.137 9.16389 13.2601 9.21796 13.3764C10.0401 15.1437 12.3693 15.5555 13.7476 14.1772L14.1912 13.7336C15.5695 12.3552 15.1578 10.0261 13.3904 9.20397C13.2741 9.1499 13.151 9.11201 13.0245 9.09136L12.4648 9.07949M12.4648 9.07949L13.0246 8.90863C13.1512 8.88798 13.2743 8.85009 13.3905 8.79602C15.1579 7.97385 15.5697 5.64474 14.1913 4.26641L13.7477 3.82279C12.3694 2.44445 10.0403 2.85624 9.21808 4.62362C9.16401 4.73986 9.12612 4.86297 9.10547 4.98949L9.01401 5.54981" stroke="white"/>
<path d="M9.01404 9.37937C9.01404 9.21369 9.14823 9.0795 9.31392 9.0795C9.97639 9.0795 10.7782 9.0795 10.7782 9.0795C10.7782 9.0795 10.7782 9.0795 10.7782 9.0795H12.4648L13.0245 9.09137C13.151 9.11202 13.2741 9.14991 13.3904 9.20398C15.1578 10.0262 15.5695 12.3553 14.1912 13.7336L13.7476 14.1772C12.3693 15.5555 10.0402 15.1438 9.218 13.3764C9.16392 13.2601 9.12603 13.137 9.10538 13.0105L9.01405 12.451L9.01404 10.7642C9.01404 10.7642 9.01404 10.7642 9.01404 10.7642C9.01404 10.7642 9.01404 10.0093 9.01404 9.37937Z" stroke="white"/>
</svg>
