<svg width="14" height="13" viewBox="0 0 14 13" fill="none" xmlns="http://www.w3.org/2000/svg">
<path d="M8.06654 0.865234C8.44059 0.865234 8.74382 1.16449 8.74382 1.53364V3.63565L8.66856 4.85619V5.07294L8.87772 5.00587L10.0307 4.55807L12.0563 3.90851C12.4121 3.79444 12.7942 3.98657 12.9098 4.33765L13.4349 5.93264C13.5505 6.28372 13.3558 6.66081 13 6.77488L10.9744 7.42444L9.77491 7.73097L9.56602 7.79796L9.69529 7.97355L10.4831 8.91734L11.735 10.6179C11.9549 10.9165 11.8878 11.3345 11.5852 11.5515L10.2104 12.5373C9.90781 12.7543 9.48426 12.6881 9.2644 12.3894L8.01247 10.6889L7.34641 9.65776L7.21732 9.48241L7.08805 9.658L6.42199 10.6891L5.17006 12.3897C4.9502 12.6883 4.52666 12.7545 4.22404 12.5375L2.84926 11.5518C2.54665 11.3348 2.47956 10.9168 2.69942 10.6181L3.95135 8.91758L4.73917 7.97379L4.86827 7.79843L4.65912 7.73136L3.45965 7.42482L1.43399 6.77527C1.07825 6.66119 0.883564 6.28411 0.999151 5.93303L1.52427 4.33804C1.63986 3.98696 2.02195 3.79483 2.37769 3.9089L4.40335 4.55846L5.55631 5.00626L5.76519 5.07324V4.85619L5.68994 3.63565V1.53364C5.68994 1.16449 5.99316 0.865234 6.36721 0.865234H8.06654Z" fill="#F5D255"/>
</svg>
