<svg width="32" height="30" viewBox="0 0 32 30" fill="none" xmlns="http://www.w3.org/2000/svg">
<path d="M15.6923 23.0711V9.66685M15.6923 23.0711H13.9534M15.6923 23.0711H17.4312M5.79004 7.75195H26.2156V9.66685H5.79004V7.75195Z" stroke="black" stroke-linecap="square"/>
<path d="M1.14661 22.9799C1.09648 23.2514 1.27598 23.5122 1.54754 23.5623C1.81909 23.6125 2.07986 23.433 2.12999 23.1614L1.14661 22.9799ZM8.80619 23.1614C8.85631 23.433 9.11709 23.6125 9.38864 23.5623C9.6602 23.5122 9.8397 23.2514 9.78957 22.9799L8.80619 23.1614ZM9.29788 15.2718H9.79788V14.2718H9.29788V15.2718ZM3.17021 17.9749H2.67021V18.9749H3.17021V17.9749ZM7.76596 18.9749H8.26596V17.9749H7.76596V18.9749ZM1.49795 7.70522L1.45268 7.20727L0.456786 7.29781L0.502053 7.79576L1.49795 7.70522ZM7.76596 14.2718H5.46809V15.2718H7.76596V14.2718ZM5.46809 14.2718H3.17021V15.2718H5.46809V14.2718ZM7.76596 15.2718H9.29788V14.2718H7.76596V15.2718ZM2.55151 15.2718H3.17021V14.2718H2.55151V15.2718ZM2.67852 14.681L1.14661 22.9799L2.12999 23.1614L3.66191 14.8625L2.67852 14.681ZM9.78957 22.9799L8.25766 14.681L7.27427 14.8625L8.80619 23.1614L9.78957 22.9799ZM3.17021 18.9749H7.76596V17.9749H3.17021V18.9749ZM2.05357 13.817L1.49795 7.70522L0.502053 7.79576L1.05767 13.9076L2.05357 13.817ZM2.55151 14.2718C2.29291 14.2718 2.07698 14.0746 2.05357 13.817L1.05767 13.9076C1.12791 14.6802 1.77571 15.2718 2.55151 15.2718V14.2718Z" fill="black"/>
<path d="M30.8534 22.9799C30.9035 23.2514 30.724 23.5122 30.4525 23.5623C30.1809 23.6125 29.9201 23.433 29.87 23.1614L30.8534 22.9799ZM23.1938 23.1614C23.1437 23.433 22.8829 23.6125 22.6114 23.5623C22.3398 23.5122 22.1603 23.2514 22.2104 22.9799L23.1938 23.1614ZM22.7021 15.2718H22.2021V14.2718H22.7021V15.2718ZM28.8298 17.9749H29.3298V18.9749H28.8298V17.9749ZM24.234 18.9749H23.734V17.9749H24.234V18.9749ZM30.5021 7.70522L30.5473 7.20727L31.5432 7.29781L31.4979 7.79576L30.5021 7.70522ZM24.234 14.2718H26.5319V15.2718H24.234V14.2718ZM26.5319 14.2718H28.8298V15.2718H26.5319V14.2718ZM24.234 15.2718H22.7021V14.2718H24.234V15.2718ZM29.4485 15.2718H28.8298V14.2718H29.4485V15.2718ZM29.3215 14.681L30.8534 22.9799L29.87 23.1614L28.3381 14.8625L29.3215 14.681ZM22.2104 22.9799L23.7423 14.681L24.7257 14.8625L23.1938 23.1614L22.2104 22.9799ZM28.8298 18.9749H24.234V17.9749H28.8298V18.9749ZM29.9464 13.817L30.5021 7.70522L31.4979 7.79576L30.9423 13.9076L29.9464 13.817ZM29.4485 14.2718C29.7071 14.2718 29.923 14.0746 29.9464 13.817L30.9423 13.9076C30.8721 14.6802 30.2243 15.2718 29.4485 15.2718V14.2718Z" fill="black"/>
</svg>
