<svg width="21" height="21" viewBox="0 0 21 21" fill="none" xmlns="http://www.w3.org/2000/svg">
<path fill-rule="evenodd" clip-rule="evenodd" d="M7.27186 12.2373C5.90157 10.867 5.90157 8.64532 7.27186 7.27503C8.64215 5.90474 10.8638 5.90474 12.2341 7.27503C13.5785 8.61946 13.6039 10.7834 12.3102 12.1588L12.1554 12.3136C10.78 13.6071 8.61622 13.5817 7.27186 12.2373ZM12.7285 13.7863C10.7679 15.2376 7.98809 15.0748 6.2112 13.298C4.25512 11.3419 4.25512 8.17045 6.2112 6.21437C8.16728 4.2583 11.3387 4.2583 13.2948 6.21437C15.0696 7.98916 15.2341 10.7645 13.7882 12.7247L16.0361 14.9727L16.5664 15.5031L15.5057 16.5637L14.9754 16.0333L12.7285 13.7863Z" fill="#101011"/>
</svg>
