<svg width="21" height="20" viewBox="0 0 21 20" fill="none" xmlns="http://www.w3.org/2000/svg">
<path fill-rule="evenodd" clip-rule="evenodd" d="M5.84418 5.36572C5.29189 5.36572 4.84418 5.81344 4.84418 6.36572V11.3744C4.84418 11.9267 5.29189 12.3744 5.84418 12.3744H15.8523C16.4046 12.3744 16.8523 11.9267 16.8523 11.3744V6.36572C16.8523 5.81344 16.4046 5.36572 15.8523 5.36572H5.84418ZM6.84418 10.3744V7.36572H14.8523V10.3744H6.84418ZM5.84418 13.9985C5.29189 13.9985 4.84418 14.4462 4.84418 14.9985C4.84418 15.5508 5.29189 15.9985 5.84418 15.9985H15.8523C16.4046 15.9985 16.8523 15.5508 16.8523 14.9985C16.8523 14.4462 16.4046 13.9985 15.8523 13.9985H5.84418Z" fill="black"/>
</svg>
