<?xml version="1.0" standalone="no"?>
<!DOCTYPE svg PUBLIC "-//W3C//DTD SVG 20010904//EN"
 "http://www.w3.org/TR/2001/REC-SVG-20010904/DTD/svg10.dtd">
<svg version="1.0" xmlns="http://www.w3.org/2000/svg"
 width="700.000000pt" height="700.000000pt" viewBox="0 0 700.000000 700.000000"
 preserveAspectRatio="xMidYMid meet">
<metadata>
Created by potrace 1.14, written by Peter Selinger 2001-2017
</metadata>
<g transform="translate(0.000000,700.000000) scale(0.100000,-0.100000)"
fill="#000000" stroke="none">
<path d="M3260 5204 c-14 -2 -59 -9 -100 -15 -151 -22 -328 -94 -455 -184 -87
-62 -222 -209 -279 -303 -27 -45 -64 -121 -82 -170 l-33 -87 -178 -6 c-252 -9
-373 -37 -439 -103 -67 -66 -80 -145 -40 -233 36 -77 88 -108 180 -108 39 0
107 8 151 18 57 13 112 17 190 15 126 -3 123 -1 110 -106 -5 -41 -14 -62 -34
-82 -24 -24 -35 -27 -131 -34 -135 -9 -281 -33 -347 -58 -169 -63 -190 -287
-35 -371 57 -31 109 -34 192 -12 30 9 117 20 192 25 171 12 214 22 300 67 171
90 277 281 278 501 l0 72 413 0 c592 -1 616 -7 818 -211 146 -148 195 -166
306 -115 71 33 106 87 111 170 5 76 -13 117 -90 202 -148 163 -276 254 -441
310 -138 47 -219 54 -654 54 -267 0 -403 3 -403 10 0 6 11 27 24 48 103 162
283 267 504 292 116 13 492 13 628 -1 297 -30 516 -130 715 -329 154 -153 236
-296 297 -519 l27 -96 0 -510 c0 -508 0 -510 -23 -575 -55 -154 -172 -296
-298 -362 -139 -73 -56 -69 -1285 -66 l-1104 3 -47 27 c-94 56 -152 156 -152
266 0 45 4 56 30 83 17 17 48 34 70 39 22 6 480 10 1047 10 971 0 1009 1 1045
19 143 74 153 272 17 356 l-48 30 -1033 3 c-1147 3 -1114 4 -1250 -63 -263
-129 -359 -420 -241 -734 96 -254 299 -415 567 -451 59 -8 413 -10 1170 -8
l1085 3 96 27 c190 52 322 129 459 267 182 183 284 400 311 661 16 155 6 925
-14 1035 -62 345 -202 620 -432 850 -190 189 -394 309 -660 387 -187 54 -250
60 -630 63 -192 2 -361 1 -375 -1z"/>
</g>
</svg>
