<svg width="12" height="12" viewBox="0 0 12 12" fill="none" xmlns="http://www.w3.org/2000/svg">
<path fill-rule="evenodd" clip-rule="evenodd" d="M7.37148 4.8647C7.37148 5.7446 7.12193 6.44252 6.69825 6.90929C6.28937 7.35974 5.61768 7.70669 4.52949 7.70669C3.4413 7.70669 2.76961 7.35974 2.36074 6.90929C1.93705 6.44252 1.6875 5.7446 1.6875 4.8647C1.6875 3.98554 1.93759 3.28748 2.36189 2.82038C2.77151 2.36944 3.44353 2.02271 4.52949 2.02271C5.61545 2.02271 6.28747 2.36944 6.69709 2.82038C7.1214 3.28748 7.37148 3.98554 7.37148 4.8647ZM6.79104 8.12476C6.20775 8.49355 5.45712 8.70669 4.52949 8.70669C1.89426 8.70669 0.6875 6.98657 0.6875 4.8647C0.6875 2.74282 1.898 1.02271 4.52949 1.02271C7.16098 1.02271 8.37148 2.74282 8.37148 4.8647C8.37148 5.86596 8.10278 6.77776 7.54208 7.46158L10.3328 10.2524L9.62574 10.9595L6.79104 8.12476Z" fill="#202521"/>
</svg>
