<svg width="19" height="19" viewBox="0 0 19 19" fill="none" xmlns="http://www.w3.org/2000/svg">
<path fill-rule="evenodd" clip-rule="evenodd" d="M5.41946 0.804688C5.99936 0.804688 6.46946 1.27479 6.46946 1.85469V2.75939H12.4929V1.85469C12.4929 1.27479 12.963 0.804688 13.5429 0.804688C14.1228 0.804688 14.5929 1.27479 14.5929 1.85469V2.75939H15.0561C16.7129 2.75939 18.0561 4.10254 18.0561 5.75939V7.123V9.223V14.2383C18.0561 15.8951 16.7129 17.2383 15.0561 17.2383H3.90625C2.2494 17.2383 0.90625 15.8951 0.90625 14.2383V9.223V7.123V5.75939C0.90625 4.10253 2.2494 2.75939 3.90625 2.75939H4.36946V1.85469C4.36946 1.27479 4.83956 0.804688 5.41946 0.804688ZM12.4929 4.85939V5.46517C12.4929 6.04507 12.963 6.51517 13.5429 6.51517C14.1228 6.51517 14.5929 6.04507 14.5929 5.46517V4.85939H15.0561C15.5531 4.85939 15.9561 5.26234 15.9561 5.75939V7.123H3.00625V5.75939C3.00625 5.26233 3.40919 4.85939 3.90625 4.85939H4.36946V5.46517C4.36946 6.04507 4.83956 6.51517 5.41946 6.51517C5.99936 6.51517 6.46946 6.04507 6.46946 5.46517V4.85939H12.4929ZM15.9561 9.223V14.2383C15.9561 14.7353 15.5531 15.1383 15.0561 15.1383H3.90625C3.40919 15.1383 3.00625 14.7353 3.00625 14.2383V9.223H15.9561Z" fill="black"/>
</svg>
