<svg width="19" height="19" viewBox="0 0 19 19" fill="none" xmlns="http://www.w3.org/2000/svg">
<path fill-rule="evenodd" clip-rule="evenodd" d="M9.49949 1.9C10.0242 1.9 10.4495 1.47467 10.4495 0.95C10.4495 0.42533 10.0242 0 9.49949 0C8.97482 0 8.54949 0.42533 8.54949 0.95C8.54949 1.47467 8.97482 1.9 9.49949 1.9ZM13.1003 9.50034C13.1003 11.4886 11.4886 13.1003 9.50034 13.1003C7.51211 13.1003 5.90034 11.4886 5.90034 9.50034C5.90034 7.51211 7.51211 5.90034 9.50034 5.90034C11.4886 5.90034 13.1003 7.51211 13.1003 9.50034ZM15.2003 9.50034C15.2003 12.6484 12.6484 15.2003 9.50034 15.2003C6.35231 15.2003 3.80034 12.6484 3.80034 9.50034C3.80034 6.35231 6.35231 3.80034 9.50034 3.80034C12.6484 3.80034 15.2003 6.35231 15.2003 9.50034ZM17.1 9.49949C17.1 10.0242 17.5253 10.4495 18.05 10.4495C18.5747 10.4495 19 10.0242 19 9.49949C19 8.97482 18.5747 8.54949 18.05 8.54949C17.5253 8.54949 17.1 8.97482 17.1 9.49949ZM8.55051 18.05C8.55051 17.5253 8.97584 17.1 9.50051 17.1C10.0252 17.1 10.4505 17.5253 10.4505 18.05C10.4505 18.5747 10.0252 19 9.50051 19C8.97584 19 8.55051 18.5747 8.55051 18.05ZM1.9 9.50051C1.9 8.97584 1.47467 8.55051 0.95 8.55051C0.42533 8.55051 0 8.97584 0 9.50051C0 10.0252 0.425329 10.4505 0.95 10.4505C1.47467 10.4505 1.9 10.0252 1.9 9.50051ZM16.2175 4.12591C15.8465 4.49691 15.245 4.49691 14.874 4.12591C14.503 3.75491 14.503 3.15341 14.874 2.78241C15.245 2.41141 15.8465 2.41141 16.2175 2.78241C16.5885 3.15341 16.5885 3.75491 16.2175 4.12591ZM14.8726 14.874C14.5016 15.245 14.5016 15.8465 14.8726 16.2175C15.2436 16.5885 15.8451 16.5885 16.2161 16.2175C16.5871 15.8465 16.5871 15.245 16.2161 14.874C15.8451 14.503 15.2436 14.503 14.8726 14.874ZM2.78247 14.8741C3.15347 14.5031 3.75498 14.5031 4.12598 14.8741C4.49697 15.2451 4.49697 15.8466 4.12598 16.2176C3.75498 16.5886 3.15347 16.5886 2.78247 16.2176C2.41147 15.8466 2.41147 15.2451 2.78247 14.8741ZM4.12744 4.12598C4.49843 3.75498 4.49843 3.15347 4.12744 2.78247C3.75644 2.41147 3.15493 2.41147 2.78393 2.78247C2.41294 3.15347 2.41294 3.75498 2.78393 4.12598C3.15493 4.49697 3.75644 4.49697 4.12744 4.12598Z" fill="black"/>
</svg>
