<svg width="19" height="19" viewBox="0 0 19 19" fill="none" xmlns="http://www.w3.org/2000/svg">
<path fill-rule="evenodd" clip-rule="evenodd" d="M8.4603 1.02007C8.84123 0.0870589 10.1624 0.0870583 10.5434 1.02007L12.7004 6.30327L17.9836 8.4603C18.9166 8.84123 18.9166 10.1624 17.9836 10.5434L12.7004 12.7004L10.5434 17.9836C10.1624 18.9166 8.84123 18.9166 8.4603 17.9836L6.30327 12.7004L1.02007 10.5434C0.0870589 10.1624 0.0870583 8.84123 1.02007 8.4603L6.30327 6.30327L8.4603 1.02007ZM9.50183 4.02475L8.09262 7.47633C7.97835 7.75622 7.75623 7.97835 7.47633 8.09262L4.02475 9.50183L7.47633 10.911C7.75622 11.0253 7.97835 11.2474 8.09262 11.5273L9.50183 14.9789L10.911 11.5273C11.0253 11.2474 11.2474 11.0253 11.5273 10.911L14.9789 9.50183L11.5273 8.09262C11.2474 7.97835 11.0253 7.75623 10.911 7.47633L9.50183 4.02475Z" fill="#101011"/>
</svg>
