<svg width="14" height="13" viewBox="0 0 14 13" fill="none" xmlns="http://www.w3.org/2000/svg">
<path d="M8.06654 0.365234C8.44059 0.365234 8.74382 0.664489 8.74382 1.03364V3.13565L8.66856 4.35619V4.57294L8.87772 4.50587L10.0307 4.05807L12.0563 3.40851C12.4121 3.29444 12.7942 3.48657 12.9098 3.83765L13.4349 5.43264C13.5505 5.78372 13.3558 6.16081 13 6.27488L10.9744 6.92444L9.77491 7.23097L9.56602 7.29796L9.69529 7.47355L10.4831 8.41734L11.735 10.1179C11.9549 10.4165 11.8878 10.8345 11.5852 11.0515L10.2104 12.0373C9.90781 12.2543 9.48426 12.1881 9.2644 11.8894L8.01247 10.1889L7.34641 9.15776L7.21732 8.98241L7.08805 9.158L6.42199 10.1891L5.17006 11.8897C4.9502 12.1883 4.52666 12.2545 4.22404 12.0375L2.84926 11.0518C2.54665 10.8348 2.47956 10.4168 2.69942 10.1181L3.95135 8.41758L4.73917 7.47379L4.86827 7.29843L4.65912 7.23136L3.45965 6.92482L1.43399 6.27527C1.07825 6.16119 0.883564 5.78411 0.999151 5.43303L1.52427 3.83804C1.63986 3.48696 2.02195 3.29483 2.37769 3.4089L4.40335 4.05846L5.55631 4.50626L5.76519 4.57324V4.35619L5.68994 3.13565V1.03364C5.68994 0.664489 5.99316 0.365234 6.36721 0.365234H8.06654Z" fill="#101215"/>
</svg>
