<svg width="10" height="15" viewBox="0 0 10 15" fill="none" xmlns="http://www.w3.org/2000/svg">
<path d="M2.33944 2.29429L2.03484 1.70891L2.18221 1.63167C2.75101 1.33356 3.44662 1.55831 3.74804 2.13758L4.13074 2.87304C3.48004 3.21408 2.68426 2.95697 2.33944 2.29429Z" fill="#FFBD00"/>
<path d="M5.99322 6.92196C5.7496 6.23611 5.05384 5.85126 4.39749 6.0179L4.57934 6.52971C4.823 7.21547 5.51869 7.60024 6.17498 7.43362L5.99322 6.92196Z" fill="#FFBD00"/>
<path d="M6.85534 5.34773L7.05225 5.90194C7.27213 6.52077 6.96838 7.18332 6.36718 7.39625L6.16887 6.83813C5.94977 6.22148 6.25626 5.55991 6.85534 5.34773Z" fill="#FFBD00"/>
<path d="M4.80887 7.91979C5.46985 8.06702 5.91732 8.72425 5.82552 9.44626L5.75703 9.98492C5.09611 9.8377 4.64866 9.18057 4.7404 8.45861L4.80887 7.91979Z" fill="#FFBD00"/>
<path d="M7.23071 9.01336L7.30485 8.4299C6.67446 8.34915 6.10259 8.80145 6.0201 9.45064L5.94543 10.0382C6.57805 10.1193 7.14792 9.66485 7.23071 9.01336Z" fill="#FFBD00"/>
<path d="M4.6783 11.7332C5.06749 11.1181 4.94078 10.3332 4.40452 9.91969L4.11412 10.3787C3.72501 10.9937 3.85174 11.7785 4.38794 12.192L4.6783 11.7332Z" fill="#FFBD00"/>
<path d="M6.44897 11.4397L6.13451 11.9367C5.78338 12.4917 5.07462 12.6617 4.53599 12.3202L4.85267 11.8196C5.20257 11.2666 5.91223 11.0993 6.44897 11.4397Z" fill="#FFBD00"/>
<path d="M3.61965 13.3114C2.98578 13.6691 2.20823 13.503 1.82227 12.9465L2.29532 12.6796C2.92916 12.322 3.70662 12.4881 4.09254 13.0445L3.61965 13.3114Z" fill="#FFBD00"/>
<path d="M3.37244 4.1173L3.67683 4.61543C4.01896 5.1753 4.72448 5.35208 5.26658 5.01377L4.96094 4.51359C4.61951 3.95486 3.91344 3.77969 3.37244 4.1173Z" fill="#FFBD00"/>
<path d="M5.15772 4.48505C4.82994 3.94875 4.94622 3.26912 5.40898 2.90808L5.65032 3.30304C5.97803 3.83931 5.86174 4.51886 5.39902 4.87986L5.15772 4.48505Z" fill="#FFBD00"/>
<path d="M2.33944 2.29429L2.03484 1.70891L2.18221 1.63167C2.75101 1.33356 3.44662 1.55831 3.74804 2.13758L4.13074 2.87304C3.48004 3.21408 2.68426 2.95697 2.33944 2.29429Z" stroke="#FFBD00" stroke-width="0.45" stroke-linejoin="round"/>
<path d="M5.99322 6.92196C5.7496 6.23611 5.05384 5.85126 4.39749 6.0179L4.57934 6.52971C4.823 7.21547 5.51869 7.60024 6.17498 7.43362L5.99322 6.92196Z" stroke="#FFBD00" stroke-width="0.45" stroke-linejoin="round"/>
<path d="M6.85534 5.34773L7.05225 5.90194C7.27213 6.52077 6.96838 7.18332 6.36718 7.39625L6.16887 6.83813C5.94977 6.22148 6.25626 5.55991 6.85534 5.34773Z" stroke="#FFBD00" stroke-width="0.45" stroke-linejoin="round"/>
<path d="M4.80887 7.91979C5.46985 8.06702 5.91732 8.72425 5.82552 9.44626L5.75703 9.98492C5.09611 9.8377 4.64866 9.18057 4.7404 8.45861L4.80887 7.91979Z" stroke="#FFBD00" stroke-width="0.45" stroke-linejoin="round"/>
<path d="M7.23071 9.01336L7.30485 8.4299C6.67446 8.34915 6.10259 8.80145 6.0201 9.45064L5.94543 10.0382C6.57805 10.1193 7.14792 9.66485 7.23071 9.01336Z" stroke="#FFBD00" stroke-width="0.45" stroke-linejoin="round"/>
<path d="M4.6783 11.7332C5.06749 11.1181 4.94078 10.3332 4.40452 9.91969L4.11412 10.3787C3.72501 10.9937 3.85174 11.7785 4.38794 12.192L4.6783 11.7332Z" stroke="#FFBD00" stroke-width="0.45" stroke-linejoin="round"/>
<path d="M6.44897 11.4397L6.13451 11.9367C5.78338 12.4917 5.07462 12.6617 4.53599 12.3202L4.85267 11.8196C5.20257 11.2666 5.91223 11.0993 6.44897 11.4397Z" stroke="#FFBD00" stroke-width="0.45" stroke-linejoin="round"/>
<path d="M3.61965 13.3114C2.98578 13.6691 2.20823 13.503 1.82227 12.9465L2.29532 12.6796C2.92916 12.322 3.70662 12.4881 4.09254 13.0445L3.61965 13.3114Z" stroke="#FFBD00" stroke-width="0.45" stroke-linejoin="round"/>
<path d="M3.37244 4.1173L3.67683 4.61543C4.01896 5.1753 4.72448 5.35208 5.26658 5.01377L4.96094 4.51359C4.61951 3.95486 3.91344 3.77969 3.37244 4.1173Z" stroke="#FFBD00" stroke-width="0.45" stroke-linejoin="round"/>
<path d="M5.15772 4.48505C4.82994 3.94875 4.94622 3.26912 5.40898 2.90808L5.65032 3.30304C5.97803 3.83931 5.86174 4.51886 5.39902 4.87986L5.15772 4.48505Z" stroke="#FFBD00" stroke-width="0.45" stroke-linejoin="round"/>
</svg>
