<svg width="10" height="15" viewBox="0 0 10 15" fill="none" xmlns="http://www.w3.org/2000/svg">
<path d="M6.80526 2.29429L7.10986 1.70891L6.96248 1.63167C6.39369 1.33356 5.69808 1.55831 5.39666 2.13758L5.01396 2.87304C5.66466 3.21408 6.46043 2.95697 6.80526 2.29429Z" fill="#FFBD00"/>
<path d="M3.15147 6.92196C3.3951 6.23611 4.09085 5.85126 4.74721 6.0179L4.56536 6.52971C4.3217 7.21547 3.62601 7.60024 2.96972 7.43362L3.15147 6.92196Z" fill="#FFBD00"/>
<path d="M2.28936 5.34773L2.09245 5.90194C1.87257 6.52077 2.17632 7.18332 2.77752 7.39625L2.97582 6.83813C3.19492 6.22148 2.88844 5.55991 2.28936 5.34773Z" fill="#FFBD00"/>
<path d="M4.33582 7.91979C3.67485 8.06702 3.22738 8.72425 3.31918 9.44626L3.38767 9.98492C4.04859 9.8377 4.49603 9.18057 4.40429 8.45861L4.33582 7.91979Z" fill="#FFBD00"/>
<path d="M1.91399 9.01336L1.83984 8.4299C2.47024 8.34915 3.04211 8.80145 3.1246 9.45064L3.19927 10.0382C2.56664 10.1193 1.99677 9.66485 1.91399 9.01336Z" fill="#FFBD00"/>
<path d="M4.4664 11.7332C4.07721 11.1181 4.20392 10.3332 4.74017 9.91969L5.03058 10.3787C5.41968 10.9937 5.29296 11.7785 4.75675 12.192L4.4664 11.7332Z" fill="#FFBD00"/>
<path d="M2.69573 11.4397L3.01019 11.9367C3.36132 12.4917 4.07007 12.6617 4.60871 12.3202L4.29202 11.8196C3.94213 11.2666 3.23247 11.0993 2.69573 11.4397Z" fill="#FFBD00"/>
<path d="M5.52505 13.3114C6.15892 13.6691 6.93647 13.503 7.32243 12.9465L6.84937 12.6796C6.21554 12.322 5.43808 12.4881 5.05216 13.0445L5.52505 13.3114Z" fill="#FFBD00"/>
<path d="M5.77226 4.1173L5.46786 4.61543C5.12574 5.1753 4.42022 5.35208 3.87811 5.01377L4.18376 4.51359C4.52519 3.95486 5.23126 3.77969 5.77226 4.1173Z" fill="#FFBD00"/>
<path d="M3.98698 4.48505C4.31475 3.94875 4.19848 3.26912 3.73572 2.90808L3.49437 3.30304C3.16667 3.83931 3.28296 4.51886 3.74568 4.87986L3.98698 4.48505Z" fill="#FFBD00"/>
<path d="M6.80526 2.29429L7.10986 1.70891L6.96248 1.63167C6.39369 1.33356 5.69808 1.55831 5.39666 2.13758L5.01396 2.87304C5.66466 3.21408 6.46043 2.95697 6.80526 2.29429Z" stroke="#FFBD00" stroke-width="0.45" stroke-linejoin="round"/>
<path d="M3.15147 6.92196C3.3951 6.23611 4.09085 5.85126 4.74721 6.0179L4.56536 6.52971C4.3217 7.21547 3.62601 7.60024 2.96972 7.43362L3.15147 6.92196Z" stroke="#FFBD00" stroke-width="0.45" stroke-linejoin="round"/>
<path d="M2.28936 5.34773L2.09245 5.90194C1.87257 6.52077 2.17632 7.18332 2.77752 7.39625L2.97582 6.83813C3.19492 6.22148 2.88844 5.55991 2.28936 5.34773Z" stroke="#FFBD00" stroke-width="0.45" stroke-linejoin="round"/>
<path d="M4.33582 7.91979C3.67485 8.06702 3.22738 8.72425 3.31918 9.44626L3.38767 9.98492C4.04859 9.8377 4.49603 9.18057 4.40429 8.45861L4.33582 7.91979Z" stroke="#FFBD00" stroke-width="0.45" stroke-linejoin="round"/>
<path d="M1.91399 9.01336L1.83984 8.4299C2.47024 8.34915 3.04211 8.80145 3.1246 9.45064L3.19927 10.0382C2.56664 10.1193 1.99677 9.66485 1.91399 9.01336Z" stroke="#FFBD00" stroke-width="0.45" stroke-linejoin="round"/>
<path d="M4.4664 11.7332C4.07721 11.1181 4.20392 10.3332 4.74017 9.91969L5.03058 10.3787C5.41968 10.9937 5.29296 11.7785 4.75675 12.192L4.4664 11.7332Z" stroke="#FFBD00" stroke-width="0.45" stroke-linejoin="round"/>
<path d="M2.69573 11.4397L3.01019 11.9367C3.36132 12.4917 4.07007 12.6617 4.60871 12.3202L4.29202 11.8196C3.94213 11.2666 3.23247 11.0993 2.69573 11.4397Z" stroke="#FFBD00" stroke-width="0.45" stroke-linejoin="round"/>
<path d="M5.52505 13.3114C6.15892 13.6691 6.93647 13.503 7.32243 12.9465L6.84937 12.6796C6.21554 12.322 5.43808 12.4881 5.05216 13.0445L5.52505 13.3114Z" stroke="#FFBD00" stroke-width="0.45" stroke-linejoin="round"/>
<path d="M5.77226 4.1173L5.46786 4.61543C5.12574 5.1753 4.42022 5.35208 3.87811 5.01377L4.18376 4.51359C4.52519 3.95486 5.23126 3.77969 5.77226 4.1173Z" stroke="#FFBD00" stroke-width="0.45" stroke-linejoin="round"/>
<path d="M3.98698 4.48505C4.31475 3.94875 4.19848 3.26912 3.73572 2.90808L3.49437 3.30304C3.16667 3.83931 3.28296 4.51886 3.74568 4.87986L3.98698 4.48505Z" stroke="#FFBD00" stroke-width="0.45" stroke-linejoin="round"/>
</svg>
