<svg width="38" height="68" viewBox="0 0 38 68" fill="none" xmlns="http://www.w3.org/2000/svg">
<path d="M6.94105 4.03423L4.7896 2.50352L4.92886 2.31816C6.47123 0.265161 9.56939 -0.129756 11.9221 1.54414L14.7113 3.5286C12.8361 5.56168 9.50222 5.85643 6.94105 4.03423ZM27.3614 24.5791C27.1857 21.0947 29.7704 18.0523 33.3315 17.4156L33.4544 19.8587C33.6297 23.3428 31.0452 26.3847 27.4845 27.0213L27.3614 24.5791ZM19.4018 21.3605L19.2864 19.0681L19.8033 19.0467C22.6848 18.9272 25.1589 21.1402 25.2981 23.9063L25.4623 27.1707C22.2416 27.0502 19.5601 24.507 19.4018 21.3605ZM7.88772 67.3486C3.88083 67.3486 0.753968 64.6689 0.514736 61.3879H3.33977C7.34666 61.3879 10.4735 64.0675 10.7127 67.3486H7.88772ZM6.72628 54.4151L9.92509 54.4214L9.92339 55.1269C9.91746 57.5945 7.8484 59.5567 5.09135 59.5512L0.614573 59.5423C0.883871 56.6362 3.42395 54.4086 6.72628 54.4151ZM23.6474 11.5256C22.0288 8.91478 22.6917 5.73445 25.0706 3.98373L26.1909 5.79118C27.809 8.40189 27.1461 11.5818 24.7674 13.3324L23.6474 11.5256ZM14.8983 11.7L13.5974 9.60118L14.0714 9.35903C16.5644 8.08548 19.7969 8.98235 21.2644 11.3501L23.1173 14.3396C20.1761 15.5339 16.5814 14.4156 14.8983 11.7ZM26.0786 38.9037C27.8378 35.1384 32.2809 33.1473 36.3618 34.1577L35.1194 36.8163C33.3601 40.5811 28.9173 42.5718 24.8368 41.5615L26.0786 38.9037ZM20.3282 33.3084L21.3728 31.0731L21.9233 31.2851C24.5428 32.294 25.7087 35.1518 24.5424 37.6476L23.0636 40.8122C20.2048 39.4587 18.9841 36.1846 20.3282 33.3084ZM18.9171 51.7391C23.0657 49.0563 28.5995 49.694 31.5992 53.0276L28.4539 55.0613C24.3054 57.7435 18.7723 57.1057 15.7729 53.7723L18.9171 51.7391ZM16.5873 44.8977L19.0541 43.3028L19.4861 43.8535C21.0831 45.8892 20.5807 48.6634 18.2709 50.1568L14.808 52.3958C13.1447 49.8951 13.8498 46.6677 16.5873 44.8977Z" fill="#B57461" stroke="#BB9890" stroke-linejoin="round"/>
</svg>
