<svg width="12" height="15" viewBox="0 0 12 15" fill="none" xmlns="http://www.w3.org/2000/svg">
<path d="M3.66593 7.01304L4.34175 7.12735C4.34556 7.1106 4.34965 7.09395 4.35402 7.07743L3.71259 6.83887L1.04228 5.29717L1.52948 4.45332L4.19979 5.99502L4.7214 6.42652C4.73364 6.41384 4.74611 6.40137 4.7588 6.38912L4.32729 5.86752L2.78559 3.19721L3.62945 2.71001L5.17115 5.38032L5.4097 6.02175C5.42623 6.01738 5.44287 6.01328 5.45962 6.00947L5.34532 5.33365V2.25024L6.31972 2.25024V5.33365L6.20191 6.03018C6.21707 6.03454 6.23213 6.03913 6.24708 6.04396L6.49389 5.38032L8.03559 2.71001L8.87945 3.19721L7.33774 5.86752L6.86999 6.43294L6.86765 6.43488C6.87751 6.44526 6.88722 6.45578 6.89679 6.46644L6.89982 6.46277L7.46524 5.99502L10.1356 4.45332L10.6228 5.29717L7.95244 6.83888L7.26465 7.09467L7.23281 7.10005C7.23668 7.1157 7.24031 7.13144 7.24368 7.14728L7.27557 7.13542L7.99911 7.01304H11.0825V7.98744L7.99911 7.98744L7.27556 7.86507L7.22509 7.8463C7.22052 7.86321 7.21567 7.88 7.21053 7.89667L7.26464 7.90582L7.95244 8.16161L10.6227 9.70332L10.1355 10.5472L7.46524 9.00547L6.89983 8.53773L6.86001 8.48959C6.84752 8.50253 6.8348 8.51525 6.82186 8.52773L6.87 8.56756L7.33774 9.13297L8.87945 11.8033L8.03559 12.2905L6.49389 9.62017L6.2381 8.93238L6.22894 8.87825C6.21227 8.88339 6.19548 8.88825 6.17857 8.89281L6.19735 8.9433L6.31972 9.66684V12.7502H5.34532V9.66684L5.46769 8.94329L5.47955 8.91141C5.46372 8.90803 5.44797 8.90441 5.43233 8.90054L5.42695 8.93237L5.17115 9.62017L3.62945 12.2905L2.78559 11.8033L4.32729 9.13297L4.79504 8.56755L4.79871 8.56451C4.78805 8.55495 4.77753 8.54523 4.76716 8.53537L4.76521 8.53772L4.19979 9.00547L1.52949 10.5472L1.04229 9.70332L3.71259 8.16161L4.37623 7.9148C4.37141 7.89985 4.36682 7.8848 4.36246 7.86964L3.66593 7.98744L0.58252 7.98744L0.58252 7.01304L3.66593 7.01304Z" fill="#FFBD00"/>
</svg>
