<svg width="55" height="55" viewBox="0 0 55 55" fill="none" xmlns="http://www.w3.org/2000/svg">
<path d="M25.3449 54.5V38.7824L25.782 36.1982C25.825 35.9439 25.6675 35.6986 25.4184 35.6319C25.1692 35.5651 24.9102 35.6988 24.8203 35.9405L23.8895 38.4433L16.0307 52.0552L12.1336 49.8052L19.9924 36.1933L21.6844 34.1481C21.8488 33.9493 21.8351 33.6582 21.6527 33.4758C21.4703 33.2934 21.1792 33.2797 20.9804 33.4441L18.8985 35.1663L5.28671 43.0251L3.03671 39.128L16.6485 31.2692L19.1065 30.3551C19.3482 30.2652 19.4819 30.0062 19.4152 29.7571C19.3484 29.5079 19.1031 29.3505 18.8488 29.3935L16.2176 29.8385L0.5 29.8385V25.3385L16.2176 25.3385L18.8035 25.7759C19.0578 25.8189 19.3031 25.6614 19.3699 25.4123C19.4366 25.1631 19.3029 24.9041 19.0612 24.8142L16.56 23.884L2.94821 16.0252L5.19821 12.1281L18.81 19.9869L21.5741 22.2736C21.7729 22.438 22.064 22.4242 22.2464 22.2418C22.4288 22.0595 22.4425 21.7683 22.2781 21.5696L19.9925 18.8067L12.1337 5.1949L16.0308 2.9449L23.8896 16.5567L24.8203 19.0591C24.9102 19.3009 25.1692 19.4346 25.4183 19.3678C25.6674 19.3011 25.8249 19.0558 25.7819 18.8015L25.3449 16.2176V0.5L29.8449 0.5V16.2176L29.3996 18.8505C29.3566 19.1048 29.5141 19.3501 29.7632 19.4168C30.0123 19.4836 30.2713 19.3499 30.3612 19.1082L31.2748 16.6516L39.1336 3.0398L43.0307 5.2898L35.1719 18.9016L33.4912 20.9333C33.3268 21.132 33.3405 21.4232 33.5229 21.6056C33.7053 21.7879 33.9965 21.8017 34.1952 21.6373L36.1902 19.9868L49.8021 12.128L52.0521 16.0252L38.4402 23.8839L35.9389 24.8142C35.6971 24.9041 35.5634 25.1631 35.6302 25.4123C35.6969 25.6614 35.9422 25.8189 36.1965 25.7759L38.7824 25.3385L54.5 25.3385V29.8385L38.7824 29.8385L36.1512 29.3935C35.8969 29.3505 35.6516 29.5079 35.5849 29.7571C35.5181 30.0062 35.6518 30.2652 35.8936 30.3551L38.3517 31.2693L51.9636 39.1281L49.7136 43.0252L36.1017 35.1664L34.7889 34.0804C34.5902 33.916 34.299 33.9297 34.1166 34.1121C33.9343 34.2945 33.9205 34.5856 34.0849 34.7843L35.172 36.0984L43.0308 49.7103L39.1337 51.9603L31.2749 38.3484L30.3612 35.8915C30.2713 35.6498 30.0122 35.5161 29.7631 35.5828C29.514 35.6496 29.3565 35.8949 29.3995 36.1492L29.8449 38.7824V54.5H25.3449Z" fill="#B57461" stroke="#BB9890" stroke-linejoin="round"/>
</svg>
