<svg width="38" height="69" viewBox="0 0 38 69" fill="none" xmlns="http://www.w3.org/2000/svg">
<path d="M32.1349 3.16679L32.2742 3.35215L30.1227 4.88286C27.5616 6.70506 24.2277 6.41031 22.3525 4.37723L25.1417 2.39278C27.4944 0.718877 30.5925 1.11379 32.1349 3.16679ZM3.73231 18.2643C7.29342 18.901 9.87803 21.9433 9.70241 25.4277L9.57932 27.8699C6.01854 27.2333 3.43408 24.1914 3.60938 20.7073L3.73231 18.2643ZM17.2605 19.8953L17.7773 19.9167L17.662 22.2091C17.5037 25.3556 14.8222 27.8989 11.6014 28.0193L11.7657 24.7549C11.9049 21.9888 14.379 19.7758 17.2605 19.8953ZM29.1761 68.1972H26.351C26.5903 64.9162 29.7171 62.2365 33.724 62.2365H36.549C36.3098 65.5175 33.1829 68.1972 29.1761 68.1972ZM27.1387 55.2701L30.3375 55.2637C33.6398 55.2572 36.1799 57.4849 36.4492 60.391L31.9724 60.3998C29.2154 60.4053 27.1463 58.4432 27.1404 55.9756L27.1387 55.2701ZM11.9932 4.83236C14.3721 6.58308 15.0349 9.76341 13.4164 12.3743L12.2964 14.181C9.91772 12.4305 9.25479 9.25052 10.8729 6.63982L11.9932 4.83236ZM23.4664 10.4498L22.1655 12.5486C20.4824 15.2642 16.8877 16.3825 13.9464 15.1882L15.7993 12.1988C17.2669 9.83098 20.4994 8.93411 22.9923 10.2077L23.4664 10.4498ZM1.94436 37.6649L0.70196 35.0063C4.78285 33.9959 9.22597 35.987 10.9852 39.7524L12.2269 42.4101C8.14644 43.4205 3.70371 41.4297 1.94436 37.6649ZM15.1405 32.1337L15.691 31.9217L16.7356 34.157C18.0797 37.0332 16.8589 40.3074 14.0002 41.6609L12.5214 38.4963C11.355 36.0005 12.521 33.1427 15.1405 32.1337ZM8.60987 55.9099L5.46454 53.8763C8.46424 50.5426 13.998 49.9049 18.1467 52.5877L21.2909 54.621C18.2915 57.9543 12.7583 58.5922 8.60987 55.9099ZM17.5777 44.7021L18.0097 44.1514L20.4764 45.7463C23.214 47.5163 23.919 50.7437 22.2557 53.2444L18.7929 51.0055C16.4831 49.512 15.9807 46.7379 17.5777 44.7021Z" fill="#B6B6B6" stroke="#CECECE" stroke-linejoin="round"/>
</svg>
