<svg width="38" height="69" viewBox="0 0 38 69" fill="none" xmlns="http://www.w3.org/2000/svg">
<path d="M6.94105 4.88286L4.7896 3.35215L4.92886 3.16679C6.47123 1.11379 9.56939 0.718877 11.9221 2.39278L14.7113 4.37723C12.8361 6.41031 9.50222 6.70506 6.94105 4.88286ZM27.3614 25.4277C27.1857 21.9433 29.7704 18.901 33.3315 18.2643L33.4544 20.7073C33.6297 24.1914 31.0452 27.2333 27.4845 27.8699L27.3614 25.4277ZM19.4018 22.2091L19.2864 19.9167L19.8033 19.8953C22.6848 19.7758 25.1589 21.9888 25.2981 24.7549L25.4623 28.0193C22.2416 27.8989 19.5601 25.3556 19.4018 22.2091ZM7.88772 68.1972C3.88083 68.1972 0.753968 65.5175 0.514736 62.2365H3.33977C7.34666 62.2365 10.4735 64.9162 10.7127 68.1972H7.88772ZM6.72628 55.2637L9.92509 55.2701L9.92339 55.9756C9.91746 58.4432 7.8484 60.4053 5.09135 60.3998L0.614573 60.391C0.883871 57.4849 3.42395 55.2572 6.72628 55.2637ZM23.6474 12.3743C22.0288 9.76341 22.6917 6.58308 25.0706 4.83236L26.1909 6.63982C27.809 9.25052 27.1461 12.4305 24.7674 14.181L23.6474 12.3743ZM14.8983 12.5486L13.5974 10.4498L14.0714 10.2077C16.5644 8.93411 19.7969 9.83098 21.2644 12.1988L23.1173 15.1882C20.1761 16.3825 16.5814 15.2642 14.8983 12.5486ZM26.0786 39.7524C27.8378 35.987 32.2809 33.9959 36.3618 35.0063L35.1194 37.6649C33.3601 41.4297 28.9173 43.4205 24.8368 42.4101L26.0786 39.7524ZM20.3282 34.157L21.3728 31.9217L21.9233 32.1337C24.5428 33.1427 25.7087 36.0005 24.5424 38.4963L23.0636 41.6609C20.2048 40.3074 18.9841 37.0332 20.3282 34.157ZM18.9171 52.5877C23.0657 49.9049 28.5995 50.5426 31.5992 53.8763L28.4539 55.9099C24.3054 58.5922 18.7723 57.9543 15.7729 54.621L18.9171 52.5877ZM16.5873 45.7463L19.0541 44.1514L19.4861 44.7021C21.0831 46.7379 20.5807 49.512 18.2709 51.0055L14.808 53.2444C13.1447 50.7437 13.8498 47.5163 16.5873 45.7463Z" fill="#B6B6B6" stroke="#CECECE" stroke-linejoin="round"/>
</svg>
