<svg width="61" height="61" viewBox="0 0 61 61" fill="none" xmlns="http://www.w3.org/2000/svg">
<path d="M27.0806 41.9796L18.4827 56.8715L14.1526 54.3715L22.7505 39.4796L24.5987 37.2454C24.7631 37.0467 24.7494 36.7555 24.567 36.5732C24.3846 36.3908 24.0935 36.3771 23.8947 36.5415L21.6207 38.4227L6.72871 47.0206L4.22871 42.6905L19.1207 34.0926L21.8056 33.094C22.0474 33.0041 22.1811 32.7451 22.1143 32.496C22.0475 32.2469 21.8023 32.0894 21.548 32.1324L18.6738 32.6185H1.47803V27.6185L18.6738 27.6185L21.4985 28.0963C21.7528 28.1393 21.9981 27.9818 22.0649 27.7327C22.1316 27.4836 21.998 27.2245 21.7562 27.1346L19.0241 26.1186L4.13216 17.5207L6.63216 13.1906L21.5241 21.7884L24.5424 24.2854C24.7411 24.4498 25.0323 24.436 25.2147 24.2537C25.3971 24.0713 25.4108 23.7801 25.2464 23.5814L22.7506 20.5644L14.1527 5.6725L18.4828 3.1725L27.0807 18.0644L28.0973 20.7979C28.1872 21.0397 28.4462 21.1734 28.6953 21.1066C28.9445 21.0398 29.1019 20.7946 29.0589 20.5403L28.5816 17.7177V0.521973L33.5816 0.521973V17.7177L33.0951 20.5937C33.0521 20.848 33.2096 21.0933 33.4587 21.1601C33.7078 21.2268 33.9669 21.0931 34.0568 20.8514L35.0547 18.168L43.6526 3.27602L47.9827 5.77602L39.3849 20.668L37.5489 22.8873C37.3845 23.086 37.3983 23.3772 37.5806 23.5595C37.763 23.7419 38.0542 23.7556 38.2529 23.5912L40.4323 21.7883L55.3242 13.1905L57.8242 17.5206L42.9323 26.1185L40.1999 27.1346C39.9582 27.2245 39.8245 27.4836 39.8912 27.7327C39.958 27.9818 40.2033 28.1393 40.4576 28.0963L43.2823 27.6185L60.478 27.6185V32.6185L43.2823 32.6185L40.4082 32.1324C40.1539 32.0894 39.9086 32.2469 39.8418 32.496C39.7751 32.7451 39.9088 33.0042 40.1505 33.0941L42.8357 34.0927L57.7277 42.6906L55.2277 47.0207L40.3357 38.4228L38.9006 37.2356C38.7019 37.0712 38.4107 37.0849 38.2283 37.2673C38.0459 37.4497 38.0322 37.7408 38.1966 37.9396L39.385 39.376L47.9828 54.268L43.6527 56.768L35.0548 41.876L34.0567 39.1922C33.9668 38.9505 33.7078 38.8168 33.4587 38.8835C33.2095 38.9503 33.0521 39.1956 33.0951 39.4499L33.5816 42.3262V59.522H28.5816V42.3262L29.059 39.5034C29.102 39.2491 28.9445 39.0038 28.6954 38.937C28.4463 38.8703 28.1873 39.0039 28.0973 39.2457L27.0806 41.9796Z" fill="#B67763" stroke="#CE9A8B" stroke-linejoin="round"/>
</svg>
