<svg width="11" height="15" viewBox="0 0 11 15" fill="none" xmlns="http://www.w3.org/2000/svg">
<path d="M3.36612 7.01304L4.04194 7.12735C4.04575 7.1106 4.04985 7.09395 4.05422 7.07743L3.41279 6.83887L0.742478 5.29717L1.22968 4.45332L3.89999 5.99502L4.42159 6.42652C4.43384 6.41384 4.44631 6.40137 4.45899 6.38912L4.02749 5.86752L2.48579 3.19721L3.32964 2.71001L4.87134 5.38032L5.10989 6.02175C5.12642 6.01738 5.14307 6.01328 5.15982 6.00947L5.04552 5.33365V2.25024L6.01992 2.25024V5.33365L5.90211 6.03018C5.91726 6.03454 5.93232 6.03913 5.94727 6.04396L6.19408 5.38032L7.73579 2.71001L8.57964 3.19721L7.03794 5.86752L6.57018 6.43294L6.56784 6.43488C6.5777 6.44526 6.58742 6.45578 6.59698 6.46644L6.60001 6.46277L7.16544 5.99502L9.83575 4.45332L10.3229 5.29717L7.65264 6.83888L6.96484 7.09467L6.933 7.10005C6.93688 7.1157 6.9405 7.13144 6.94387 7.14728L6.97576 7.13542L7.69931 7.01304H10.7827V7.98744L7.69931 7.98744L6.97576 7.86507L6.92528 7.8463C6.92072 7.86321 6.91586 7.88 6.91072 7.89667L6.96484 7.90582L7.65264 8.16161L10.3229 9.70332L9.83574 10.5472L7.16544 9.00547L6.60003 8.53773L6.5602 8.48959C6.54772 8.50253 6.535 8.51525 6.52206 8.52773L6.5702 8.56756L7.03794 9.13297L8.57964 11.8033L7.73579 12.2905L6.19408 9.62017L5.93829 8.93238L5.92914 8.87825C5.91247 8.88339 5.89568 8.88825 5.87877 8.89281L5.89754 8.9433L6.01991 9.66684V12.7502H5.04551V9.66684L5.16789 8.94329L5.17975 8.91141C5.16391 8.90803 5.14817 8.90441 5.13252 8.90054L5.12714 8.93237L4.87134 9.62017L3.32964 12.2905L2.48579 11.8033L4.02749 9.13297L4.49524 8.56755L4.49891 8.56451C4.48825 8.55495 4.47773 8.54523 4.46735 8.53537L4.46541 8.53772L3.89999 9.00547L1.22968 10.5472L0.742481 9.70332L3.41279 8.16161L4.07643 7.9148C4.0716 7.89985 4.06701 7.8848 4.06265 7.86964L3.36612 7.98744L0.282715 7.98744L0.282715 7.01304L3.36612 7.01304Z" fill="#BB7B6C"/>
</svg>
