<svg width="60" height="60" viewBox="0 0 60 60" fill="none" xmlns="http://www.w3.org/2000/svg">
<mask id="path-1-inside-1_135_96960" fill="white">
<path fill-rule="evenodd" clip-rule="evenodd" d="M27.2521 59.9983H33.2521V51.1294V42.2606L32.9963 40.7482L33.5562 42.2538L37.9907 49.9345L42.4251 57.6152L47.6212 54.6152L43.1868 46.9345L38.7524 39.2538L36.3642 36.367L39.1379 38.6615L46.8185 43.096L54.4992 47.5304L57.4992 42.3342L49.8185 37.8998L42.1379 33.4654L40.5351 32.8693L42.263 33.1616H51.1319H60.0007V27.1616H51.1319L42.263 27.1616L38.8713 27.7352L42.3444 26.4435L50.0251 22.0091L57.7058 17.5747L54.7058 12.3785L47.0251 16.813L39.3444 21.2474L36.4577 23.6355L38.7516 20.8626L43.1861 13.1819L47.6205 5.50124L42.4243 2.50124L37.9899 10.1819L33.5555 17.8626L32.9597 19.4645L33.2521 17.736V8.86715V-0.00170898H27.2521V8.86715V17.736L27.9741 22.0053L26.4901 18.015L22.0557 10.3343L17.6212 2.65363L12.4251 5.65363L16.8595 13.3343L21.294 21.015L22.6435 22.6463L20.899 21.2031L13.2183 16.7687L5.53764 12.3342L2.53764 17.5304L10.2183 21.9648L17.899 26.3993L21.7922 27.8472L17.7385 27.1616L8.86959 27.1616H0.000732422V33.1616H8.86959H17.7385L20.1285 32.7573L18.1055 33.5097L10.4249 37.9441L2.74423 42.3785L5.74423 47.5747L13.4249 43.1403L21.1055 38.7058L22.737 37.3562L21.2932 39.1014L16.8588 46.7821L12.4243 54.4628L17.6205 57.4628L22.0549 49.7821L26.4894 42.1014L27.9376 38.2073L27.2521 42.2606V51.1294V59.9983Z"/>
</mask>
<path fill-rule="evenodd" clip-rule="evenodd" d="M27.2521 59.9983H33.2521V51.1294V42.2606L32.9963 40.7482L33.5562 42.2538L37.9907 49.9345L42.4251 57.6152L47.6212 54.6152L43.1868 46.9345L38.7524 39.2538L36.3642 36.367L39.1379 38.6615L46.8185 43.096L54.4992 47.5304L57.4992 42.3342L49.8185 37.8998L42.1379 33.4654L40.5351 32.8693L42.263 33.1616H51.1319H60.0007V27.1616H51.1319L42.263 27.1616L38.8713 27.7352L42.3444 26.4435L50.0251 22.0091L57.7058 17.5747L54.7058 12.3785L47.0251 16.813L39.3444 21.2474L36.4577 23.6355L38.7516 20.8626L43.1861 13.1819L47.6205 5.50124L42.4243 2.50124L37.9899 10.1819L33.5555 17.8626L32.9597 19.4645L33.2521 17.736V8.86715V-0.00170898H27.2521V8.86715V17.736L27.9741 22.0053L26.4901 18.015L22.0557 10.3343L17.6212 2.65363L12.4251 5.65363L16.8595 13.3343L21.294 21.015L22.6435 22.6463L20.899 21.2031L13.2183 16.7687L5.53764 12.3342L2.53764 17.5304L10.2183 21.9648L17.899 26.3993L21.7922 27.8472L17.7385 27.1616L8.86959 27.1616H0.000732422V33.1616H8.86959H17.7385L20.1285 32.7573L18.1055 33.5097L10.4249 37.9441L2.74423 42.3785L5.74423 47.5747L13.4249 43.1403L21.1055 38.7058L22.737 37.3562L21.2932 39.1014L16.8588 46.7821L12.4243 54.4628L17.6205 57.4628L22.0549 49.7821L26.4894 42.1014L27.9376 38.2073L27.2521 42.2606V51.1294V59.9983Z" fill="#FBBB05"/>
<path d="M33.2521 59.9983V60.9983C33.8043 60.9983 34.2521 60.5506 34.2521 59.9983H33.2521ZM27.2521 59.9983H26.2521C26.2521 60.5506 26.6998 60.9983 27.2521 60.9983V59.9983ZM33.2521 42.2606H34.2521C34.2521 42.2047 34.2474 42.1489 34.2381 42.0938L33.2521 42.2606ZM32.9963 40.7482L33.9336 40.3996C33.7537 39.9161 33.2357 39.6488 32.7375 39.7823C32.2392 39.9158 31.9243 40.4063 32.0103 40.915L32.9963 40.7482ZM33.5562 42.2538L32.619 42.6024C32.6384 42.6548 32.6623 42.7055 32.6902 42.7538L33.5562 42.2538ZM37.9907 49.9345L38.8567 49.4345L38.8567 49.4345L37.9907 49.9345ZM42.4251 57.6152L41.5591 58.1152C41.6917 58.3448 41.9101 58.5124 42.1663 58.5811C42.4225 58.6497 42.6954 58.6138 42.9251 58.4812L42.4251 57.6152ZM47.6212 54.6152L48.1212 55.4812C48.5995 55.205 48.7634 54.5935 48.4873 54.1152L47.6212 54.6152ZM43.1868 46.9345L44.0528 46.4345L44.0528 46.4345L43.1868 46.9345ZM38.7524 39.2538L39.6184 38.7538C39.5905 38.7055 39.5585 38.6595 39.5229 38.6164L38.7524 39.2538ZM36.3642 36.367L37.0017 35.5965C36.6042 35.2677 36.0219 35.2952 35.6571 35.6599C35.2924 36.0247 35.2649 36.607 35.5937 37.0045L36.3642 36.367ZM39.1379 38.6615L38.5004 39.4321C38.5435 39.4677 38.5895 39.4996 38.6379 39.5276L39.1379 38.6615ZM46.8185 43.096L46.3185 43.962L46.3185 43.962L46.8185 43.096ZM54.4992 47.5304L53.9992 48.3964C54.4775 48.6726 55.0891 48.5087 55.3652 48.0304L54.4992 47.5304ZM57.4992 42.3342L58.3652 42.8342C58.4978 42.6046 58.5337 42.3316 58.4651 42.0754C58.3965 41.8192 58.2289 41.6008 57.9992 41.4682L57.4992 42.3342ZM49.8185 37.8998L49.3185 38.7658L49.3185 38.7658L49.8185 37.8998ZM42.1379 33.4654L42.6379 32.5994C42.5895 32.5714 42.5388 32.5476 42.4864 32.5281L42.1379 33.4654ZM40.5351 32.8693L40.7019 31.8833C40.1933 31.7973 39.7027 32.1123 39.5692 32.6105C39.4357 33.1088 39.7031 33.6268 40.1865 33.8066L40.5351 32.8693ZM42.263 33.1616L42.0963 34.1476C42.1514 34.1569 42.2071 34.1616 42.263 34.1616V33.1616ZM60.0007 33.1616V34.1616C60.553 34.1616 61.0007 33.7138 61.0007 33.1616H60.0007ZM60.0007 27.1616H61.0007C61.0007 26.6093 60.553 26.1616 60.0007 26.1616V27.1616ZM51.1319 27.1616L51.1319 28.1616H51.1319V27.1616ZM42.263 27.1616L42.263 26.1616C42.2071 26.1616 42.1514 26.1662 42.0963 26.1756L42.263 27.1616ZM38.8713 27.7352L38.5228 26.7979C38.0393 26.9777 37.7719 27.4958 37.9054 27.994C38.0389 28.4923 38.5295 28.8072 39.0381 28.7212L38.8713 27.7352ZM42.3444 26.4435L42.693 27.3808C42.7454 27.3613 42.796 27.3375 42.8444 27.3096L42.3444 26.4435ZM50.0251 22.0091L49.5251 21.1431L49.5251 21.1431L50.0251 22.0091ZM57.7058 17.5747L58.2058 18.4407C58.4354 18.3081 58.603 18.0897 58.6717 17.8335C58.7403 17.5773 58.7044 17.3044 58.5718 17.0747L57.7058 17.5747ZM54.7058 12.3785L55.5718 11.8785C55.2956 11.4002 54.684 11.2364 54.2058 11.5125L54.7058 12.3785ZM47.0251 16.813L46.5251 15.9469L46.5251 15.9469L47.0251 16.813ZM39.3444 21.2474L38.8444 20.3814C38.796 20.4093 38.7501 20.4413 38.707 20.4769L39.3444 21.2474ZM36.4577 23.6355L35.6872 22.9981C35.3584 23.3955 35.3859 23.9778 35.7506 24.3426C36.1153 24.7073 36.6977 24.7348 37.0951 24.406L36.4577 23.6355ZM38.7516 20.8626L39.5222 21.5C39.5578 21.4569 39.5897 21.4109 39.6177 21.3626L38.7516 20.8626ZM43.1861 13.1819L42.32 12.6819L42.32 12.6819L43.1861 13.1819ZM47.6205 5.50124L48.4865 6.00124C48.7627 5.52294 48.5988 4.91135 48.1205 4.63521L47.6205 5.50124ZM42.4243 2.50124L42.9243 1.63521C42.6947 1.5026 42.4217 1.46667 42.1655 1.53531C41.9093 1.60395 41.6909 1.77155 41.5583 2.00124L42.4243 2.50124ZM37.9899 10.1819L37.1239 9.68189L37.1239 9.68189L37.9899 10.1819ZM33.5555 17.8626L32.6895 17.3626C32.6615 17.4109 32.6377 17.4616 32.6182 17.514L33.5555 17.8626ZM32.9597 19.4645L31.9737 19.2977C31.8877 19.8063 32.2027 20.2969 32.7009 20.4304C33.1992 20.5639 33.7172 20.2965 33.897 19.813L32.9597 19.4645ZM33.2521 17.736L34.2381 17.9028C34.2474 17.8477 34.2521 17.7919 34.2521 17.736H33.2521ZM33.2521 -0.00170898H34.2521C34.2521 -0.553994 33.8043 -1.00171 33.2521 -1.00171V-0.00170898ZM27.2521 -0.00170898V-1.00171C26.6998 -1.00171 26.2521 -0.553994 26.2521 -0.00170898L27.2521 -0.00170898ZM27.2521 17.736H26.2521C26.2521 17.7919 26.2567 17.8477 26.2661 17.9028L27.2521 17.736ZM27.9741 22.0053L27.0369 22.3539C27.2167 22.8374 27.7347 23.1047 28.233 22.9712C28.7312 22.8377 29.0462 22.3471 28.9601 21.8385L27.9741 22.0053ZM26.4901 18.015L27.4274 17.6664C27.4079 17.614 27.3841 17.5633 27.3561 17.515L26.4901 18.015ZM22.0557 10.3343L21.1897 10.8343L21.1897 10.8343L22.0557 10.3343ZM17.6212 2.65363L18.4873 2.15363C18.3547 1.92395 18.1362 1.75635 17.8801 1.68771C17.6239 1.61907 17.3509 1.655 17.1212 1.78761L17.6212 2.65363ZM12.4251 5.65363L11.9251 4.78761C11.4468 5.06375 11.2829 5.67534 11.5591 6.15363L12.4251 5.65363ZM16.8595 13.3343L15.9935 13.8343L15.9935 13.8343L16.8595 13.3343ZM21.294 21.015L20.4279 21.515C20.4559 21.5633 20.4878 21.6093 20.5234 21.6524L21.294 21.015ZM22.6435 22.6463L22.0061 23.4168C22.4035 23.7456 22.9859 23.7181 23.3506 23.3534C23.7154 22.9887 23.7428 22.4063 23.414 22.0089L22.6435 22.6463ZM20.899 21.2031L21.5364 20.4326C21.4933 20.397 21.4474 20.365 21.399 20.3371L20.899 21.2031ZM13.2183 16.7687L12.7183 17.6347L12.7183 17.6347L13.2183 16.7687ZM5.53764 12.3342L6.03764 11.4682C5.80796 11.3356 5.53501 11.2997 5.27883 11.3683C5.02265 11.437 4.80423 11.6046 4.67162 11.8342L5.53764 12.3342ZM2.53764 17.5304L1.67162 17.0304C1.53901 17.2601 1.50308 17.533 1.57172 17.7892C1.64036 18.0454 1.80796 18.2638 2.03764 18.3964L2.53764 17.5304ZM10.2183 21.9648L10.7183 21.0988L10.7183 21.0988L10.2183 21.9648ZM17.899 26.3993L17.399 27.2653C17.4474 27.2932 17.498 27.3171 17.5504 27.3365L17.899 26.3993ZM21.7922 27.8472L21.6255 28.8332C22.1341 28.9192 22.6247 28.6043 22.7582 28.106C22.8917 27.6078 22.6243 27.0897 22.1408 26.9099L21.7922 27.8472ZM17.7385 27.1616L17.9052 26.1756C17.8501 26.1662 17.7943 26.1616 17.7385 26.1616L17.7385 27.1616ZM8.86959 27.1616L8.86959 26.1616H8.86959V27.1616ZM0.000732422 27.1616V26.1616C-0.551552 26.1616 -0.999268 26.6093 -0.999268 27.1616H0.000732422ZM0.000732422 33.1616H-0.999268C-0.999268 33.7138 -0.551552 34.1616 0.000732422 34.1616L0.000732422 33.1616ZM17.7385 33.1616V34.1616C17.7943 34.1616 17.8501 34.1569 17.9052 34.1476L17.7385 33.1616ZM20.1285 32.7573L20.477 33.6946C20.9605 33.5148 21.2279 32.9968 21.0944 32.4985C20.9609 32.0003 20.4703 31.6853 19.9617 31.7713L20.1285 32.7573ZM18.1055 33.5097L17.757 32.5724C17.7046 32.5919 17.6539 32.6157 17.6055 32.6436L18.1055 33.5097ZM10.4249 37.9441L9.92489 37.0781L9.92489 37.0781L10.4249 37.9441ZM2.74423 42.3785L2.24423 41.5125C1.76593 41.7886 1.60206 42.4002 1.8782 42.8785L2.74423 42.3785ZM5.74423 47.5747L4.8782 48.0747C5.15434 48.553 5.76593 48.7168 6.24423 48.4407L5.74423 47.5747ZM13.4249 43.1403L13.9249 44.0063L13.9249 44.0063L13.4249 43.1403ZM21.1055 38.7058L21.6055 39.5718C21.6539 39.5439 21.6999 39.512 21.743 39.4763L21.1055 38.7058ZM22.737 37.3562L23.5075 37.9936C23.8363 37.5962 23.8088 37.0138 23.4441 36.6491C23.0793 36.2843 22.497 36.2569 22.0996 36.5857L22.737 37.3562ZM21.2932 39.1014L20.5227 38.464C20.4871 38.5071 20.4551 38.5531 20.4272 38.6014L21.2932 39.1014ZM16.8588 46.7821L15.9927 46.2821L15.9927 46.2821L16.8588 46.7821ZM12.4243 54.4628L11.5583 53.9628C11.2822 54.4411 11.446 55.0526 11.9243 55.3288L12.4243 54.4628ZM17.6205 57.4628L17.1205 58.3288C17.5988 58.6049 18.2104 58.4411 18.4865 57.9628L17.6205 57.4628ZM22.0549 49.7821L21.1889 49.2821L21.1889 49.2821L22.0549 49.7821ZM26.4894 42.1014L27.3554 42.6014C27.3833 42.5531 27.4072 42.5024 27.4266 42.45L26.4894 42.1014ZM27.9376 38.2073L28.9236 38.3741C29.0096 37.8655 28.6947 37.3749 28.1964 37.2414C27.6982 37.1079 27.1801 37.3753 27.0003 37.8588L27.9376 38.2073ZM27.2521 42.2606L26.2661 42.0938C26.2567 42.1489 26.2521 42.2047 26.2521 42.2606H27.2521ZM33.2521 58.9983H27.2521V60.9983H33.2521V58.9983ZM32.2521 51.1294V59.9983H34.2521V51.1294H32.2521ZM32.2521 42.2606V51.1294H34.2521V42.2606H32.2521ZM32.0103 40.915L32.2661 42.4273L34.2381 42.0938L33.9823 40.5814L32.0103 40.915ZM34.4935 41.9053L33.9336 40.3996L32.059 41.0968L32.619 42.6024L34.4935 41.9053ZM38.8567 49.4345L34.4223 41.7538L32.6902 42.7538L37.1246 50.4345L38.8567 49.4345ZM43.2911 57.1152L38.8567 49.4345L37.1246 50.4345L41.5591 58.1152L43.2911 57.1152ZM47.1212 53.7491L41.9251 56.7491L42.9251 58.4812L48.1212 55.4812L47.1212 53.7491ZM42.3208 47.4345L46.7552 55.1152L48.4873 54.1152L44.0528 46.4345L42.3208 47.4345ZM37.8864 39.7538L42.3208 47.4345L44.0528 46.4345L39.6184 38.7538L37.8864 39.7538ZM35.5937 37.0045L37.9819 39.8913L39.5229 38.6164L37.1348 35.7296L35.5937 37.0045ZM39.7753 37.891L37.0017 35.5965L35.7268 37.1375L38.5004 39.4321L39.7753 37.891ZM47.3185 42.2299L39.6379 37.7955L38.6379 39.5276L46.3185 43.962L47.3185 42.2299ZM54.9992 46.6644L47.3185 42.2299L46.3185 43.962L53.9992 48.3964L54.9992 46.6644ZM56.6331 41.8342L53.6331 47.0304L55.3652 48.0304L58.3652 42.8342L56.6331 41.8342ZM49.3185 38.7658L56.9992 43.2003L57.9992 41.4682L50.3185 37.0338L49.3185 38.7658ZM41.6379 34.3314L49.3185 38.7658L50.3185 37.0338L42.6379 32.5994L41.6379 34.3314ZM40.1865 33.8066L41.7893 34.4027L42.4864 32.5281L40.8837 31.932L40.1865 33.8066ZM42.4298 32.1756L40.7019 31.8833L40.3684 33.8553L42.0963 34.1476L42.4298 32.1756ZM51.1319 32.1616H42.263V34.1616H51.1319V32.1616ZM60.0007 32.1616H51.1319V34.1616H60.0007V32.1616ZM59.0007 27.1616V33.1616H61.0007V27.1616H59.0007ZM51.1319 28.1616H60.0007V26.1616H51.1319V28.1616ZM42.263 28.1616L51.1319 28.1616L51.1319 26.1616L42.263 26.1616L42.263 28.1616ZM39.0381 28.7212L42.4298 28.1476L42.0963 26.1756L38.7046 26.7492L39.0381 28.7212ZM41.9959 25.5063L38.5228 26.7979L39.2199 28.6725L42.693 27.3808L41.9959 25.5063ZM49.5251 21.1431L41.8444 25.5775L42.8444 27.3096L50.5251 22.8751L49.5251 21.1431ZM57.2058 16.7087L49.5251 21.1431L50.5251 22.8751L58.2058 18.4407L57.2058 16.7087ZM53.8397 12.8785L56.8397 18.0747L58.5718 17.0747L55.5718 11.8785L53.8397 12.8785ZM47.5251 17.679L55.2058 13.2446L54.2058 11.5125L46.5251 15.9469L47.5251 17.679ZM39.8444 22.1134L47.5251 17.679L46.5251 15.9469L38.8444 20.3814L39.8444 22.1134ZM37.0951 24.406L39.9819 22.0179L38.707 20.4769L35.8203 22.865L37.0951 24.406ZM37.9811 20.2251L35.6872 22.9981L37.2282 24.2729L39.5222 21.5L37.9811 20.2251ZM42.32 12.6819L37.8856 20.3626L39.6177 21.3626L44.0521 13.6819L42.32 12.6819ZM46.7545 5.00124L42.32 12.6819L44.0521 13.6819L48.4865 6.00124L46.7545 5.00124ZM41.9243 3.36726L47.1205 6.36726L48.1205 4.63521L42.9243 1.63521L41.9243 3.36726ZM38.8559 10.6819L43.2904 3.00124L41.5583 2.00124L37.1239 9.68189L38.8559 10.6819ZM34.4215 18.3626L38.8559 10.6819L37.1239 9.68189L32.6895 17.3626L34.4215 18.3626ZM33.897 19.813L34.4928 18.2111L32.6182 17.514L32.0224 19.1159L33.897 19.813ZM32.2661 17.5692L31.9737 19.2977L33.9457 19.6312L34.2381 17.9028L32.2661 17.5692ZM32.2521 8.86715V17.736H34.2521V8.86715H32.2521ZM32.2521 -0.00170898V8.86715H34.2521V-0.00170898H32.2521ZM27.2521 0.998291H33.2521V-1.00171H27.2521V0.998291ZM28.2521 8.86715V-0.00170898H26.2521V8.86715H28.2521ZM28.2521 17.736V8.86715H26.2521V17.736H28.2521ZM28.9601 21.8385L28.2381 17.5692L26.2661 17.9028L26.9881 22.1721L28.9601 21.8385ZM25.5528 18.3635L27.0369 22.3539L28.9114 21.6567L27.4274 17.6664L25.5528 18.3635ZM21.1897 10.8343L25.6241 18.515L27.3561 17.515L22.9217 9.8343L21.1897 10.8343ZM16.7552 3.15363L21.1897 10.8343L22.9217 9.8343L18.4873 2.15363L16.7552 3.15363ZM12.9251 6.51966L18.1212 3.51966L17.1212 1.78761L11.9251 4.78761L12.9251 6.51966ZM17.7256 12.8343L13.2911 5.15363L11.5591 6.15363L15.9935 13.8343L17.7256 12.8343ZM22.16 20.515L17.7256 12.8343L15.9935 13.8343L20.4279 21.515L22.16 20.515ZM23.414 22.0089L22.0645 20.3775L20.5234 21.6524L21.873 23.2837L23.414 22.0089ZM20.2615 21.9736L22.0061 23.4168L23.2809 21.8758L21.5364 20.4326L20.2615 21.9736ZM12.7183 17.6347L20.399 22.0691L21.399 20.3371L13.7183 15.9026L12.7183 17.6347ZM5.03764 13.2003L12.7183 17.6347L13.7183 15.9026L6.03764 11.4682L5.03764 13.2003ZM3.40367 18.0304L6.40367 12.8342L4.67162 11.8342L1.67162 17.0304L3.40367 18.0304ZM10.7183 21.0988L3.03764 16.6644L2.03764 18.3964L9.7183 22.8309L10.7183 21.0988ZM18.399 25.5332L10.7183 21.0988L9.7183 22.8309L17.399 27.2653L18.399 25.5332ZM22.1408 26.9099L18.2475 25.462L17.5504 27.3365L21.4437 28.7845L22.1408 26.9099ZM17.5717 28.1476L21.6255 28.8332L21.959 26.8612L17.9052 26.1756L17.5717 28.1476ZM8.86959 28.1616L17.7385 28.1616L17.7385 26.1616L8.86959 26.1616L8.86959 28.1616ZM0.000732422 28.1616H8.86959V26.1616H0.000732422V28.1616ZM1.00073 33.1616V27.1616H-0.999268V33.1616H1.00073ZM8.86959 32.1616H0.000732422V34.1616H8.86959V32.1616ZM17.7385 32.1616H8.86959V34.1616H17.7385V32.1616ZM19.9617 31.7713L17.5717 32.1756L17.9052 34.1476L20.2952 33.7433L19.9617 31.7713ZM18.4541 34.4469L20.477 33.6946L19.7799 31.8201L17.757 32.5724L18.4541 34.4469ZM10.9249 38.8101L18.6055 34.3757L17.6055 32.6436L9.92489 37.0781L10.9249 38.8101ZM3.24423 43.2446L10.9249 38.8101L9.92489 37.0781L2.24423 41.5125L3.24423 43.2446ZM6.61025 47.0747L3.61025 41.8785L1.8782 42.8785L4.8782 48.0747L6.61025 47.0747ZM12.9249 42.2742L5.24423 46.7087L6.24423 48.4407L13.9249 44.0063L12.9249 42.2742ZM20.6055 37.8398L12.9249 42.2742L13.9249 44.0063L21.6055 39.5718L20.6055 37.8398ZM22.0996 36.5857L20.4681 37.9353L21.743 39.4763L23.3744 38.1267L22.0996 36.5857ZM22.0637 39.7389L23.5075 37.9936L21.9665 36.7188L20.5227 38.464L22.0637 39.7389ZM17.7248 47.2821L22.1592 39.6014L20.4272 38.6014L15.9927 46.2821L17.7248 47.2821ZM13.2904 54.9628L17.7248 47.2821L15.9927 46.2821L11.5583 53.9628L13.2904 54.9628ZM18.1205 56.5967L12.9243 53.5967L11.9243 55.3288L17.1205 58.3288L18.1205 56.5967ZM21.1889 49.2821L16.7545 56.9628L18.4865 57.9628L22.921 50.2821L21.1889 49.2821ZM25.6233 41.6014L21.1889 49.2821L22.921 50.2821L27.3554 42.6014L25.6233 41.6014ZM27.0003 37.8588L25.5521 41.7529L27.4266 42.45L28.8749 38.5559L27.0003 37.8588ZM28.2381 42.4273L28.9236 38.3741L26.9516 38.0406L26.2661 42.0938L28.2381 42.4273ZM28.2521 51.1294V42.2606H26.2521V51.1294H28.2521ZM28.2521 59.9983V51.1294H26.2521V59.9983H28.2521Z" fill="#FECE4F" mask="url(#path-1-inside-1_135_96960)"/>
</svg>
