<svg width="56" height="56" viewBox="0 0 56 56" fill="none" xmlns="http://www.w3.org/2000/svg">
<path d="M26.3246 54.52V38.8024L26.7617 36.2182C26.8047 35.9639 26.6472 35.7186 26.3981 35.6519C26.149 35.5851 25.89 35.7188 25.8001 35.9606L24.8693 38.4634L17.0105 52.0752L13.1134 49.8252L20.9721 36.2134L22.6641 34.1681C22.8285 33.9693 22.8148 33.6782 22.6324 33.4958C22.4501 33.3134 22.1589 33.2997 21.9602 33.4641L19.8783 35.1864L6.26645 43.0452L4.01645 39.148L17.6283 31.2893L20.0862 30.3751C20.328 30.2852 20.4617 30.0262 20.3949 29.7771C20.3281 29.528 20.0829 29.3705 19.8286 29.4135L17.1973 29.8585L1.47974 29.8585V25.3585L17.1973 25.3585L19.7833 25.7959C20.0376 25.8389 20.2829 25.6814 20.3496 25.4323C20.4164 25.1832 20.2827 24.9241 20.0409 24.8342L17.5398 23.9041L3.92794 16.0453L6.17794 12.1481L19.7898 20.0069L22.5539 22.2936C22.7526 22.458 23.0438 22.4442 23.2261 22.2619C23.4085 22.0795 23.4222 21.7883 23.2578 21.5896L20.9722 18.8268L13.1134 5.21492L17.0106 2.96492L24.8694 16.5768L25.8 19.0792C25.8899 19.3209 26.1489 19.4546 26.3981 19.3878C26.6472 19.3211 26.8047 19.0758 26.7616 18.8215L26.3246 16.2376V0.52002L30.8246 0.520019V16.2376L30.3793 18.8705C30.3363 19.1248 30.4938 19.3701 30.7429 19.4368C30.992 19.5036 31.2511 19.3699 31.341 19.1282L32.2546 16.6716L40.1134 3.05982L44.0105 5.30982L36.1517 18.9217L34.471 20.9533C34.3066 21.152 34.3203 21.4432 34.5027 21.6256C34.685 21.808 34.9762 21.8217 35.1749 21.6573L37.17 20.0068L50.7818 12.1481L53.0318 16.0452L39.42 23.904L36.9186 24.8342C36.6769 24.9241 36.5432 25.1832 36.6099 25.4323C36.6767 25.6814 36.922 25.8389 37.1763 25.7959L39.7621 25.3585L55.4797 25.3585V29.8585L39.7621 29.8585L37.131 29.4135C36.8767 29.3705 36.6314 29.528 36.5646 29.7771C36.4979 30.0262 36.6316 30.2852 36.8733 30.3751L39.3315 31.2893L52.9433 39.1481L50.6933 43.0453L37.0815 35.1865L35.7686 34.1004C35.5699 33.936 35.2787 33.9497 35.0964 34.1321C34.914 34.3145 34.9003 34.6056 35.0647 34.8044L36.1518 36.1185L44.0106 49.7303L40.1134 51.9803L32.2546 38.3685L31.3409 35.9115C31.251 35.6698 30.992 35.5361 30.7429 35.6029C30.4937 35.6696 30.3363 35.9149 30.3793 36.1692L30.8246 38.8024V54.52H26.3246Z" stroke="#B6B6B6" stroke-linejoin="round"/>
</svg>
