<?xml version="1.0" standalone="no"?>
<!DOCTYPE svg PUBLIC "-//W3C//DTD SVG 20010904//EN"
 "http://www.w3.org/TR/2001/REC-SVG-20010904/DTD/svg10.dtd">
<svg version="1.0" xmlns="http://www.w3.org/2000/svg"
 width="700.000000pt" height="700.000000pt" viewBox="0 0 700.000000 700.000000"
 preserveAspectRatio="xMidYMid meet">
<metadata>
Created by potrace 1.14, written by Peter Selinger 2001-2017
</metadata>
<g transform="translate(0.000000,700.000000) scale(0.100000,-0.100000)"
fill="#000000" stroke="none">
<path d="M3320 5540 c-542 -44 -991 -363 -1166 -829 l-33 -86 -173 -7 c-177
-8 -332 -31 -455 -69 -55 -17 -77 -31 -124 -78 -46 -46 -61 -70 -75 -116 -41
-142 20 -286 150 -352 71 -36 143 -40 241 -13 61 18 116 24 233 27 l152 5 0
-60 c0 -50 -4 -66 -24 -89 -24 -27 -25 -28 -187 -34 -254 -11 -429 -64 -504
-151 -130 -152 -81 -380 99 -464 66 -31 156 -32 246 -3 48 16 107 23 230 29
196 10 236 18 358 77 159 75 279 214 338 389 21 62 43 207 44 282 l0 22 490 0
c543 0 589 -4 707 -62 81 -39 176 -119 249 -208 69 -83 125 -123 195 -140 182
-44 359 94 360 279 1 115 -31 170 -188 332 -163 167 -306 261 -493 323 -188
62 -244 67 -757 73 l-462 6 11 21 c20 38 152 160 211 195 31 18 88 45 125 58
131 48 186 53 597 53 334 0 398 -3 497 -19 556 -96 954 -474 1084 -1031 15
-66 18 -145 21 -648 4 -551 3 -577 -16 -655 -54 -215 -201 -401 -386 -488
-133 -63 -53 -60 -1506 -57 l-1324 3 -41 22 c-66 36 -131 115 -154 190 -34
110 -23 164 40 195 33 17 114 18 1276 18 l1241 0 61 31 c109 54 164 145 163
269 0 109 -66 210 -171 262 l-45 23 -1254 3 c-1358 3 -1346 3 -1479 -51 -97
-39 -170 -86 -241 -158 -199 -198 -252 -485 -147 -791 48 -140 114 -245 221
-353 97 -96 157 -136 282 -190 170 -73 94 -70 1578 -70 1448 0 1412 -1 1595
57 450 144 791 539 886 1028 21 112 32 926 15 1178 -35 509 -223 933 -562
1271 -298 295 -659 469 -1114 537 -119 18 -751 27 -915 14z"/>
</g>
</svg>
