<svg width="30" height="30" viewBox="0 0 30 30" fill="none" xmlns="http://www.w3.org/2000/svg">
<path fill-rule="evenodd" clip-rule="evenodd" d="M14.4191 5.23193C12.0719 5.23193 10.1691 7.13472 10.1691 9.48193V10.6437C10.1691 12.9909 12.0719 14.8937 14.4191 14.8937H15.5808C17.928 14.8937 19.8308 12.9909 19.8308 10.6437V9.48193C19.8308 7.13472 17.928 5.23193 15.5808 5.23193H14.4191ZM11.1691 9.48193C11.1691 7.68701 12.6241 6.23193 14.4191 6.23193H15.5808C17.3757 6.23193 18.8308 7.68701 18.8308 9.48193V10.6437C18.8308 12.4386 17.3757 13.8937 15.5808 13.8937H14.4191C12.6241 13.8937 11.1691 12.4386 11.1691 10.6437V9.48193ZM17.1041 8.45898C17.1041 8.18284 16.8803 7.95898 16.6041 7.95898C16.328 7.95898 16.1041 8.18284 16.1041 8.45898V9.66211C16.1041 9.93825 16.328 10.1621 16.6041 10.1621C16.8803 10.1621 17.1041 9.93825 17.1041 9.66211V8.45898ZM13.3958 7.95898C13.672 7.95898 13.8958 8.18284 13.8958 8.45898L13.8958 9.66211C13.8958 9.93825 13.672 10.1621 13.3958 10.1621C13.1197 10.1621 12.8958 9.93825 12.8958 9.66211L12.8958 8.45898C12.8958 8.18284 13.1197 7.95898 13.3958 7.95898ZM15.5528 11.2508C15.6637 11.3831 15.7305 11.5536 15.7305 11.7397V12.5008H15.4582H14.4805H14.2082V11.7397C14.2082 11.5536 14.275 11.3831 14.3859 11.2508C14.5255 11.0844 14.7351 10.9785 14.9693 10.9785C15.2036 10.9785 15.4132 11.0844 15.5528 11.2508Z" fill="#101011"/>
<path fill-rule="evenodd" clip-rule="evenodd" d="M14.4191 15.7319C12.0719 15.7319 10.1691 17.6347 10.1691 19.9819V21.1437C10.1691 23.4909 12.0719 25.3937 14.4191 25.3937H15.5808C17.928 25.3937 19.8308 23.4909 19.8308 21.1437V19.9819C19.8308 17.6347 17.928 15.7319 15.5808 15.7319H14.4191ZM11.1691 19.9819C11.1691 18.187 12.6241 16.7319 14.4191 16.7319H15.5808C17.3757 16.7319 18.8308 18.187 18.8308 19.9819V21.1437C18.8308 22.9386 17.3757 24.3937 15.5808 24.3937H14.4191C12.6241 24.3937 11.1691 22.9386 11.1691 21.1437V19.9819ZM17.1041 18.959C17.1041 18.6828 16.8803 18.459 16.6041 18.459C16.328 18.459 16.1041 18.6828 16.1041 18.959V20.1621C16.1041 20.4383 16.328 20.6621 16.6041 20.6621C16.8803 20.6621 17.1041 20.4383 17.1041 20.1621V18.959ZM13.3958 18.459C13.672 18.459 13.8958 18.6828 13.8958 18.959L13.8958 20.1621C13.8958 20.4383 13.672 20.6621 13.3958 20.6621C13.1197 20.6621 12.8958 20.4383 12.8958 20.1621L12.8958 18.959C12.8958 18.6828 13.1197 18.459 13.3958 18.459ZM15.5528 21.7508C15.6637 21.8831 15.7305 22.0536 15.7305 22.2397V23.0008H15.4582H14.4805H14.2082V22.2397C14.2082 22.0536 14.275 21.8831 14.3859 21.7508C14.5255 21.5844 14.7351 21.4785 14.9693 21.4785C15.2036 21.4785 15.4132 21.5844 15.5528 21.7508Z" fill="#101011"/>
<path d="M8.68652 2.6875H21.3115C23.1064 2.6875 24.5615 4.14257 24.5615 5.9375V24.6875C24.5615 26.4824 23.1064 27.9375 21.3115 27.9375H8.68652C6.8916 27.9375 5.43652 26.4824 5.43652 24.6875V5.9375C5.43652 4.14257 6.8916 2.6875 8.68652 2.6875Z" stroke="black"/>
</svg>
