<svg width="20" height="19" viewBox="0 0 20 19" fill="none" xmlns="http://www.w3.org/2000/svg">
<path fill-rule="evenodd" clip-rule="evenodd" d="M2.37951 5.67937C2.37927 5.67935 2.38052 5.67693 2.38394 5.67217C2.38145 5.67702 2.37974 5.6794 2.37951 5.67937ZM2.52669 5.54219C2.54841 5.52601 2.57314 5.50848 2.60125 5.48962C2.89549 5.29217 3.39037 5.07323 4.09616 4.87291C5.49333 4.47636 7.48427 4.21719 9.72639 4.21719C11.9685 4.21719 13.9594 4.47636 15.3566 4.87291C16.0624 5.07323 16.5573 5.29217 16.8515 5.48962C16.8796 5.50848 16.9044 5.52601 16.9261 5.54219C16.9044 5.55836 16.8796 5.5759 16.8515 5.59476C16.5573 5.7922 16.0624 6.01114 15.3566 6.21146C13.9594 6.60802 11.9685 6.86719 9.72639 6.86719H9.72583C7.48394 6.86714 5.49321 6.60799 4.09616 6.21146C3.39037 6.01114 2.89549 5.7922 2.60125 5.59476C2.57314 5.5759 2.54841 5.55836 2.52669 5.54219ZM15.93 8.23167C14.5414 8.6258 12.7458 8.88188 10.7748 8.94936L10.7748 13.4214C11.7968 13.5663 12.5475 13.9279 13.0283 14.426C13.4311 14.8432 13.4194 15.5079 13.0022 15.9107C12.585 16.3135 11.9203 16.3018 11.5175 15.8846C11.4225 15.7861 10.9693 15.4516 9.72618 15.4516C8.48307 15.4516 8.02991 15.7861 7.93488 15.8846C7.53211 16.3018 6.86739 16.3135 6.45018 15.9107C6.03298 15.5079 6.02128 14.8432 6.42405 14.426C6.90448 13.9284 7.65425 13.5669 8.67482 13.4218V8.94925C6.70505 8.88161 4.91068 8.62559 3.52277 8.23167C2.71429 8.0022 1.98373 7.70937 1.4311 7.33853C0.916514 6.99322 0.308594 6.40626 0.308594 5.54219C0.308594 4.67812 0.916514 4.09115 1.4311 3.74584C1.98373 3.37501 2.71429 3.08218 3.52277 2.85271C5.15414 2.38968 7.3471 2.11719 9.72639 2.11719C12.1057 2.11719 14.2986 2.38968 15.93 2.85271C16.7385 3.08218 17.469 3.37501 18.0217 3.74584C18.5363 4.09115 19.1442 4.67812 19.1442 5.54219C19.1442 6.40626 18.5363 6.99322 18.0217 7.33853C17.469 7.70937 16.7385 8.0022 15.93 8.23167ZM17.0733 5.67937C17.073 5.6794 17.0713 5.67702 17.0688 5.67217C17.0723 5.67692 17.0735 5.67935 17.0733 5.67937ZM17.0688 5.4122C17.0713 5.40736 17.073 5.40498 17.0733 5.405C17.0735 5.40503 17.0723 5.40745 17.0688 5.4122ZM2.38394 5.4122C2.38052 5.40745 2.37927 5.40503 2.37951 5.405C2.37974 5.40498 2.38145 5.40736 2.38394 5.4122Z" fill="#101011"/>
</svg>
