<svg width="91" height="12" viewBox="0 0 91 12" fill="none" xmlns="http://www.w3.org/2000/svg">
<path d="M5.43719 5.14166L5.46104 0.705078L6.80099 0.705085L6.81397 5.14342C6.8142 5.22308 6.85238 5.29786 6.91677 5.34476C6.98116 5.39166 7.06405 5.40507 7.13994 5.38086L11.4492 4.00625L11.863 5.27991L7.56379 6.69073C7.4881 6.71557 7.42878 6.77499 7.40407 6.85072C7.37936 6.92645 7.39222 7.00943 7.4387 7.07413L10.0583 10.7208L8.97461 11.5082L6.32389 7.8821C6.27688 7.81779 6.20204 7.77974 6.12238 7.77964C6.04272 7.77954 5.96778 7.81741 5.92061 7.88161L3.32535 11.4136L2.24084 10.6257L4.80765 7.07095C4.85428 7.00636 4.86735 6.92342 4.84282 6.84763C4.8183 6.77184 4.75913 6.71227 4.6835 6.68725L0.553711 5.32082L0.968031 4.04567L5.11064 5.37831C5.18647 5.4027 5.26939 5.3895 5.3339 5.34275C5.3984 5.29601 5.43677 5.22132 5.43719 5.14166Z" fill="#101011"/>
<path d="M22.2427 0.707275V1.98901H18.6172V11.4666H17.1377V1.98901H13.5122V0.707275H22.2427Z" fill="#101011"/>
<path d="M22.7322 0.670654H24.0506V4.68433C24.3631 4.28882 24.6438 4.0105 24.8929 3.84937C25.3177 3.57104 25.8475 3.43188 26.4822 3.43188C27.6199 3.43188 28.3914 3.82983 28.7967 4.62573C29.0164 5.0603 29.1263 5.66333 29.1263 6.43481V11.4666H27.7713V6.52271C27.7713 5.94653 27.698 5.52417 27.5516 5.25562C27.3123 4.82593 26.8631 4.61108 26.2039 4.61108C25.657 4.61108 25.1614 4.79907 24.7171 5.17505C24.2728 5.55103 24.0506 6.26147 24.0506 7.3064V11.4666H22.7322V0.670654Z" fill="#101011"/>
<path d="M33.6734 3.44653C34.2301 3.44653 34.7696 3.57837 35.2921 3.84204C35.8146 4.10083 36.2125 4.43774 36.4859 4.85278C36.7496 5.24829 36.9254 5.70972 37.0133 6.23706C37.0914 6.59839 37.1305 7.17456 37.1305 7.96558H31.381C31.4054 8.76147 31.5934 9.40112 31.9449 9.88452C32.2965 10.363 32.8409 10.6023 33.5782 10.6023C34.2667 10.6023 34.816 10.3752 35.2262 9.92114C35.4605 9.65747 35.6266 9.35229 35.7242 9.00562H37.0206C36.9864 9.2937 36.8717 9.61597 36.6764 9.97241C36.4859 10.324 36.2711 10.6121 36.0318 10.8367C35.6314 11.2273 35.1358 11.491 34.545 11.6277C34.2276 11.7058 33.8688 11.7449 33.4684 11.7449C32.4918 11.7449 31.6642 11.3909 30.9854 10.6829C30.3067 9.96997 29.9674 8.97388 29.9674 7.69458C29.9674 6.43481 30.3092 5.41187 30.9928 4.62573C31.6764 3.8396 32.5699 3.44653 33.6734 3.44653ZM35.7755 6.91821C35.7218 6.34692 35.5973 5.89038 35.402 5.54858C35.0406 4.91382 34.4376 4.59644 33.5929 4.59644C32.9874 4.59644 32.4796 4.81616 32.0694 5.25562C31.6593 5.69019 31.442 6.24438 31.4176 6.91821H35.7755Z" fill="#101011"/>
<path d="M40.182 0.707275H41.9032L47.3378 9.4231V0.707275H48.7221V11.4666H47.0888L41.5736 2.75806V11.4666H40.182V0.707275Z" fill="#101011"/>
<path d="M53.4377 3.44653C53.9943 3.44653 54.5339 3.57837 55.0563 3.84204C55.5788 4.10083 55.9768 4.43774 56.2502 4.85278C56.5139 5.24829 56.6896 5.70972 56.7775 6.23706C56.8557 6.59839 56.8947 7.17456 56.8947 7.96558H51.1452C51.1696 8.76147 51.3576 9.40112 51.7092 9.88452C52.0607 10.363 52.6052 10.6023 53.3425 10.6023C54.031 10.6023 54.5803 10.3752 54.9904 9.92114C55.2248 9.65747 55.3908 9.35229 55.4885 9.00562H56.7849C56.7507 9.2937 56.6359 9.61597 56.4406 9.97241C56.2502 10.324 56.0354 10.6121 55.7961 10.8367C55.3957 11.2273 54.9001 11.491 54.3093 11.6277C53.9919 11.7058 53.633 11.7449 53.2326 11.7449C52.2561 11.7449 51.4284 11.3909 50.7497 10.6829C50.071 9.96997 49.7316 8.97388 49.7316 7.69458C49.7316 6.43481 50.0734 5.41187 50.757 4.62573C51.4406 3.8396 52.3342 3.44653 53.4377 3.44653ZM55.5397 6.91821C55.486 6.34692 55.3615 5.89038 55.1662 5.54858C54.8049 4.91382 54.2019 4.59644 53.3571 4.59644C52.7517 4.59644 52.2438 4.81616 51.8337 5.25562C51.4235 5.69019 51.2062 6.24438 51.1818 6.91821H55.5397Z" fill="#101011"/>
<path d="M59.1641 3.62231V8.82983C59.1641 9.23022 59.2275 9.55737 59.3545 9.81128C59.5889 10.28 60.0259 10.5144 60.6655 10.5144C61.5835 10.5144 62.2085 10.1042 62.5405 9.28394C62.7212 8.84448 62.8115 8.24146 62.8115 7.47485V3.62231H64.1299V11.4666H62.8848L62.8994 10.3093C62.7285 10.6072 62.5161 10.8586 62.2622 11.0637C61.7593 11.4739 61.1489 11.679 60.4312 11.679C59.313 11.679 58.5513 11.3054 58.146 10.5583C57.9263 10.158 57.8164 9.62329 57.8164 8.95435V3.62231H59.1641Z" fill="#101011"/>
<path d="M65.2953 3.62231H66.599V4.7356C66.9115 4.34985 67.1947 4.06909 67.4486 3.89331C67.8832 3.59546 68.3764 3.44653 68.9281 3.44653C69.5531 3.44653 70.0561 3.60034 70.4369 3.90796C70.6518 4.08374 70.8471 4.34253 71.0229 4.68433C71.3158 4.2644 71.6601 3.95435 72.0556 3.75415C72.4511 3.54907 72.8954 3.44653 73.3886 3.44653C74.4433 3.44653 75.161 3.82739 75.5419 4.58911C75.747 4.99927 75.8495 5.55103 75.8495 6.24438V11.4666H74.4799V6.01733C74.4799 5.49487 74.348 5.13599 74.0844 4.94067C73.8256 4.74536 73.5082 4.64771 73.1322 4.64771C72.6146 4.64771 72.1679 4.82104 71.7919 5.16772C71.4208 5.5144 71.2353 6.09302 71.2353 6.90356V11.4666H69.8949V6.34692C69.8949 5.8147 69.8314 5.42651 69.7045 5.18237C69.5043 4.81616 69.1308 4.63306 68.5839 4.63306C68.0858 4.63306 67.6317 4.82593 67.2216 5.21167C66.8163 5.59741 66.6137 6.29565 66.6137 7.3064V11.4666H65.2953V3.62231Z" fill="#101011"/>
<path d="M77.9012 9.37915C77.9012 9.76001 78.0403 10.0603 78.3186 10.28C78.597 10.4998 78.9266 10.6096 79.3074 10.6096C79.7713 10.6096 80.2205 10.5022 80.6551 10.2874C81.3875 9.93091 81.7537 9.34741 81.7537 8.53687V7.47485C81.5926 7.57739 81.3851 7.66284 81.1311 7.7312C80.8772 7.79956 80.6282 7.84839 80.3841 7.87769L79.5857 7.98022C79.1072 8.0437 78.7483 8.1438 78.5091 8.28052C78.1038 8.51001 77.9012 8.87622 77.9012 9.37915ZM81.0945 6.71313C81.3973 6.67407 81.5999 6.54712 81.7024 6.33228C81.761 6.21509 81.7903 6.04663 81.7903 5.8269C81.7903 5.37769 81.6292 5.05298 81.3069 4.85278C80.9895 4.64771 80.533 4.54517 79.9373 4.54517C79.2488 4.54517 78.7605 4.73071 78.4725 5.10181C78.3113 5.30688 78.2063 5.61206 78.1575 6.01733H76.927C76.9515 5.05054 77.264 4.37915 77.8645 4.00317C78.47 3.62231 79.1707 3.43188 79.9666 3.43188C80.8895 3.43188 81.639 3.60767 82.2151 3.95923C82.7864 4.31079 83.0721 4.85767 83.0721 5.59985V10.1189C83.0721 10.2556 83.0989 10.3655 83.1526 10.4485C83.2112 10.5315 83.3309 10.573 83.5115 10.573C83.5701 10.573 83.636 10.5706 83.7093 10.5657C83.7825 10.5559 83.8606 10.5437 83.9436 10.5291V11.5032C83.7386 11.5618 83.5823 11.5984 83.4749 11.613C83.3675 11.6277 83.221 11.635 83.0354 11.635C82.5813 11.635 82.2518 11.4739 82.0467 11.1516C81.9393 10.9807 81.8636 10.739 81.8196 10.4265C81.5511 10.7781 81.1653 11.0833 80.6624 11.342C80.1595 11.6008 79.6053 11.7302 78.9998 11.7302C78.2723 11.7302 77.6766 11.5105 77.2127 11.071C76.7537 10.6267 76.5242 10.0725 76.5242 9.40845C76.5242 8.68091 76.7513 8.11694 77.2054 7.71655C77.6595 7.31616 78.2552 7.06958 78.9925 6.97681L81.0945 6.71313Z" fill="#101011"/>
<path d="M85.175 7.63599C85.175 8.47583 85.3532 9.17896 85.7097 9.74536C86.0661 10.3118 86.6374 10.595 87.4235 10.595C88.0339 10.595 88.5344 10.3337 88.925 9.81128C89.3205 9.28394 89.5183 8.52954 89.5183 7.5481C89.5183 6.55688 89.3156 5.82446 88.9104 5.35083C88.5051 4.87231 88.0046 4.63306 87.4089 4.63306C86.7448 4.63306 86.2053 4.88696 85.7902 5.39478C85.3801 5.90259 85.175 6.64966 85.175 7.63599ZM87.1599 3.48315C87.7605 3.48315 88.2634 3.61011 88.6687 3.86401C88.903 4.0105 89.1691 4.26685 89.467 4.63306V0.670654H90.7341V11.4666H89.5476V10.3752C89.2399 10.8586 88.8762 11.2078 88.4563 11.4226C88.0363 11.6375 87.5554 11.7449 87.0134 11.7449C86.1394 11.7449 85.3825 11.3787 84.7429 10.6462C84.1032 9.90894 83.7834 8.92993 83.7834 7.70923C83.7834 6.56665 84.0739 5.57788 84.655 4.74292C85.2409 3.90308 86.0759 3.48315 87.1599 3.48315Z" fill="#101011"/>
</svg>
