<svg width="126" height="20" viewBox="0 0 126 20" fill="none" xmlns="http://www.w3.org/2000/svg">
<path d="M36.6534 19.4761V0.728271H40.5242L46.7913 11.1903C46.9668 11.4875 47.1599 11.8546 47.3706 12.2916C47.5988 12.7286 47.7743 13.0957 47.8972 13.3929L48.1079 13.8124H48.1605C48.0903 12.5189 48.0552 11.4351 48.0552 10.561V0.728271H51.8207V19.4761H48.1342L41.7092 9.1189C41.5336 8.82173 41.3317 8.46338 41.1035 8.04385C40.8753 7.60684 40.6998 7.23975 40.5769 6.94258L40.3662 6.52305H40.3135C40.3838 7.83409 40.4189 8.92662 40.4189 9.80064V19.4761H36.6534Z" fill="black"/>
<path d="M59.4451 19.8694C57.2683 19.8694 55.5567 19.2051 54.3103 17.8766C53.0639 16.5306 52.4407 14.8175 52.4407 12.7374C52.4407 10.7271 53.0639 9.04898 54.3103 7.70298C55.5567 6.33951 57.1542 5.65777 59.1028 5.65777C61.2269 5.65777 62.8683 6.39195 64.0269 7.86031C65.1855 9.32867 65.7648 11.2952 65.7648 13.76H55.9693C56.1097 14.8263 56.4696 15.6566 57.0489 16.2509C57.6282 16.8278 58.4181 17.1162 59.4188 17.1162C60.7354 17.1162 61.6043 16.5656 62.0257 15.4643H65.5542C65.2908 16.7229 64.6238 17.7717 63.5529 18.6108C62.4821 19.4499 61.1128 19.8694 59.4451 19.8694ZM59.1555 8.41094C57.4175 8.41094 56.373 9.37237 56.0219 11.2952H62.0257C61.973 10.4387 61.6833 9.7482 61.1567 9.22378C60.6301 8.68189 59.963 8.41094 59.1555 8.41094Z" fill="black"/>
<path d="M78.3502 19.4761H74.9006V17.9028H74.8216C74.3301 18.5671 73.7859 19.0566 73.189 19.3712C72.6097 19.6859 71.8637 19.8432 70.9508 19.8432C69.4762 19.8432 68.3264 19.4062 67.5013 18.5321C66.6762 17.6581 66.2637 16.4782 66.2637 14.9923V6.02486H69.8185V14.3893C69.8185 16.015 70.5646 16.8278 72.0568 16.8278C72.8818 16.8278 73.5401 16.5481 74.0317 15.9887C74.5232 15.4294 74.769 14.6952 74.769 13.7862V6.02486H78.3502V19.4761Z" fill="black"/>
<path d="M79.0866 19.4761V6.02486H82.5361V7.83409H82.6151C83.4753 6.38321 84.7832 5.65777 86.5386 5.65777C87.3813 5.65777 88.1273 5.87627 88.7769 6.31328C89.444 6.73282 89.9443 7.30093 90.2778 8.01763H90.3305C91.3135 6.44439 92.6653 5.65777 94.3856 5.65777C95.79 5.65777 96.8784 6.08604 97.6508 6.94258C98.4408 7.78165 98.8358 8.9441 98.8358 10.4299V19.4761H95.2546V11.033C95.2546 9.49473 94.5612 8.72559 93.1743 8.72559C92.4195 8.72559 91.8226 8.99654 91.3838 9.53843C90.9624 10.0628 90.7518 10.7708 90.7518 11.6623V19.4761H87.1706V11.033C87.1706 9.49473 86.4772 8.72559 85.0904 8.72559C84.3706 8.72559 83.7825 8.99654 83.3261 9.53843C82.8872 10.0628 82.6678 10.7708 82.6678 11.6623V19.4761H79.0866Z" fill="black"/>
<path d="M108.499 19.4761C108.324 19.2488 108.183 18.7506 108.078 17.9815H108.025C107.639 18.5584 107.148 19.0041 106.551 19.3188C105.954 19.6334 105.12 19.7907 104.049 19.7907C102.627 19.7907 101.486 19.4324 100.626 18.7157C99.7657 17.999 99.3356 16.9851 99.3356 15.6741C99.3356 14.3106 99.8096 13.3142 100.758 12.6849C101.706 12.0381 103.04 11.5924 104.76 11.3477C106.024 11.1729 106.884 10.9981 107.341 10.8232C107.797 10.631 108.025 10.2988 108.025 9.82686C108.025 9.33741 107.832 8.95284 107.446 8.67315C107.06 8.37598 106.498 8.2274 105.761 8.2274C104.128 8.2274 103.259 8.85669 103.154 10.1153H99.9676C100.02 8.83921 100.538 7.78165 101.521 6.94258C102.504 6.10352 103.926 5.68399 105.787 5.68399C109.579 5.68399 111.475 7.33589 111.475 10.6397V17.4833C111.475 18.4972 111.633 19.1177 111.949 19.345V19.4761H108.499ZM104.918 17.2998C105.901 17.2998 106.674 17.0463 107.235 16.5394C107.815 16.0324 108.104 15.4294 108.104 14.7301V12.7111C107.718 12.9384 106.884 13.2006 105.603 13.4978C104.585 13.725 103.865 13.9872 103.443 14.2844C103.022 14.5641 102.812 15.0011 102.812 15.5954C102.812 16.7316 103.514 17.2998 104.918 17.2998Z" fill="black"/>
<path d="M117.754 19.8694C116.051 19.8694 114.673 19.2314 113.62 17.9553C112.567 16.6617 112.04 14.9312 112.04 12.7636C112.04 10.6659 112.575 8.96158 113.646 7.65054C114.735 6.32203 116.121 5.65777 117.807 5.65777C119.492 5.65777 120.765 6.32203 121.625 7.65054H121.704V0.728271H125.285V19.4761H121.835V17.7193H121.783C120.905 19.1527 119.562 19.8694 117.754 19.8694ZM118.544 16.8802C119.597 16.8802 120.396 16.5219 120.94 15.8052C121.502 15.0885 121.783 14.1008 121.783 12.8422C121.783 9.97545 120.738 8.54205 118.649 8.54205C117.684 8.54205 116.946 8.92662 116.437 9.69576C115.928 10.4649 115.674 11.4875 115.674 12.7636C115.674 14.0746 115.92 15.0885 116.411 15.8052C116.92 16.5219 117.631 16.8802 118.544 16.8802Z" fill="black"/>
<path d="M0.720703 8.05784V5.68871H2.58968V0.371338H6.09073V5.68871H8.40721V8.05784H6.09073V15.2179C6.09073 16.1129 6.53823 16.5604 7.43323 16.5604L8.48618 16.5341V19.1664C7.94216 19.2015 7.19632 19.2191 6.24867 19.2191C5.21327 19.2191 4.34459 18.9734 3.64263 18.482C2.94066 17.9731 2.58968 17.1395 2.58968 15.9813V8.05784H0.720703Z" fill="black"/>
<path d="M12.8311 0.371338V7.4524H12.9101C13.419 6.71534 13.9718 6.18009 14.5685 5.84666C15.1827 5.49567 15.9373 5.32018 16.8323 5.32018C18.2187 5.32018 19.3419 5.79401 20.2018 6.74166C21.0617 7.67176 21.4916 8.88265 21.4916 10.3743V19.1927H17.9116V10.9008C17.9116 10.1637 17.701 9.56706 17.2798 9.11079C16.8762 8.65451 16.3059 8.42637 15.5688 8.42637C14.7791 8.42637 14.121 8.71593 13.5945 9.29505C13.0856 9.87417 12.8311 10.62 12.8311 11.5326V19.1927H9.25113V0.371338H12.8311Z" fill="black"/>
<path d="M29.0192 19.5876C26.8431 19.5876 25.132 18.9207 23.886 17.587C22.6401 16.2357 22.0171 14.5159 22.0171 12.4276C22.0171 10.4094 22.6401 8.72471 23.886 7.37343C25.132 6.0046 26.729 5.32018 28.6769 5.32018C30.8004 5.32018 32.4412 6.05725 33.5995 7.53137C34.7577 9.00549 35.3368 10.9798 35.3368 13.4542H25.5444C25.6848 14.5247 26.0446 15.3583 26.6237 15.9549C27.2028 16.5341 27.9925 16.8236 28.9928 16.8236C30.309 16.8236 31.1777 16.2708 31.5989 15.1652H35.1262C34.863 16.4288 34.1961 17.4817 33.1256 18.3241C32.0552 19.1664 30.6863 19.5876 29.0192 19.5876ZM28.7296 8.08417C26.9922 8.08417 25.9481 9.04937 25.5971 10.9798H31.5989C31.5462 10.1199 31.2567 9.42667 30.7302 8.9002C30.2037 8.35618 29.5369 8.08417 28.7296 8.08417Z" fill="black"/>
</svg>
