<svg width="19" height="19" viewBox="0 0 19 19" fill="none" xmlns="http://www.w3.org/2000/svg">
<path fill-rule="evenodd" clip-rule="evenodd" d="M1.50684 9.78835C1.50684 7.41271 2.57328 5.28615 4.25355 3.8613L5.67425 5.28199C4.35307 6.33894 3.50684 7.96482 3.50684 9.78835C3.50684 11.6573 4.3958 13.3187 5.77397 14.3727L4.35045 15.7962C2.61439 14.3716 1.50684 12.2093 1.50684 9.78835ZM14.1986 15.7964C15.9348 14.3719 17.0425 12.2095 17.0425 9.78835C17.0425 7.41259 15.9759 5.28594 14.2955 3.86108L12.8748 5.28179C14.1961 6.33873 15.0425 7.9647 15.0425 9.78835C15.0425 11.6575 14.1534 13.3189 12.7751 14.3729L14.1986 15.7964ZM11.8571 13.4549C13.0078 12.6433 13.7595 11.3036 13.7595 9.78835C13.7595 8.31876 13.0524 7.0143 11.96 6.19656L10.5189 7.63766C11.2606 8.0673 11.7595 8.86956 11.7595 9.78835C11.7595 10.7539 11.2085 11.5907 10.4038 12.0017L11.8571 13.4549ZM8.14587 12.0008C7.34215 11.5895 6.79199 10.7532 6.79199 9.78835C6.79199 8.87025 7.29013 8.06849 8.03087 7.63862L6.58994 6.19769C5.49836 7.0155 4.79199 8.31943 4.79199 9.78835C4.79199 11.3029 5.54295 12.6421 6.69284 13.4538L8.14587 12.0008ZM8.27441 9.78835C8.27441 9.26634 8.67438 8.83775 9.18458 8.79233L9.27441 8.88216L9.36425 8.79233C9.87444 8.83775 10.2744 9.26634 10.2744 9.78835C10.2744 10.3406 9.8267 10.7883 9.27441 10.7883C8.72213 10.7883 8.27441 10.3406 8.27441 9.78835Z" fill="black"/>
</svg>
