<svg width="853" height="71" viewBox="0 0 853 71" fill="none" xmlns="http://www.w3.org/2000/svg">
<path fill-rule="evenodd" clip-rule="evenodd" d="M428.261 24.7739V14.7233C428.259 14.6944 428.257 14.6653 428.256 14.6362C428.255 14.6069 428.255 14.5775 428.255 14.548C428.255 13.2241 429.271 12.1375 430.565 12.0251L430.572 12.0186H430.66C430.702 12.0165 430.745 12.0155 430.787 12.0155C430.83 12.0155 430.873 12.0165 430.915 12.0186L433.209 12.0186V67.7516H500.619V52.2716H456.249V42.6416H498.459V28.4216H456.249V19.3316H499.989V3.85156H451.062H433.209L417.224 3.85166C405.588 3.85166 405.562 15.8783 405.562 18.706L405.557 26.7552H405.559V46.8845C405.566 46.9905 405.569 47.0973 405.569 47.2049C405.569 50.0022 403.302 52.2699 400.504 52.2699C397.713 52.2699 395.449 50.0117 395.439 47.2225H395.437V25.1809C395.437 12.3643 389.186 0.735596 370.76 0.735596C352.334 0.735596 342.602 3.8592 342.602 24.5867V67.7515H365.474V24.5867C365.472 24.5238 365.471 24.4605 365.471 24.3969C365.471 21.6009 367.737 19.3342 370.533 19.3342C373.329 19.3342 375.596 21.6009 375.596 24.3969C375.596 24.4605 375.595 24.5238 375.593 24.5867H375.593V45.5579C375.593 59.8461 384.217 70.0032 400.744 70.0032C419.433 70.0032 428.286 65.4323 428.286 47.2225V24.7739H428.261ZM503.994 3.85156H527.034V36.7916C527.034 46.3316 532.164 52.2716 542.514 52.2716C552.234 52.2716 557.904 46.2416 557.904 36.7916V3.85156H580.944V39.5816C580.944 58.1216 567.354 70.0016 542.514 70.0016C517.674 70.0016 503.994 57.9416 503.994 39.3116V3.85156ZM771.449 3.85131V67.5334L741.851 3.85131H711.971L682.353 67.574V3.85131H647.343L636.363 36.1613C636.224 36.5674 636.086 36.9645 635.951 37.3535C635.04 39.9813 634.258 42.2346 634.023 44.3513H633.843C633.608 42.2378 632.828 40.0561 631.919 37.5103C631.783 37.1291 631.644 36.7398 631.503 36.3413L620.073 3.85131H585.963V67.7513H605.943V32.6513C605.943 28.3313 605.853 23.3813 605.043 19.1513H605.403C606.213 22.2113 607.653 27.0713 609.453 32.0213L622.503 67.7513H643.923L657.783 31.8413C659.493 27.5213 661.563 21.4013 662.103 19.1513H662.553C661.743 23.8313 661.293 28.6013 661.293 32.6513V67.7513H682.271H682.353H707.021L711.971 55.6013H741.941L746.891 67.7513H771.449H771.551H813.839C837.149 67.7513 852.719 54.2513 852.719 34.7213C852.719 15.0113 838.319 3.85131 814.379 3.85131H771.449ZM810.059 52.8113H794.489V18.7013H810.599C821.219 18.7013 828.419 24.7313 828.419 35.1713C828.419 45.9713 821.489 52.8113 810.059 52.8113ZM736.36 41.7413H717.551L722.051 30.6713C724.57 24.6413 726.01 21.0413 726.82 16.9013H727.091C727.811 21.0413 729.25 24.6413 731.86 30.6713L736.36 41.7413ZM155.812 21.4012H180.446V67.7512H203.486V43.1812H234.266V67.7512H257.216V3.85122H234.266V27.8812H203.486V3.85122H180.472H180.446H108.292V21.4012H132.862V67.7512H155.812V21.4012ZM284.971 52.2712H328.711V67.7512H261.931V3.85122H328.711V19.3312H284.971V28.4212H327.181V42.6412H284.971V52.2712Z" fill="#202521"/>
<path fill-rule="evenodd" clip-rule="evenodd" d="M34.0647 22.1751L34.0284 24.7828C34.0284 28.1802 34.8371 34.0617 25.9135 34.0617C18.2421 34.0617 12.7408 35.6669 8.13261 37.1604C3.52438 38.6538 0.650221 37.7923 0.650221 33.9137C0.617812 32.3815 1.2863 30.9423 3.44403 29.8131C9.81365 27.1292 15.464 26.1065 18.6649 25.4514C20.4349 25.0892 20.4349 24.7828 20.4349 23.4202C20.4364 22.668 20.3862 22.9093 20.4349 22.1751C18.6649 22.1751 12.9272 22.9364 9.38417 24.1473C4.06116 25.9666 0.626006 25.8304 0.626006 21.1699C0.620108 19.7158 1.50012 18.5267 3.44403 17.638C10.1313 14.5807 18.6649 13.639 20.4349 13.639C20.4349 11.118 25.9135 1.87793 43.7879 1.87793H54.0979C85.4461 1.87793 93.2921 13.639 93.2921 28.1802V47.1302C93.2921 60.682 84.415 68.8608 62.3369 68.8608L25.9135 68.8608C3.44403 68.8608 0.686512 60.682 0.686512 53.0127C0.686512 43.973 8.88824 37.1604 25.9135 37.1604C42.9388 37.1604 62.3369 37.1604 62.3369 37.1604C67.0956 37.1604 71.7802 40.4809 71.7802 47.1302C71.7802 53.7795 66.3051 57.1001 62.3369 57.1001L25.9196 57.1C23.661 57.1 21.8301 55.2691 21.8301 53.0106C21.8301 50.752 23.6611 48.9211 25.9196 48.9211L55.0979 48.9212C56.2464 48.9212 57.1216 48.4526 57.1216 47.1302C57.1216 45.8078 56.2464 45.3392 55.0979 45.3392C55.0979 45.3392 30.3023 45.3392 25.9135 45.3392C21.5247 45.3392 18.2421 48.7739 18.2421 53.0106C18.2421 57.2474 21.6767 60.682 25.9135 60.682L62.3369 60.6819C69.8213 60.6819 75.8886 54.6146 75.8886 47.1302V28.1802C75.8886 15.8694 65.1548 10.0646 54.0979 10.0646C43.0411 10.0646 53.8407 10.1843 43.7879 10.0646C38.1267 10.0646 34.376 12.1823 34.376 13.639C38.4093 13.6501 43.7879 13.6387 43.7879 13.6387C49.5153 13.6387 54.4342 13.639 62.3369 17.638C71.3032 22.1751 69.8629 34.0617 62.3369 34.0617C55.5769 34.0617 53.1296 28.1425 49.5153 25.4514C45.1149 22.1751 43.6948 22.1751 34.0647 22.1751Z" fill="#202521"/>
</svg>
