<svg width="21" height="21" viewBox="0 0 21 21" fill="none" xmlns="http://www.w3.org/2000/svg">
<path fill-rule="evenodd" clip-rule="evenodd" d="M6.45234 0.902344C3.38716 0.902344 0.902344 3.38717 0.902344 6.45235V14.5508C0.902344 17.616 3.38717 20.1008 6.45235 20.1008H14.5508C17.616 20.1008 20.1008 17.616 20.1008 14.5508V6.45234C20.1008 3.38716 17.616 0.902344 14.5508 0.902344H6.45234ZM3.00234 6.45235C3.00234 4.54696 4.54696 3.00234 6.45234 3.00234H14.5508C16.4562 3.00234 18.0008 4.54696 18.0008 6.45234V14.5508C18.0008 16.4562 16.4562 18.0008 14.5508 18.0008H6.45235C4.54696 18.0008 3.00234 16.4562 3.00234 14.5508V6.45235ZM14.7181 7.33475C14.7181 6.75485 14.248 6.28475 13.6681 6.28475C13.0882 6.28475 12.6181 6.75485 12.6181 7.33475V9.70975C12.6181 10.2896 13.0882 10.7597 13.6681 10.7597C14.248 10.7597 14.7181 10.2896 14.7181 9.70975V7.33475ZM7.33475 6.28475C7.91465 6.28475 8.38475 6.75485 8.38475 7.33475V9.70975C8.38475 10.2896 7.91465 10.7597 7.33475 10.7597C6.75485 10.7597 6.28475 10.2896 6.28475 9.70975L6.28475 7.33475C6.28475 6.75485 6.75485 6.28475 7.33475 6.28475ZM11.7574 13.0859C11.8761 13.3009 11.9436 13.548 11.9436 13.8109V15.3134H11.166H9.71607H8.93849V13.8109C8.93849 13.548 9.00601 13.3009 9.12464 13.0859C9.38048 12.6223 9.87409 12.3083 10.441 12.3083C11.008 12.3083 11.5016 12.6223 11.7574 13.0859Z" fill="#101011"/>
</svg>
