<svg width="18" height="18" viewBox="0 0 18 18" fill="none" xmlns="http://www.w3.org/2000/svg">
<path d="M9.00001 9.07949C9.00001 8.35955 9.00001 7.23597 9.00001 7.23594C9.00001 7.23594 9.00001 7.23594 9.00001 7.23594V5.54981M9.00001 9.07949C9.68895 9.07949 10.7642 9.07949 10.7642 9.07949C10.7642 9.07949 10.7642 9.07949 10.7642 9.07949H12.4508M9.00001 9.07949C8.31111 9.07949 7.92487 9.07949 7.23597 9.07949H5.55922M9.00001 9.07949C9.00001 9.73739 9.00001 10.7642 9.00001 10.7642C9.00001 10.7642 9.00001 10.7642 9.00001 10.7642L9.00001 12.451M5.55922 9.07949C5.55922 9.07949 4.73988 9.15003 4.62364 9.2041C2.85625 10.0263 2.44446 12.3554 3.8228 13.7337L4.26642 14.1773C5.64476 15.5557 7.97388 15.1439 8.79605 13.3765C8.85012 13.2603 8.88802 13.1372 8.90867 13.0106L9.00001 12.451M5.55922 9.07949C5.55922 9.07949 4.73975 8.84997 4.62351 8.7959C2.85612 7.97373 2.44434 5.64462 3.82268 4.26628L4.26629 3.82267C5.64463 2.44433 7.97375 2.85612 8.79592 4.6235C8.85 4.73974 8.88789 4.86284 8.90854 4.98937L9.00001 5.54981M9.00001 12.451L9.09135 13.0105C9.112 13.137 9.14989 13.2601 9.20396 13.3764C10.0261 15.1437 12.3553 15.5555 13.7336 14.1772L14.1772 13.7336C15.5555 12.3552 15.1438 10.0261 13.3764 9.20397C13.2601 9.1499 13.137 9.11201 13.0105 9.09136L12.4508 9.07949M12.4508 9.07949L13.0106 8.90863C13.1372 8.88798 13.2603 8.85009 13.3765 8.79602C15.1439 7.97385 15.5557 5.64474 14.1773 4.26641L13.7337 3.82279C12.3554 2.44445 10.0263 2.85624 9.20408 4.62362C9.15001 4.73986 9.11212 4.86297 9.09147 4.98949L9.00001 5.54981" stroke="white"/>
<path d="M8.70004 9.07948C8.86572 9.07948 9.00007 8.94525 9.00007 8.77956C9.00007 8.08474 9.00008 7.23596 9.00008 7.23593C9.00008 7.23593 9.00008 7.23593 9.00008 7.23593V5.5498L8.9086 4.98937C8.88795 4.86284 8.85006 4.73974 8.79599 4.6235C7.97382 2.85612 5.64471 2.44434 4.26638 3.82267L3.82277 4.26628C2.44443 5.64461 2.85622 7.97372 4.6236 8.79589V8.79589C5.21201 9.06961 5.88836 9.07948 6.53732 9.07948H7.23604C7.81844 9.07948 8.18452 9.07948 8.70004 9.07948Z" fill="white" stroke="white"/>
<path d="M9.00004 9.37937C9.00004 9.21368 9.13423 9.07949 9.29992 9.07949C9.96239 9.07949 10.7642 9.07949 10.7642 9.07949C10.7642 9.07949 10.7642 9.07949 10.7642 9.07949H12.4508L13.0105 9.09136C13.137 9.11201 13.2601 9.1499 13.3764 9.20398C15.1438 10.0261 15.5555 12.3553 14.1772 13.7336L13.7336 14.1772C12.3553 15.5555 10.0262 15.1437 9.204 13.3764C9.14992 13.2601 9.11203 13.137 9.09138 13.0105L9.00005 12.451L9.00004 10.7642C9.00004 10.7642 9.00004 10.7642 9.00004 10.7642C9.00004 10.7642 9.00004 10.0093 9.00004 9.37937Z" stroke="white"/>
</svg>
