<svg width="12" height="12" viewBox="0 0 12 12" fill="none" xmlns="http://www.w3.org/2000/svg">
<path d="M5.93715 2.08795L6.30467 2.42696C6.44943 2.27003 6.47857 2.03849 6.37721 1.85058C6.27584 1.66267 6.06635 1.55985 5.85569 1.59463L5.93715 2.08795ZM10.4984 6.64971L10.9918 6.73122C11.0266 6.52057 10.9238 6.31106 10.7359 6.20968C10.548 6.10829 10.3164 6.13741 10.1595 6.28216L10.4984 6.64971ZM3.42906 9.15741C5.17285 10.9012 8.00009 10.9012 9.74388 9.15741L9.03677 8.4503C7.68351 9.80357 5.48943 9.80357 4.13616 8.4503L3.42906 9.15741ZM3.42906 2.84258C1.68527 4.58637 1.68527 7.41361 3.42906 9.15741L4.13616 8.4503C2.7829 7.09703 2.7829 4.90295 4.13616 3.54969L3.42906 2.84258ZM5.85569 1.59463C4.96713 1.74135 4.11387 2.15777 3.42906 2.84258L4.13616 3.54969C4.6684 3.01745 5.32935 2.69508 6.0186 2.58127L5.85569 1.59463ZM5.56963 1.74894C4.22032 3.21172 4.25556 5.49148 5.67536 6.91128L6.38246 6.20417C5.34365 5.16535 5.31771 3.49693 6.30467 2.42696L5.56963 1.74894ZM5.67536 6.91128C7.09506 8.33098 9.37463 8.36631 10.8374 7.01727L10.1595 6.28216C9.0895 7.26892 7.42122 7.24292 6.38246 6.20417L5.67536 6.91128ZM9.74388 9.15741C10.4286 8.47271 10.845 7.61962 10.9918 6.73122L10.0051 6.56821C9.89127 7.25734 9.56893 7.91815 9.03677 8.4503L9.74388 9.15741Z" fill="#202521"/>
</svg>
