<svg width="21" height="19" viewBox="0 0 21 19" fill="none" xmlns="http://www.w3.org/2000/svg">
<path fill-rule="evenodd" clip-rule="evenodd" d="M10.218 4.71328C8.9067 4.71328 7.96916 5.98162 8.3538 7.23526L10.0136 12.6449L10.4391 12.8759H10.5595L10.6457 12.8291L12.362 7.23526C12.7466 5.98162 11.8091 4.71328 10.4978 4.71328H10.218ZM6.34617 7.85124L7.37778 11.2135L5.96036 10.4438C4.50016 9.65086 4.64101 7.51946 6.17378 6.91679C6.19394 7.22564 6.25026 7.53866 6.34617 7.85124ZM7.31702 13.5702L4.95821 12.2893C4.38542 11.9782 3.93124 11.568 3.59276 11.0988L3.32615 11.4617C3.04876 11.8393 2.94075 12.3153 3.02796 12.7756C3.20731 13.7224 4.14133 14.3274 5.07868 14.1039L7.31702 13.5702ZM9.93975 14.9731C9.81369 15.0865 9.65832 15.1708 9.48182 15.2129L5.56573 16.1466C3.46265 16.6481 1.36705 15.2907 0.964655 13.1665C0.768991 12.1336 1.01132 11.0658 1.63368 10.2185L2.79425 8.63853C2.81011 8.61694 2.82664 8.59613 2.84379 8.57611C2.9037 7.04407 3.80793 5.54774 5.49514 4.9283L6.54431 4.54312C6.63019 4.51159 6.71754 4.49199 6.80454 4.48347C7.5139 3.37472 8.75377 2.61328 10.218 2.61328H10.4978C11.9666 2.61328 13.2097 3.37951 13.9179 4.49392C14.0917 4.46482 14.2751 4.47911 14.4523 4.54416L15.5015 4.92935C17.189 5.5489 18.0933 7.04572 18.1528 8.57808C18.17 8.59809 18.1865 8.61888 18.2024 8.64046L19.3629 10.2204C19.9853 11.0677 20.2276 12.1355 20.032 13.1684C19.6296 15.2927 17.534 16.65 15.4309 16.1486L11.5148 15.2148C11.3283 15.1704 11.1654 15.0787 11.0357 14.9555C10.9417 14.9748 10.8466 14.9807 10.7529 14.9742C10.7248 14.9753 10.6966 14.9759 10.6683 14.9759H10.0475C10.0114 14.9759 9.97548 14.975 9.93975 14.9731ZM17.4035 11.1002C17.0651 11.5693 16.611 11.9794 16.0384 12.2903L13.6785 13.5718L15.9179 14.1058C16.8553 14.3293 17.7893 13.7243 17.9686 12.7776C18.0559 12.3172 17.9478 11.8413 17.6705 11.4636L17.4035 11.1002ZM15.0362 10.4449L13.2815 11.3978L14.3696 7.85124C14.476 7.50464 14.5336 7.1575 14.5473 6.8161L14.7777 6.90069C16.3527 7.47892 16.5106 9.64419 15.0362 10.4449Z" fill="black"/>
</svg>
