<svg width="19" height="19" viewBox="0 0 19 19" fill="none" xmlns="http://www.w3.org/2000/svg">
<path fill-rule="evenodd" clip-rule="evenodd" d="M1.25781 3.66328C1.25781 3.08338 1.72791 2.61328 2.30781 2.61328H14.0697H14.777C15.8058 2.61328 16.7924 3.02197 17.5199 3.74944C18.2474 4.47691 18.6561 5.46357 18.6561 6.49237C18.6561 7.52117 18.2474 8.50783 17.5199 9.2353C16.7924 9.96277 15.8058 10.3715 14.777 10.3715H14.7316C14.0571 11.838 12.5749 12.8561 10.855 12.8561H5.20021C3.02288 12.8561 1.25781 11.0911 1.25781 8.91374V3.66328ZM15.1197 8.23814C15.464 8.17056 15.7833 8.00207 16.035 7.75038C16.3686 7.41673 16.5561 6.96421 16.5561 6.49237C16.5561 6.02053 16.3686 5.56801 16.035 5.23436C15.7833 4.98267 15.464 4.81418 15.1197 4.7466V8.23814ZM3.35781 4.71328V8.91374C3.35781 9.93127 4.18268 10.7561 5.20021 10.7561H10.855C12.0505 10.7561 13.0197 9.78695 13.0197 8.59139V4.71328H3.35781ZM3.74237 14.9269C3.74237 14.347 4.21247 13.8769 4.79237 13.8769H11.1257C11.7056 13.8769 12.1757 14.347 12.1757 14.9269C12.1757 15.5068 11.7056 15.9769 11.1257 15.9769L4.79237 15.9769C4.21247 15.9769 3.74237 15.5068 3.74237 14.9269Z" fill="black"/>
</svg>
