<svg width="19" height="19" viewBox="0 0 19 19" fill="none" xmlns="http://www.w3.org/2000/svg">
<path fill-rule="evenodd" clip-rule="evenodd" d="M1.85469 3.51953C1.27479 3.51953 0.804688 3.98963 0.804688 4.56953V10.935C0.804688 11.9638 1.21338 12.9504 1.94085 13.6779C2.66832 14.4054 3.65498 14.8141 4.68378 14.8141H10.342C11.3708 14.8141 12.3574 14.4054 13.0849 13.6779C13.7344 13.0284 14.1298 12.1722 14.2071 11.2638C15.1158 11.1868 15.9724 10.7914 16.6223 10.1416C17.3497 9.41408 17.7584 8.42742 17.7584 7.39862C17.7584 6.36982 17.3497 5.38316 16.6223 4.65569C15.8948 3.92822 14.9081 3.51953 13.8793 3.51953H13.1721C13.1719 3.51953 13.1717 3.51953 13.1716 3.51953C13.1714 3.51953 13.1712 3.51953 13.171 3.51953H1.85469ZM14.221 5.65265V9.14459C14.5657 9.07714 14.8854 8.90856 15.1373 8.65663C15.471 8.32298 15.6584 7.87046 15.6584 7.39862C15.6584 6.92678 15.471 6.47426 15.1373 6.14061C14.8854 5.88868 14.5657 5.7201 14.221 5.65265ZM2.90469 10.935V5.61953H12.121V10.935C12.121 11.4068 11.9336 11.8593 11.6 12.193C11.2663 12.5266 10.8138 12.7141 10.342 12.7141H4.68378C4.21193 12.7141 3.75942 12.5266 3.42577 12.193C3.09213 11.8593 2.90469 11.4068 2.90469 10.935Z" fill="black"/>
</svg>
