<svg width="19" height="18" viewBox="0 0 19 18" fill="none" xmlns="http://www.w3.org/2000/svg">
<path d="M5.80537 8.1648L6.96392 8.36075C6.97045 8.33203 6.97747 8.3035 6.98496 8.27517L5.88537 7.86622L1.3077 5.2233L2.1429 3.7767L6.72057 6.41962L7.61475 7.15934C7.63574 7.13759 7.65712 7.11621 7.67887 7.09522L6.93914 6.20104L4.29623 1.62337L5.74283 0.78817L8.38575 5.36584L8.7947 6.46543C8.82303 6.45794 8.85156 6.45092 8.88028 6.44439L8.68433 5.28584V4.00543e-08L10.3547 0V5.28584L10.1528 6.4799C10.1788 6.48737 10.2046 6.49524 10.2302 6.50351L10.6533 5.36584L13.2962 0.788172L14.7428 1.62337L12.0999 6.20104L11.298 7.17034L11.294 7.17366C11.3109 7.19145 11.3276 7.20949 11.344 7.22776L11.3492 7.22148L12.3185 6.41962L16.8962 3.7767L17.7314 5.2233L13.1537 7.86622L11.9746 8.30473L11.92 8.31396C11.9267 8.34078 11.9329 8.36777 11.9387 8.39491L11.9933 8.37459L13.2337 8.1648H18.5195V9.8352L13.2337 9.8352L11.9933 9.62541L11.9068 9.59323C11.899 9.62222 11.8906 9.65101 11.8818 9.67958L11.9746 9.69527L13.1537 10.1338L17.7314 12.7767L16.8962 14.2233L12.3185 11.5804L11.3492 10.7785L11.2809 10.696C11.2595 10.7182 11.2377 10.74 11.2155 10.7614L11.2981 10.8297L12.0999 11.799L14.7428 16.3766L13.2962 17.2118L10.6533 12.6342L10.2148 11.4551L10.1991 11.3623C10.1705 11.3711 10.1418 11.3794 10.1128 11.3873L10.1449 11.4738L10.3547 12.7142V18H8.68433V12.7142L8.89412 11.4738L8.91444 11.4191C8.8873 11.4134 8.86031 11.4071 8.83349 11.4005L8.82426 11.4551L8.38575 12.6342L5.74283 17.2118L4.29622 16.3766L6.93914 11.799L7.741 10.8297L7.74729 10.8245C7.72902 10.8081 7.71098 10.7914 7.69319 10.7745L7.68986 10.7785L6.72057 11.5804L2.1429 14.2233L1.3077 12.7767L5.88537 10.1338L7.02304 9.71067C7.01477 9.68504 7.0069 9.65923 6.99942 9.63325L5.80537 9.8352L0.519531 9.8352L0.519531 8.1648L5.80537 8.1648Z" fill="#272727"/>
</svg>
