<svg width="743" height="71" viewBox="0 0 743 71" fill="none" xmlns="http://www.w3.org/2000/svg">
<path fill-rule="evenodd" clip-rule="evenodd" d="M232.948 67.8896H255.82V24.7249H255.82C255.818 24.6619 255.817 24.5987 255.817 24.5351C255.817 21.7391 258.084 19.4724 260.88 19.4724C263.676 19.4724 265.942 21.7391 265.942 24.5351C265.942 24.5987 265.941 24.6619 265.939 24.7249H265.939V45.6961C265.939 59.9843 274.563 70.1414 291.09 70.1414C309.779 70.1414 318.632 65.5705 318.632 47.3607V3.99738H295.906V47.0227C295.912 47.1286 295.916 47.2355 295.916 47.3431C295.916 50.1404 293.648 52.4081 290.851 52.4081C288.059 52.4081 285.795 50.1499 285.786 47.3607H285.784V25.3191C285.784 12.5025 279.532 0.873779 261.106 0.873779C242.68 0.873779 232.948 3.99738 232.948 24.7249V67.8896ZM394.34 3.98974H417.38V36.9297C417.38 46.4697 422.51 52.4097 432.86 52.4097C442.58 52.4097 448.25 46.3797 448.25 36.9297V3.98974H471.29V39.7197C471.29 58.2597 457.7 70.1397 432.86 70.1397C408.02 70.1397 394.34 58.0797 394.34 39.4497V3.98974ZM660.795 3.9895V67.6716L631.197 3.9895H601.317L571.699 67.7122V3.9895H536.689L525.709 36.2995C525.57 36.7056 525.432 37.1027 525.297 37.4916C524.386 40.1195 523.604 42.3728 523.369 44.4895H523.189C522.954 42.3759 522.175 40.1943 521.265 37.6484C521.129 37.2673 520.99 36.878 520.849 36.4795L509.419 3.9895H475.309V67.8895H495.289V32.7895C495.289 28.4695 495.199 23.5195 494.389 19.2895H494.749C495.559 22.3495 496.999 27.2095 498.799 32.1595L511.849 67.8895H533.269L547.129 31.9795C548.839 27.6595 550.909 21.5395 551.449 19.2895H551.899C551.089 23.9695 550.639 28.7395 550.639 32.7895V67.8895H571.617H571.699H596.367L601.317 55.7395H631.287L636.237 67.8895H660.795H660.897H703.185C726.495 67.8895 742.065 54.3895 742.065 34.8595C742.065 15.1495 727.665 3.9895 703.725 3.9895H660.795ZM699.405 52.9495H683.835V18.8395H699.945C710.565 18.8395 717.765 24.8695 717.765 35.3095C717.765 46.1095 710.835 52.9495 699.405 52.9495ZM346.595 52.4097H390.965V67.8897H323.555V3.98974H390.335V19.4697H346.595V28.5597H388.805V42.7797H346.595V52.4097ZM625.707 41.8795H606.897L611.397 30.8095C613.917 24.7795 615.357 21.1795 616.167 17.0395H616.437C617.157 21.1795 618.597 24.7795 621.207 30.8095L625.707 41.8795ZM47.6308 21.5394H72.2652V67.8894H95.3052V43.3194H126.085V67.8894H149.035V3.9894H126.085V28.0194H95.3052V3.9894H72.2908H72.2652H0.11084V21.5394H24.6808V67.8894H47.6308V21.5394ZM176.317 52.4094H220.057V67.8894H153.277V3.9894H220.057V19.4694H176.317V28.5594H218.527V42.7794H176.317V52.4094Z" fill="#0B3520"/>
</svg>
