<svg width="167" height="31" viewBox="0 0 167 31" fill="none" xmlns="http://www.w3.org/2000/svg">
<path fill-rule="evenodd" clip-rule="evenodd" d="M15.7207 0.229004C7.43643 0.229004 0.720703 6.94473 0.720703 15.229C0.720703 23.5133 7.43642 30.229 15.7207 30.229H44.8562C53.1404 30.229 59.8562 23.5133 59.8562 15.229C59.8562 6.94473 53.1404 0.229004 44.8562 0.229004H15.7207ZM77.4843 0.229004C69.2 0.229004 62.4843 6.94473 62.4843 15.229C62.4843 23.5133 69.2 30.229 77.4843 30.229H151.104C159.388 30.229 166.104 23.5133 166.104 15.229C166.104 6.94473 159.388 0.229004 151.104 0.229004H77.4843ZM74.4818 23.3424V6.61133H77.9362L83.5291 15.9479C83.6858 16.2131 83.8581 16.5407 84.0461 16.9307C84.2498 17.3207 84.4064 17.6483 84.5161 17.9135L84.7041 18.288H84.7511C84.6884 17.1335 84.6571 16.1663 84.6571 15.3863V6.61133H88.0175V23.3424H84.7276L78.9937 14.0993C78.8371 13.8341 78.6569 13.5143 78.4532 13.1399C78.2496 12.7499 78.0929 12.4223 77.9832 12.1571L77.7952 11.7827H77.7482C77.8109 12.9527 77.8422 13.9277 77.8422 14.7077V23.3424H74.4818ZM94.8217 23.6934C92.8791 23.6934 91.3516 23.1006 90.2393 21.915C89.127 20.7138 88.5709 19.185 88.5709 17.3285C88.5709 15.5345 89.127 14.0369 90.2393 12.8357C91.3516 11.6189 92.7773 11.0105 94.5162 11.0105C96.4119 11.0105 97.8767 11.6657 98.9106 12.9761C99.9446 14.2865 100.462 16.0415 100.462 18.2412H91.7198C91.8451 19.1928 92.1663 19.9338 92.6833 20.4642C93.2003 20.979 93.9053 21.2364 94.7982 21.2364C95.9732 21.2364 96.7487 20.745 97.1247 19.7622H100.274C100.039 20.8854 99.4433 21.8214 98.4876 22.5702C97.532 23.319 96.31 23.6934 94.8217 23.6934ZM94.5632 13.4675C93.0123 13.4675 92.0801 14.3255 91.7668 16.0415H97.1247C97.0777 15.2771 96.8192 14.6609 96.3492 14.1929C95.8792 13.7093 95.2839 13.4675 94.5632 13.4675ZM108.615 23.3424H111.693V11.3381H108.497V18.2646C108.497 19.0758 108.278 19.731 107.839 20.2302C107.401 20.7294 106.813 20.979 106.077 20.979C104.745 20.979 104.079 20.2536 104.079 18.8028V11.3381H100.907V19.341C100.907 20.667 101.275 21.72 102.011 22.5C102.748 23.28 103.774 23.67 105.09 23.67C105.904 23.67 106.57 23.5296 107.087 23.2488C107.62 22.968 108.105 22.5312 108.544 21.9384H108.615V23.3424ZM112.35 23.3424V11.3381H115.429V12.9527H115.499C116.267 11.6579 117.434 11.0105 119.001 11.0105C119.753 11.0105 120.418 11.2055 120.998 11.5955C121.593 11.9699 122.04 12.4769 122.338 13.1165H122.385C123.262 11.7125 124.468 11.0105 126.004 11.0105C127.257 11.0105 128.228 11.3927 128.917 12.1571C129.622 12.9059 129.975 13.9433 129.975 15.2693V23.3424H126.779V15.8075C126.779 14.4347 126.16 13.7483 124.923 13.7483C124.249 13.7483 123.716 13.9901 123.325 14.4737C122.949 14.9417 122.761 15.5735 122.761 16.3691V23.3424H119.565V15.8075C119.565 14.4347 118.946 13.7483 117.708 13.7483C117.066 13.7483 116.541 13.9901 116.134 14.4737C115.742 14.9417 115.546 15.5735 115.546 16.3691V23.3424H112.35ZM138.223 22.0086C138.317 22.695 138.442 23.1396 138.599 23.3424H141.677V23.2254C141.395 23.0226 141.254 22.4688 141.254 21.564V15.4565C141.254 12.5081 139.562 11.0339 136.178 11.0339C134.518 11.0339 133.249 11.4083 132.372 12.1571C131.494 12.9059 131.032 13.8497 130.985 14.9885H133.829C133.923 13.8653 134.698 13.3037 136.155 13.3037C136.813 13.3037 137.314 13.4363 137.659 13.7015C138.004 13.9511 138.176 14.2943 138.176 14.7311C138.176 15.1523 137.972 15.4487 137.565 15.6203C137.158 15.7763 136.39 15.9323 135.262 16.0883C133.727 16.3067 132.536 16.7045 131.69 17.2817C130.844 17.8433 130.421 18.7326 130.421 19.9494C130.421 21.1194 130.805 22.0242 131.573 22.6638C132.34 23.3034 133.359 23.6232 134.628 23.6232C135.583 23.6232 136.327 23.4828 136.86 23.202C137.393 22.9212 137.831 22.5234 138.176 22.0086H138.223ZM137.471 20.7216C136.97 21.174 136.28 21.4002 135.403 21.4002C134.15 21.4002 133.523 20.8932 133.523 19.8792C133.523 19.3488 133.711 18.9588 134.087 18.7092C134.463 18.444 135.105 18.21 136.014 18.0072C137.158 17.7419 137.902 17.5079 138.246 17.3051V19.107C138.246 19.731 137.988 20.2692 137.471 20.7216ZM146.858 23.6934C145.338 23.6934 144.109 23.124 143.169 21.9852C142.229 20.8308 141.759 19.2864 141.759 17.3519C141.759 15.4799 142.236 13.9589 143.192 12.7889C144.163 11.6033 145.401 11.0105 146.905 11.0105C148.409 11.0105 149.545 11.6033 150.312 12.7889H150.383V6.61133H153.579V23.3424H150.5V21.7746H150.453C149.67 23.0538 148.472 23.6934 146.858 23.6934ZM147.563 21.0258C148.503 21.0258 149.216 20.706 149.702 20.0664C150.203 19.4268 150.453 18.5454 150.453 17.4221C150.453 14.8637 149.521 13.5845 147.657 13.5845C146.795 13.5845 146.137 13.9277 145.683 14.6141C145.229 15.3005 145.002 16.2131 145.002 17.3519C145.002 18.522 145.221 19.4268 145.66 20.0664C146.114 20.706 146.748 21.0258 147.563 21.0258ZM11.4568 9.14769V6.29288H24.969V9.14769H19.9166V23.0239H16.5092V9.14769H11.4568ZM28.8071 6.29288V12.5875H28.8776C29.3319 11.9323 29.8254 11.4565 30.3581 11.1601C30.9064 10.8481 31.5801 10.6921 32.379 10.6921C33.6167 10.6921 34.6193 11.1133 35.387 11.9557C36.1546 12.7825 36.5384 13.8589 36.5384 15.1849V23.0239H33.3425V15.6529C33.3425 14.9977 33.1545 14.4673 32.7785 14.0617C32.4182 13.6561 31.909 13.4533 31.2511 13.4533C30.5461 13.4533 29.9586 13.7107 29.4886 14.2255C29.0343 14.7403 28.8071 15.4033 28.8071 16.2145V23.0239H25.6112V6.29288H28.8071ZM38.6494 21.5965C39.7617 22.7821 41.2891 23.3749 43.2318 23.3749C44.7201 23.3749 45.942 23.0005 46.8977 22.2517C47.8533 21.5029 48.4487 20.5669 48.6836 19.4437H45.5347C45.1587 20.4265 44.3832 20.9179 43.2083 20.9179C42.3153 20.9179 41.6103 20.6605 41.0933 20.1457C40.5763 19.6153 40.2552 18.8743 40.1298 17.9227H48.8716C48.8716 15.7231 48.3547 13.9681 47.3207 12.6577C46.2867 11.3473 44.8219 10.6921 42.9263 10.6921C41.1873 10.6921 39.7617 11.3005 38.6494 12.5173C37.5371 13.7185 36.9809 15.2161 36.9809 17.0101C36.9809 18.8665 37.5371 20.3953 38.6494 21.5965ZM40.1768 15.7231C40.4902 14.0071 41.4223 13.1491 42.9733 13.1491C43.6939 13.1491 44.2892 13.3909 44.7592 13.8745C45.2292 14.3425 45.4877 14.9587 45.5347 15.7231H40.1768Z" fill="black"/>
</svg>
