<svg width="19" height="19" viewBox="0 0 19 19" fill="none" xmlns="http://www.w3.org/2000/svg">
<path fill-rule="evenodd" clip-rule="evenodd" d="M16.0319 4.79768C16.4681 4.91548 16.7712 5.31122 16.7712 5.76311V10.9086L16.7712 13.1536V13.5976L16.0384 13.8918L15.5585 14.0844L14.7712 14.0844V14.0842V14.0834V14.0803V14.068V14.0199V13.8346V13.1536V10.9086L14.7712 7.06893L9.53599 8.48248C9.36527 8.52858 9.18537 8.52858 9.01464 8.48248L3.77943 7.06893L3.77944 14.0845V14.3291L2.69053 13.8919L1.77943 13.5262V5.76311C1.77943 5.31122 2.08249 4.91548 2.51876 4.79768L9.01464 3.04373C9.18537 2.99763 9.36527 2.99763 9.53599 3.04373L16.0319 4.79768ZM14.7712 14.0845H15.5585L14.7712 14.4005V14.0845ZM6.61563 5.76311L9.27532 5.04497L11.935 5.76311L9.27532 6.48125L6.61563 5.76311ZM8.3646 11.1005V10.3841L8.92354 10.5436C9.10088 10.5942 9.28876 10.5948 9.46642 10.5453L10.3646 10.295V11.1005V14.2303L12.8324 13.2396V15.3947L9.73715 16.6373C9.49806 16.7333 9.23114 16.7333 8.99205 16.6373L5.72029 15.3238V13.1687L8.3646 14.2303V11.1005ZM16.968 11.5836L16.9666 11.5799L16.9575 11.5836H16.968ZM1.77142 11.5834H1.76123L1.76264 11.5799L1.77142 11.5834Z" fill="black"/>
</svg>
