<svg width="10" height="15" viewBox="0 0 10 15" fill="none" xmlns="http://www.w3.org/2000/svg">
<path d="M3.03963 2.29429L2.73503 1.70891L2.88241 1.63167C3.4512 1.33356 4.14681 1.55831 4.44823 2.13758L4.83094 2.87304C4.18024 3.21408 3.38446 2.95697 3.03963 2.29429Z" fill="#BB7B6C"/>
<path d="M6.69342 6.92196C6.44979 6.23611 5.75404 5.85126 5.09769 6.0179L5.27954 6.52971C5.52319 7.21547 6.21888 7.60024 6.87517 7.43362L6.69342 6.92196Z" fill="#BB7B6C"/>
<path d="M7.55553 5.34773L7.75245 5.90194C7.97232 6.52077 7.66857 7.18332 7.06737 7.39625L6.86907 6.83813C6.64997 6.22148 6.95645 5.55991 7.55553 5.34773Z" fill="#BB7B6C"/>
<path d="M5.50907 7.91979C6.17005 8.06702 6.61752 8.72425 6.52571 9.44626L6.45722 9.98492C5.79631 9.8377 5.34886 9.18057 5.4406 8.45861L5.50907 7.91979Z" fill="#BB7B6C"/>
<path d="M7.93091 9.01336L8.00505 8.4299C7.37465 8.34915 6.80279 8.80145 6.72029 9.45064L6.64563 10.0382C7.27825 10.1193 7.84812 9.66485 7.93091 9.01336Z" fill="#BB7B6C"/>
<path d="M5.37849 11.7332C5.76768 11.1181 5.64097 10.3332 5.10472 9.91969L4.81431 10.3787C4.42521 10.9937 4.55193 11.7785 5.08814 12.192L5.37849 11.7332Z" fill="#BB7B6C"/>
<path d="M7.14916 11.4397L6.8347 11.9367C6.48357 12.4917 5.77482 12.6617 5.23618 12.3202L5.55287 11.8196C5.90276 11.2666 6.61243 11.0993 7.14916 11.4397Z" fill="#BB7B6C"/>
<path d="M4.31984 13.3114C3.68598 13.6691 2.90843 13.503 2.52246 12.9465L2.99552 12.6796C3.62935 12.322 4.40681 12.4881 4.79274 13.0445L4.31984 13.3114Z" fill="#BB7B6C"/>
<path d="M4.07264 4.1173L4.37703 4.61543C4.71915 5.1753 5.42467 5.35208 5.96678 5.01377L5.66113 4.51359C5.31971 3.95486 4.61364 3.77969 4.07264 4.1173Z" fill="#BB7B6C"/>
<path d="M5.85791 4.48505C5.53014 3.94875 5.64641 3.26912 6.10917 2.90808L6.35052 3.30304C6.67822 3.83931 6.56193 4.51886 6.09922 4.87986L5.85791 4.48505Z" fill="#BB7B6C"/>
<path d="M3.03963 2.29429L2.73503 1.70891L2.88241 1.63167C3.4512 1.33356 4.14681 1.55831 4.44823 2.13758L4.83094 2.87304C4.18024 3.21408 3.38446 2.95697 3.03963 2.29429Z" stroke="#BB7B6C" stroke-width="0.45" stroke-linejoin="round"/>
<path d="M6.69342 6.92196C6.44979 6.23611 5.75404 5.85126 5.09769 6.0179L5.27954 6.52971C5.52319 7.21547 6.21888 7.60024 6.87517 7.43362L6.69342 6.92196Z" stroke="#BB7B6C" stroke-width="0.45" stroke-linejoin="round"/>
<path d="M7.55553 5.34773L7.75245 5.90194C7.97232 6.52077 7.66857 7.18332 7.06737 7.39625L6.86907 6.83813C6.64997 6.22148 6.95645 5.55991 7.55553 5.34773Z" stroke="#BB7B6C" stroke-width="0.45" stroke-linejoin="round"/>
<path d="M5.50907 7.91979C6.17005 8.06702 6.61752 8.72425 6.52571 9.44626L6.45722 9.98492C5.79631 9.8377 5.34886 9.18057 5.4406 8.45861L5.50907 7.91979Z" stroke="#BB7B6C" stroke-width="0.45" stroke-linejoin="round"/>
<path d="M7.93091 9.01336L8.00505 8.4299C7.37465 8.34915 6.80279 8.80145 6.72029 9.45064L6.64563 10.0382C7.27825 10.1193 7.84812 9.66485 7.93091 9.01336Z" stroke="#BB7B6C" stroke-width="0.45" stroke-linejoin="round"/>
<path d="M5.37849 11.7332C5.76768 11.1181 5.64097 10.3332 5.10472 9.91969L4.81431 10.3787C4.42521 10.9937 4.55193 11.7785 5.08814 12.192L5.37849 11.7332Z" stroke="#BB7B6C" stroke-width="0.45" stroke-linejoin="round"/>
<path d="M7.14916 11.4397L6.8347 11.9367C6.48357 12.4917 5.77482 12.6617 5.23618 12.3202L5.55287 11.8196C5.90276 11.2666 6.61243 11.0993 7.14916 11.4397Z" stroke="#BB7B6C" stroke-width="0.45" stroke-linejoin="round"/>
<path d="M4.31984 13.3114C3.68598 13.6691 2.90843 13.503 2.52246 12.9465L2.99552 12.6796C3.62935 12.322 4.40681 12.4881 4.79274 13.0445L4.31984 13.3114Z" stroke="#BB7B6C" stroke-width="0.45" stroke-linejoin="round"/>
<path d="M4.07264 4.1173L4.37703 4.61543C4.71915 5.1753 5.42467 5.35208 5.96678 5.01377L5.66113 4.51359C5.31971 3.95486 4.61364 3.77969 4.07264 4.1173Z" stroke="#BB7B6C" stroke-width="0.45" stroke-linejoin="round"/>
<path d="M5.85791 4.48505C5.53014 3.94875 5.64641 3.26912 6.10917 2.90808L6.35052 3.30304C6.67822 3.83931 6.56193 4.51886 6.09922 4.87986L5.85791 4.48505Z" stroke="#BB7B6C" stroke-width="0.45" stroke-linejoin="round"/>
</svg>
