<svg width="38" height="68" viewBox="0 0 38 68" fill="none" xmlns="http://www.w3.org/2000/svg">
<path d="M32.1349 2.31816L32.2742 2.50352L30.1227 4.03423C27.5616 5.85643 24.2277 5.56168 22.3525 3.5286L25.1417 1.54414C27.4944 -0.129756 30.5925 0.265162 32.1349 2.31816ZM3.73231 17.4156C7.29342 18.0523 9.87803 21.0947 9.70241 24.5791L9.57932 27.0213C6.01854 26.3847 3.43408 23.3428 3.60938 19.8587L3.73231 17.4156ZM17.2605 19.0467L17.7773 19.0681L17.662 21.3605C17.5037 24.507 14.8222 27.0502 11.6014 27.1707L11.7657 23.9063C11.9049 21.1402 14.379 18.9272 17.2605 19.0467ZM29.1761 67.3486H26.351C26.5903 64.0675 29.7171 61.3879 33.724 61.3879H36.549C36.3098 64.6689 33.1829 67.3486 29.1761 67.3486ZM27.1387 54.4214L30.3375 54.4151C33.6398 54.4085 36.1799 56.6362 36.4492 59.5423L31.9724 59.5512C29.2154 59.5567 27.1463 57.5945 27.1404 55.1269L27.1387 54.4214ZM11.9932 3.98373C14.3721 5.73445 15.0349 8.91478 13.4164 11.5256L12.2964 13.3324C9.91772 11.5818 9.25479 8.40189 10.8729 5.79118L11.9932 3.98373ZM23.4664 9.60118L22.1655 11.7C20.4824 14.4156 16.8877 15.5339 13.9464 14.3396L15.7993 11.3501C17.2669 8.98235 20.4994 8.08548 22.9923 9.35903L23.4664 9.60118ZM1.94436 36.8163L0.70196 34.1577C4.78285 33.1473 9.22597 35.1384 10.9852 38.9037L12.2269 41.5615C8.14644 42.5718 3.70371 40.5811 1.94436 36.8163ZM15.1405 31.2851L15.691 31.0731L16.7356 33.3084C18.0797 36.1846 16.8589 39.4587 14.0002 40.8122L12.5214 37.6476C11.355 35.1518 12.521 32.294 15.1405 31.2851ZM8.60987 55.0613L5.46454 53.0276C8.46424 49.694 13.998 49.0563 18.1467 51.7391L21.2909 53.7723C18.2915 57.1057 12.7583 57.7435 8.60987 55.0613ZM17.5777 43.8535L18.0097 43.3028L20.4764 44.8977C23.214 46.6677 23.919 49.8951 22.2557 52.3958L18.7929 50.1568C16.4831 48.6634 15.9807 45.8892 17.5777 43.8535Z" fill="#B57461" stroke="#BB9890" stroke-linejoin="round"/>
</svg>
