<svg width="32" height="24" viewBox="0 0 32 24" fill="none" xmlns="http://www.w3.org/2000/svg">
<path d="M31.0156 14.3877V14.3853L25.3605 14.3821M31.0156 14.3877L31.021 6.1675L25.3651 3.27413L25.3605 8.81938M31.0156 14.3877L25.3605 8.81938M31.0156 14.3877L31.0079 20.7505M25.3605 8.81938L19.8611 8.81531L25.2458 14.3798M27.829 20.7477L31.0079 20.7505M1.02932 13.0289L1.0242 18.0728L1.021 20.7243M1.02932 13.0289L1.03472 6.13481L6.64078 3.25684M1.02932 13.0289L6.64078 8.8026M7.86991 20.7045L1.021 20.7243M1.021 20.7243L23.8545 20.7436L25.3605 20.747M1.021 20.7243L6.64078 14.3549V8.8026M31.0079 20.7505L25.3605 20.747M25.2458 14.3798L23.8606 14.3748M25.2458 14.3798L25.3605 14.3821M6.63669 8.80259L6.64078 8.8026M12.507 8.80899L6.64078 8.8026M25.3605 14.3821V20.747M14.7495 7.71915V9.71915" stroke="black" stroke-linecap="round" stroke-linejoin="round"/>
<path d="M12.8836 14.3883L19.1139 14.3917M19.1221 3.2517L20.6818 3.25L25.3608 3.2517V8.28971M19.1221 3.2517H12.8836M19.1221 3.2517L19.1139 14.3917M25.3561 14.3951L19.1139 14.3917M12.8836 3.2517H6.64495L6.64111 8.80385M12.8836 3.2517L12.8754 14.3662M12.8826 14.3655L12.8754 14.3662M7.01176 14.3598L12.8754 14.3662" stroke="black" stroke-linecap="round" stroke-linejoin="round"/>
</svg>
