<svg width="10" height="15" viewBox="0 0 10 15" fill="none" xmlns="http://www.w3.org/2000/svg">
<path d="M7.50546 2.29429L7.81006 1.70891L7.66268 1.63167C7.09389 1.33356 6.39828 1.55831 6.09685 2.13758L5.71415 2.87304C6.36485 3.21408 7.16063 2.95697 7.50546 2.29429Z" fill="#BB7B6C"/>
<path d="M3.85167 6.92196C4.0953 6.23611 4.79105 5.85126 5.4474 6.0179L5.26555 6.52971C5.0219 7.21547 4.32621 7.60024 3.66991 7.43362L3.85167 6.92196Z" fill="#BB7B6C"/>
<path d="M2.98955 5.34773L2.79264 5.90194C2.57277 6.52077 2.87651 7.18332 3.47771 7.39625L3.67602 6.83813C3.89512 6.22148 3.58864 5.55991 2.98955 5.34773Z" fill="#BB7B6C"/>
<path d="M5.03602 7.91979C4.37504 8.06702 3.92757 8.72425 4.01938 9.44626L4.08787 9.98492C4.74878 9.8377 5.19623 9.18057 5.10449 8.45861L5.03602 7.91979Z" fill="#BB7B6C"/>
<path d="M2.61418 9.01336L2.54004 8.4299C3.17043 8.34915 3.7423 8.80145 3.8248 9.45064L3.89946 10.0382C3.26684 10.1193 2.69697 9.66485 2.61418 9.01336Z" fill="#BB7B6C"/>
<path d="M5.1666 11.7332C4.77741 11.1181 4.90411 10.3332 5.44037 9.91969L5.73077 10.3787C6.11988 10.9937 5.99316 11.7785 5.45695 12.192L5.1666 11.7332Z" fill="#BB7B6C"/>
<path d="M3.39592 11.4397L3.71038 11.9367C4.06151 12.4917 4.77027 12.6617 5.3089 12.3202L4.99222 11.8196C4.64233 11.2666 3.93266 11.0993 3.39592 11.4397Z" fill="#BB7B6C"/>
<path d="M6.22524 13.3114C6.85911 13.6691 7.63666 13.503 8.02263 12.9465L7.54957 12.6796C6.91574 12.322 6.13828 12.4881 5.75235 13.0445L6.22524 13.3114Z" fill="#BB7B6C"/>
<path d="M6.47245 4.1173L6.16806 4.61543C5.82594 5.1753 5.12041 5.35208 4.57831 5.01377L4.88396 4.51359C5.22538 3.95486 5.93145 3.77969 6.47245 4.1173Z" fill="#BB7B6C"/>
<path d="M4.68717 4.48505C5.01495 3.94875 4.89868 3.26912 4.43592 2.90808L4.19457 3.30304C3.86687 3.83931 3.98315 4.51886 4.44587 4.87986L4.68717 4.48505Z" fill="#BB7B6C"/>
<path d="M7.50546 2.29429L7.81006 1.70891L7.66268 1.63167C7.09389 1.33356 6.39828 1.55831 6.09685 2.13758L5.71415 2.87304C6.36485 3.21408 7.16063 2.95697 7.50546 2.29429Z" stroke="#BB7B6C" stroke-width="0.45" stroke-linejoin="round"/>
<path d="M3.85167 6.92196C4.0953 6.23611 4.79105 5.85126 5.4474 6.0179L5.26555 6.52971C5.0219 7.21547 4.32621 7.60024 3.66991 7.43362L3.85167 6.92196Z" stroke="#BB7B6C" stroke-width="0.45" stroke-linejoin="round"/>
<path d="M2.98955 5.34773L2.79264 5.90194C2.57277 6.52077 2.87651 7.18332 3.47771 7.39625L3.67602 6.83813C3.89512 6.22148 3.58864 5.55991 2.98955 5.34773Z" stroke="#BB7B6C" stroke-width="0.45" stroke-linejoin="round"/>
<path d="M5.03602 7.91979C4.37504 8.06702 3.92757 8.72425 4.01938 9.44626L4.08787 9.98492C4.74878 9.8377 5.19623 9.18057 5.10449 8.45861L5.03602 7.91979Z" stroke="#BB7B6C" stroke-width="0.45" stroke-linejoin="round"/>
<path d="M2.61418 9.01336L2.54004 8.4299C3.17043 8.34915 3.7423 8.80145 3.8248 9.45064L3.89946 10.0382C3.26684 10.1193 2.69697 9.66485 2.61418 9.01336Z" stroke="#BB7B6C" stroke-width="0.45" stroke-linejoin="round"/>
<path d="M5.1666 11.7332C4.77741 11.1181 4.90411 10.3332 5.44037 9.91969L5.73077 10.3787C6.11988 10.9937 5.99316 11.7785 5.45695 12.192L5.1666 11.7332Z" stroke="#BB7B6C" stroke-width="0.45" stroke-linejoin="round"/>
<path d="M3.39592 11.4397L3.71038 11.9367C4.06151 12.4917 4.77027 12.6617 5.3089 12.3202L4.99222 11.8196C4.64233 11.2666 3.93266 11.0993 3.39592 11.4397Z" stroke="#BB7B6C" stroke-width="0.45" stroke-linejoin="round"/>
<path d="M6.22524 13.3114C6.85911 13.6691 7.63666 13.503 8.02263 12.9465L7.54957 12.6796C6.91574 12.322 6.13828 12.4881 5.75235 13.0445L6.22524 13.3114Z" stroke="#BB7B6C" stroke-width="0.45" stroke-linejoin="round"/>
<path d="M6.47245 4.1173L6.16806 4.61543C5.82594 5.1753 5.12041 5.35208 4.57831 5.01377L4.88396 4.51359C5.22538 3.95486 5.93145 3.77969 6.47245 4.1173Z" stroke="#BB7B6C" stroke-width="0.45" stroke-linejoin="round"/>
<path d="M4.68717 4.48505C5.01495 3.94875 4.89868 3.26912 4.43592 2.90808L4.19457 3.30304C3.86687 3.83931 3.98315 4.51886 4.44587 4.87986L4.68717 4.48505Z" stroke="#BB7B6C" stroke-width="0.45" stroke-linejoin="round"/>
</svg>
