<svg width="33" height="33" viewBox="0 0 33 33" fill="none" xmlns="http://www.w3.org/2000/svg">
<g filter="url(#filter0_d_374_12180)">
<rect x="5.62549" y="5.36871" width="20.5" height="20.5" rx="10.25" fill="white"/>
<path fill-rule="evenodd" clip-rule="evenodd" d="M15.8755 24.6187C20.8461 24.6187 24.8755 20.5893 24.8755 15.6187C24.8755 10.6482 20.8461 6.61871 15.8755 6.61871C10.9049 6.61871 6.87549 10.6482 6.87549 15.6187C6.87549 20.5893 10.9049 24.6187 15.8755 24.6187ZM13.6355 12.6099C13.8944 12.0945 14.4766 11.5599 15.5221 11.5599L16.7283 11.5599C18.8727 11.5599 20.2558 13.1229 20.2558 15.0087V17.0578C20.2558 18.0649 19.4548 18.9608 18.4744 18.9608L12.3938 18.9608C11.8521 18.9608 11.5074 18.5187 11.5074 18.0541C11.5074 17.9208 11.5553 17.8391 11.6136 17.7857C11.6789 17.726 11.7803 17.6826 11.902 17.6826H15.6456L17.8134 17.6826C18.1584 17.6826 18.4381 17.4029 18.4381 17.0578C18.4381 16.7128 18.1584 16.4331 17.8134 16.4331L15.6456 16.4331H11.902C11.0762 16.4331 10.2579 17.0412 10.2579 18.0541C10.2579 19.069 11.03 20.2103 12.3938 20.2103L18.4744 20.2103C20.2478 20.2103 21.5053 18.6473 21.5053 17.0578V15.0087C21.5053 12.4585 19.5881 10.3103 16.7283 10.3103L15.5221 10.3103C13.6181 10.3103 12.5972 11.5324 12.3076 12.6099H11.6908C11.2848 12.6099 10.8205 12.7288 10.6832 12.7751C10.3562 12.8852 10.1804 13.2395 10.2905 13.5665C10.4006 13.8935 10.755 14.0693 11.082 13.9592C11.082 13.9592 11.2599 13.9142 11.3231 13.902C11.4554 13.8764 11.5446 13.8594 11.774 13.8594H12.2203V14.1736C12.2203 14.2679 12.1842 14.3598 12.128 14.4224C12.079 14.4769 12.01 14.5166 11.902 14.5166C11.4711 14.5166 11.0008 14.5805 10.6805 14.69C10.354 14.8017 10.1799 15.1569 10.2916 15.4833C10.4032 15.8098 10.7584 15.984 11.0849 15.8723C11.2375 15.8201 11.5625 15.7661 11.902 15.7661C12.893 15.7661 13.4698 14.9404 13.4698 14.1736V13.8594H15.6456C16.0283 13.8594 16.2997 13.8995 16.5374 14.0031C16.7705 14.1047 17.0241 14.2908 17.3237 14.6691C17.5379 14.9396 17.9308 14.9853 18.2013 14.7711C18.4718 14.5568 18.5174 14.1639 18.3032 13.8934C17.911 13.3981 17.5031 13.0609 17.0365 12.8576C16.5745 12.6563 16.1079 12.6099 15.6456 12.6099H13.6355Z" fill="#23E06E"/>
</g>
<defs>
<filter id="filter0_d_374_12180" x="0.625488" y="0.368713" width="32" height="32" filterUnits="userSpaceOnUse" color-interpolation-filters="sRGB">
<feFlood flood-opacity="0" result="BackgroundImageFix"/>
<feColorMatrix in="SourceAlpha" type="matrix" values="0 0 0 0 0 0 0 0 0 0 0 0 0 0 0 0 0 0 127 0" result="hardAlpha"/>
<feOffset dx="2" dy="2"/>
<feColorMatrix type="matrix" values="0 0 0 0 0 0 0 0 0 0 0 0 0 0 0 0 0 0 0.2 0"/>
<feBlend mode="normal" in2="BackgroundImageFix" result="effect1_dropShadow_374_12180"/>
<feBlend mode="normal" in="SourceGraphic" in2="effect1_dropShadow_374_12180" result="shape"/>
</filter>
</defs>
</svg>
