<svg width="574" height="53" viewBox="0 0 574 53" fill="none" xmlns="http://www.w3.org/2000/svg">
<path d="M82.4429 13.0854H72.7796V24.4787H61.1753V13.0854H51.5542V43.0457H61.1753V31.3569H72.7796V43.0457H82.4429V13.0854Z" fill="black"/>
<path d="M96.9245 36.3362V31.0194H112.2V24.6475H96.9245V19.7948H112.917V13.0854H87.3035V43.0457H113.213V36.3362H96.9245Z" fill="black"/>
<path d="M203.356 43.8896C213.99 43.8896 220.784 37.771 220.784 28.0655C220.784 18.3601 213.99 12.2414 203.356 12.2414C192.723 12.2414 185.929 18.3601 185.929 28.0655C185.929 37.771 192.723 43.8896 203.356 43.8896ZM203.356 36.6738C198.799 36.6738 195.93 33.3824 195.93 28.0655C195.93 22.7486 198.799 19.4572 203.356 19.4572C207.914 19.4572 210.783 22.7486 210.783 28.0655C210.783 33.3824 207.914 36.6738 203.356 36.6738Z" fill="black"/>
<path d="M243.288 43.0457H253.753L247.128 31.2725C251.137 29.669 252.951 26.2932 252.951 22.7064C252.951 17.0942 249.322 13.0854 240.672 13.0854H223.582V43.0457H233.203V32.5807H237.76L243.288 43.0457ZM233.203 19.415H238.435C241.516 19.415 242.824 20.7232 242.824 22.8752C242.824 25.1117 241.474 26.5464 238.435 26.5464H233.203V19.415Z" fill="black"/>
<path d="M277.583 43.0457H288.513L276.824 25.2383L288.133 13.0854H276.993L266.232 24.8163V13.0854H256.611V43.0457H266.232V35.2813L270.03 31.3147L277.583 43.0457Z" fill="black"/>
<path d="M300.581 43.0457V13.0854H290.959V43.0457H300.581Z" fill="black"/>
<path d="M305.486 43.0457H314.306V24.9429H314.432C314.854 25.9556 315.867 27.517 316.5 28.6563L326.796 43.0457H336.502V13.0854H327.682V31.146H327.556C327.049 30.0066 326.205 28.5719 325.446 27.3482L315.698 13.0854H305.486V43.0457Z" fill="black"/>
<path d="M354.228 43.8896C360.178 43.8896 363.638 41.4844 365.158 38.5727L365.453 43.0457H372.5V25.7869H355.579V31.9899H363.554V32.3697C363.428 34.7327 360.685 37.0114 356.718 37.0114C351.908 37.0114 349.334 33.7622 349.334 28.1921C349.334 22.5376 351.908 19.1618 356.634 19.1618C359.925 19.1618 361.866 20.8075 362.584 23.5504L372.627 21.7359C371.192 15.7438 365.158 12.2414 356.718 12.2414C346 12.2414 339.29 18.8665 339.29 28.3187C339.29 37.6866 344.861 43.8896 354.228 43.8896Z" fill="black"/>
<path d="M441.229 43.8896C451.862 43.8896 458.656 37.771 458.656 28.0655C458.656 18.3601 451.862 12.2414 441.229 12.2414C430.595 12.2414 423.801 18.3601 423.801 28.0655C423.801 37.771 430.595 43.8896 441.229 43.8896ZM441.229 36.6738C436.671 36.6738 433.802 33.3824 433.802 28.0655C433.802 22.7486 436.671 19.4572 441.229 19.4572C445.786 19.4572 448.655 22.7486 448.655 28.0655C448.655 33.3824 445.786 36.6738 441.229 36.6738Z" fill="black"/>
<path d="M461.454 43.0457H469.64V25.1539C469.64 23.6348 469.598 21.9891 469.387 20.5122H469.514C469.683 21.6515 470.105 23.1706 470.569 24.5631L476.265 43.0457H484.621L490.275 24.5209C490.697 23.255 491.246 21.4827 491.372 20.47H491.541C491.33 22.1157 491.203 23.7192 491.203 25.1539V43.0457H500.023V13.0854H486.055L481.667 28.5297C481.203 30.0066 480.865 31.4835 480.738 32.5807H480.654C480.57 31.4835 480.232 30.0488 479.81 28.6141L475.126 13.0854H461.454V43.0457Z" fill="black"/>
<path d="M528.371 43.0457H538.33L526.346 13.0854H514.404L502.377 43.0457H512.336L514.404 37.0958H526.304L528.371 43.0457ZM516.556 30.935L518.624 24.9851C519.425 22.8752 519.974 21.3561 520.311 19.204H520.396C520.776 21.3561 521.324 22.8752 522.084 24.9851L524.151 30.935H516.556Z" fill="black"/>
<path d="M540.7 43.0457H556.566C566.525 43.0457 573.023 36.8426 573.023 27.6858C573.023 18.7399 566.736 13.0854 556.693 13.0854H540.7V43.0457ZM550.321 36.4628V19.6682H555.722C560.406 19.6682 562.98 23.0018 562.98 27.8123C562.98 32.7073 560.322 36.4628 555.553 36.4628H550.321Z" fill="black"/>
<path d="M432.413 0.178467C433.967 2.11338 434.049 4.19712 434.049 4.94333C434.049 5.88665 433.919 8.96742 430.847 11.1829C428.076 13.181 423.791 13.5961 421.79 13.6583V35.6029L421.857 35.685V49.6949H418.218L388.624 13.3921V36.7178C390.947 36.8231 394.862 37.2527 397.41 38.9065C397.46 38.9388 397.509 38.9713 397.557 39.0039L397.379 39.1573L397.546 39.0148C397.546 39.0148 398.641 39.5755 399.257 39.8384C399.799 40.07 401.098 39.7171 401.401 39.6295L404.537 37.2783L404.897 38.3499L392.907 47.3375L392.901 47.3193C392.803 47.187 391.821 45.9246 389.936 45.5076L389.941 45.5034C388.71 45.2408 387.454 45.212 386.928 45.212C386.12 45.212 383.658 45.3142 382.125 46.1549C380.592 46.9956 380.527 48.1647 380.527 48.5226C380.527 48.8806 380.592 50.0497 382.125 50.8904C382.89 51.3101 383.887 51.5457 384.794 51.6765L384.958 52.1785C382.653 51.9852 379.427 51.4529 377.165 50.0604C373.948 48.0802 373.812 45.3266 373.812 44.4835C373.812 43.6403 373.948 40.8867 377.165 38.9065C380.382 36.9263 385.549 36.6857 387.242 36.6857C387.319 36.6857 387.403 36.686 387.494 36.6868V28.1515C386.672 27.8269 385.741 27.795 385.382 27.795C384.903 27.795 383.441 27.8808 382.531 28.5871C381.62 29.2933 381.582 30.2754 381.582 30.5761C381.582 30.8768 381.62 31.8589 382.531 32.5651C382.563 32.59 382.596 32.6141 382.629 32.6375C381.321 32.3661 379.99 31.9497 378.915 31.3139C376.177 29.6947 376.061 27.4432 376.061 26.7538C376.061 26.0644 376.177 23.8129 378.915 22.1937C381.654 20.5745 386.052 20.3778 387.493 20.3778H387.494V12.0056L387.179 11.6196L387.307 11.56C385.944 10.1303 383.84 10.0156 383.148 10.0156C382.428 10.0156 380.229 10.2032 378.861 11.7471C378.277 12.4051 377.932 13.1727 377.728 13.8877C377.53 13.011 377.512 12.2846 377.512 11.9049C377.512 10.9621 377.625 7.88287 380.311 5.6685C382.996 3.45412 387.308 3.18504 388.722 3.18504C390.135 3.18504 394.558 3.36364 397.209 5.6685C397.531 5.94862 397.816 6.2385 398.07 6.53337L398.087 6.52547L420.66 34.2164V13.6608C418.643 13.6129 414.252 13.2651 411.514 11.1829C411.284 11.0085 411.071 10.8302 410.873 10.6494L407.359 13.2831L407 12.2115L418.686 3.4516L418.713 3.53251C418.74 3.55698 418.768 3.58135 418.797 3.60561C420.637 5.18315 423.707 5.30539 424.688 5.30539C425.669 5.30539 428.662 5.12121 430.526 3.60561C431.868 2.51453 432.284 1.1167 432.413 0.178467Z" fill="black"/>
<path fill-rule="evenodd" clip-rule="evenodd" d="M36.4687 2.15113C36.4969 2.15101 36.5241 2.15096 36.5503 2.15096C37.9088 2.15096 42.0536 2.36759 44.6344 4.15026C47.2153 5.93293 47.3244 8.41183 47.3244 9.17085C47.3244 9.92988 47.2153 12.4088 44.6344 14.1914C42.0896 15.9493 38.0241 16.1844 36.6087 16.1906V22.5355L41.8559 27.7827L36.6087 33.0299V42.9817C38.765 42.3571 40.9812 41.3399 42.7146 39.6878C46.876 35.7218 47.1603 30.6193 47.1603 28.9568C47.1603 28.6502 47.1506 28.2267 47.1088 27.7149H47.5406C48.1313 29.855 48.2081 31.6481 48.2081 32.5768C48.2081 34.6405 47.8286 40.974 42.2731 45.8969C36.7176 50.8198 27.4478 51.2013 24.4853 51.2013C21.5227 51.2013 12.4844 50.6266 6.85639 45.8969C1.22838 41.1673 0.9905 34.5906 0.9905 32.5768C0.9905 30.563 1.22838 23.9862 6.85639 19.2566C12.3265 14.6597 21.0181 13.9878 24.2217 13.9537L13.0388 11.5767L13.0411 11.5658C12.4266 11.4875 11.9053 11.4747 11.6159 11.4747C10.8477 11.4747 8.504 11.6109 7.04462 12.7314C5.58523 13.8518 5.52355 15.4099 5.52355 15.887C5.52355 16.3249 5.57553 17.6739 6.71311 18.759C5.63063 18.4133 4.55589 17.9158 3.66677 17.2024C1.08589 15.1316 0.976807 12.2521 0.976807 11.3704C0.976807 10.4887 1.08589 7.60921 3.66677 5.53843C6.24764 3.46765 10.3924 3.21601 11.751 3.21601C12.3386 3.21601 13.4674 3.24726 14.7654 3.45716L35.5564 7.87674L35.5498 7.9078C36.7068 7.85032 38.4697 7.66677 39.6799 7.12361C41.2857 6.4029 41.3536 5.40072 41.3536 5.09386C41.3536 4.787 41.2857 3.78482 39.6799 3.06411C38.7474 2.64559 37.4868 2.44058 36.4281 2.34223L36.4687 2.15113ZM25.637 14.2545C22.6973 14.6999 18.9085 15.7645 16.1854 18.2257C15.1117 19.1961 14.3 20.2631 13.6863 21.3413L28.5406 17.3611V35.1107L17.8198 37.9834V37.9719L15.187 38.6774C15.4917 39.023 15.8237 39.3609 16.1854 39.6878C20.4011 43.4982 27.1714 43.9612 29.3905 43.9612C30.5225 43.9612 32.884 43.8812 35.4784 43.2764V32.5232L30.738 27.7827L35.4784 23.0423V16.1637C34.9238 16.1364 34.2525 16.0832 33.5288 15.9822L33.539 15.9341L25.637 14.2545ZM11.7916 28.9568C11.7916 27.92 11.8643 25.3822 13.0169 22.6908L17.8198 21.4039V36.8018L14.4182 37.7132C11.916 34.2365 11.7916 30.3127 11.7916 28.9568Z" fill="black"/>
<path fill-rule="evenodd" clip-rule="evenodd" d="M151.745 2.37275L158.717 7.29272L158.781 7.27695V7.33823L158.813 7.36086L158.781 7.43465V38.3633L163.094 41.4066V3.51059H164.293V7.8302L168.64 5.85542L168.693 5.87491L168.716 5.8209L174.324 3.27385L175.467 2.64418L183.403 8.2448L183.364 8.33275H183.438V39.714L183.47 39.7752L169.116 46.2949L169.065 46.2758L169.042 46.3287L162.595 49.2569C160.946 50.2075 160.148 50.5458 159.3 50.0549C159.282 50.0448 159.266 50.0369 159.25 50.0313L150.079 43.5587L150.106 43.4974L145.733 45.85L140.566 48.696C138.165 49.7099 137.557 49.6768 136.618 49.1335C136.562 49.1012 136.518 49.093 136.486 49.1069L133.3 46.8582C130.88 46.1921 128.44 45.9853 127.392 45.9218C125.712 45.8201 120.574 45.7365 117.259 47.4087C116.287 47.8986 115.574 48.4669 115.049 49.0456C114.96 48.5329 114.949 48.118 114.949 47.8606C114.949 46.9081 115.104 43.7975 118.776 41.5604C120.482 40.5218 122.666 39.9068 124.712 39.5459V28.0914C123.968 27.9468 123.287 27.9279 122.964 27.9279C122.341 27.9279 120.442 28.0333 119.259 28.9002C118.076 29.7672 118.026 30.9728 118.026 31.3419C118.026 31.4178 118.028 31.5289 118.042 31.6652C117.909 31.5973 117.779 31.5267 117.653 31.4531C114.869 29.8313 114.751 27.5761 114.751 26.8855C114.751 26.195 114.869 23.9398 117.653 22.3179C119.716 21.1161 122.705 20.6966 124.712 20.56V11.8787L124.709 11.8791C124.693 11.2484 124.5 9.67061 123.332 8.66931C122.103 7.61541 120.394 7.57087 119.871 7.57087C119.348 7.57087 117.639 7.61541 116.41 8.66931C115.597 9.36613 115.256 10.3421 115.119 11.0838C115.036 10.5977 115.026 10.2037 115.026 9.9705C115.026 9.20476 115.13 6.70393 117.598 4.90548C120.066 3.10704 124.029 2.88849 125.328 2.88849C126.627 2.88849 130.692 3.03354 133.128 4.90548C135.177 6.47994 135.62 8.43385 135.71 9.48203H135.727V37.1763L139.515 39.8496V3.51033H140.714V7.18323L143.604 5.87022L143.656 5.88938L143.679 5.83629L149.28 3.29213L150.627 2.55038C151.056 2.38431 151.411 2.32102 151.745 2.37275ZM172.9 11.6072L167.317 7.66787L164.293 9.04151V22.2252L172.9 22.2252V11.6072ZM166.987 44.1532L164.293 42.252V27.8439H172.9V41.4675L168.953 43.2605L168.224 42.9117L167.904 43.7367L166.987 44.1532ZM140.714 40.695L143.515 42.6713L148.578 39.9475V27.844H140.714V40.695ZM142.281 7.68278L148.578 12.1256V22.2253H140.714V8.39453L142.281 7.68278ZM148.578 23.3575V26.7119H140.714V23.3575L148.578 23.3575ZM172.9 26.7117V23.3573H164.293V26.7117H172.9Z" fill="black"/>
<path d="M138.015 26.0056L137.504 24.6412C137.781 25.1418 137.933 25.612 138.015 26.0056Z" fill="black"/>
</svg>
