<svg width="1827" height="100" viewBox="0 0 1827 100" fill="none" xmlns="http://www.w3.org/2000/svg">
<path d="M57.1487 3.57938H0.988678V21.7794H18.2787V95.8794H39.8587V21.7794H57.1487V3.57938Z" fill="#202521"/>
<path d="M116.802 3.57938H95.0924V40.7594H81.5724V3.57938H59.8624V95.8794H81.5724V57.2694H95.0924V95.8794H116.802V3.57938Z" fill="#202521"/>
<path d="M147.908 79.6294V56.4894H169.618V40.2394H147.908V19.8294H171.308V3.57938H126.198V95.8794H172.218V79.6294H147.908Z" fill="#202521"/>
<path d="M205.893 95.8794H235.923L257.503 36.9894C258.413 34.3894 259.323 31.3994 259.453 28.9294H260.103C260.233 31.3994 261.143 34.3894 262.053 36.9894L283.633 95.8794H313.663L345.513 3.57938H318.863L300.533 63.2494C299.623 66.2394 298.713 69.2294 298.583 72.0894H298.063C297.803 69.2294 296.503 66.1094 295.463 63.2494L273.493 3.57938H246.063L223.963 63.2494C222.923 66.1094 221.753 69.2294 221.493 72.0894H220.973C220.843 69.2294 219.803 66.2394 219.023 63.2494L200.693 3.57938H173.913L205.893 95.8794Z" fill="#202521"/>
<path d="M405.351 99.1294C442.791 99.1294 467.231 79.7594 467.231 49.7294C467.231 19.6994 442.791 0.32938 405.351 0.32938C367.781 0.32938 343.471 19.6994 343.471 49.7294C343.471 79.6294 367.781 99.1294 405.351 99.1294Z" fill="#202521"/>
<path d="M554.092 95.8794H583.732L559.682 60.2594C575.152 55.1894 580.352 43.0994 580.352 32.8294C580.352 18.7894 571.772 3.57938 542.132 3.57938H479.212V95.8794H505.472V63.2494H532.122L554.092 95.8794ZM505.472 21.1294H536.152C548.762 21.1294 552.532 27.2394 552.532 33.6094C552.532 40.1094 548.762 46.4794 536.152 46.4794H505.472V21.1294Z" fill="#202521"/>
<path d="M676.524 95.8794H707.074L663.784 38.8094L664.044 38.6794L704.734 3.57938H672.364L623.224 46.4794V3.57938H596.964V95.8794H623.224V72.4794L644.024 53.8894L676.524 95.8794Z" fill="#202521"/>
<path d="M744.911 95.8794V3.57938H718.651V95.8794H744.911Z" fill="#202521"/>
<path d="M766.197 95.8794H789.987V32.4394H790.507C791.937 35.4294 795.447 40.1094 797.917 42.9694L847.707 95.8794H873.837V3.57938H850.047V66.3694H849.527C847.837 62.7294 845.237 59.6094 842.247 55.9694L794.277 3.57938H766.197V95.8794Z" fill="#202521"/>
<path d="M940.101 99.1294C963.501 99.1294 976.501 89.6394 982.221 80.0194L983.391 95.8794H1003.54V44.3994H944.261V60.6494H979.101V61.0394C978.321 71.3094 966.751 80.6694 946.731 80.6694C925.671 80.6694 913.451 68.5794 913.451 50.5094C913.451 31.5294 925.541 19.4394 946.471 19.4394C962.201 19.4394 971.821 26.1994 975.201 35.2994L1003.67 30.6194C998.081 11.8994 976.371 0.32938 947.251 0.32938C909.421 0.32938 885.891 21.7794 885.891 50.7694C885.891 78.7194 906.171 99.1294 940.101 99.1294Z" fill="#202521"/>
<path d="M1012.82 95.8794H1042.98L1050 55.3194C1051.17 49.2094 1051.82 44.1394 1052.6 39.1994H1052.99C1054.42 42.4494 1056.89 46.4794 1060.53 51.5494L1092.12 95.8794H1123.58L1139.83 3.57938H1109.8L1102.65 43.7494L1100.05 59.8694H1099.66C1097.84 55.8394 1096.67 53.3694 1092.12 46.8694L1062.61 3.57938H1029.07L1012.82 95.8794Z" fill="#202521"/>
<path d="M1415.85 95.8794H1444.71L1453.68 45.1794C1454.85 38.9394 1455.63 31.7894 1455.76 25.6794H1456.28C1456.67 30.0994 1457.45 37.1194 1459.01 44.2694L1468.63 95.8794H1499.57L1528.69 44.0094C1532.33 37.6394 1535.71 30.8794 1538.18 25.6794H1538.83C1536.49 32.4394 1534.67 39.3294 1533.63 45.1794L1524.66 95.8794H1555.08L1571.33 3.57938H1519.2L1495.02 51.4194C1492.68 55.9694 1490.6 59.7394 1489.43 63.2494H1489.17C1489.43 59.7394 1488.78 56.0994 1488 51.6794L1479.94 3.57938H1432.1L1415.85 95.8794Z" fill="#202521"/>
<path d="M1658.24 95.8794H1692.17L1665.52 3.57938H1622.36L1563.21 95.8794H1600.52L1610.79 78.3294H1654.21L1658.24 95.8794ZM1622.36 58.3094L1631.72 42.3194C1636.92 33.6094 1639.65 28.4094 1642.12 22.4294H1642.51C1643.29 28.6694 1643.81 33.7394 1645.89 42.3194L1649.53 58.3094H1622.36Z" fill="#202521"/>
<path d="M1700.35 95.8794H1759.76C1808.51 95.8794 1826.97 70.1394 1826.97 43.6194C1826.97 10.2094 1799.8 3.57938 1769.51 3.57938H1716.6L1700.35 95.8794ZM1737.4 74.2994L1746.11 25.0294H1767.04C1779.65 25.0294 1791.35 30.4894 1791.35 46.3494C1791.35 59.8694 1782.77 74.2994 1758.59 74.2994H1737.4Z" fill="#202521"/>
<path d="M1237.4 49.5342C1237.4 76.8027 1215.68 98.9082 1188.88 98.9082C1162.08 98.9082 1140.35 76.8027 1140.35 49.5342C1140.35 22.2657 1162.08 0.160156 1188.88 0.160156C1215.68 0.160156 1237.4 22.2657 1237.4 49.5342Z" fill="#202521"/>
<path d="M1409.3 49.5342C1409.3 76.8027 1387.58 98.9082 1360.78 98.9082C1333.98 98.9082 1312.25 76.8027 1312.25 49.5342C1312.25 22.2657 1333.98 0.160156 1360.78 0.160156C1387.58 0.160156 1409.3 22.2657 1409.3 49.5342Z" fill="#202521"/>
<path d="M1188.88 0.160156H1360.78V98.9082H1188.88V0.160156Z" fill="#202521"/>
</svg>
