<svg width="1109" height="70" viewBox="0 0 1109 70" fill="none" xmlns="http://www.w3.org/2000/svg">
<path fill-rule="evenodd" clip-rule="evenodd" d="M233.608 34.8781C233.608 55.8481 250.438 69.0781 276.988 69.0781C303.448 69.0781 320.278 55.8481 320.278 34.8781C320.278 13.9081 303.448 0.67807 276.988 0.67807C250.438 0.67807 233.608 13.9081 233.608 34.8781ZM295.978 34.8781C295.978 45.4081 288.508 52.3381 276.988 52.3381C265.468 52.3381 257.908 45.4081 257.908 34.8781C257.908 24.3481 265.468 17.3281 276.988 17.3281C288.508 17.3281 295.978 24.3481 295.978 34.8781Z" fill="#202521"/>
<path fill-rule="evenodd" clip-rule="evenodd" d="M358.098 45.9481L371.598 66.8281H396.978L381.498 43.2481C391.488 39.2881 394.818 31.0981 394.818 23.8981C394.818 13.5481 388.428 2.92807 366.378 2.92807H321.648V66.8281H344.688V45.9481H358.098ZM344.688 32.1781V17.5981H360.978C368.178 17.5981 370.518 20.8381 370.518 24.7081C370.518 28.7581 368.268 32.1781 360.888 32.1781H344.688Z" fill="#202521"/>
<path d="M430.962 40.9081L450.132 66.8281H476.412L447.882 27.9481L449.502 26.8681L475.512 2.92807H447.972L420.432 28.5781V2.92807H397.392V66.8281H420.432V50.8981L430.962 40.9081Z" fill="#202521"/>
<path d="M476.968 66.8281H500.008V2.92807H476.968V66.8281Z" fill="#202521"/>
<path d="M525.826 2.92807H501.975V66.8281H522.856V28.9381H523.306C524.206 31.1881 527.266 35.1481 528.796 37.0381L556.156 66.8281H578.656V2.92807H557.866V40.6381H557.416C556.176 38.0768 554.482 35.8948 552.541 33.3958C552.368 33.1726 552.193 32.9468 552.016 32.7181L525.826 2.92807Z" fill="#202521"/>
<path d="M118.105 2.93598L139.885 66.836H165.715L178.135 30.836L178.165 30.7359C178.698 28.9595 179.308 26.9261 179.485 24.806H179.935C180.025 26.966 180.655 29.036 181.285 30.836L193.615 66.836H219.445L241.225 2.93598H218.095L207.835 38.846C207.812 38.9327 207.788 39.0193 207.765 39.1058C207.159 41.3528 206.575 43.5194 206.575 45.686H206.125C205.945 43.436 205.045 41.006 204.235 38.846L191.815 2.93598H167.515L155.095 38.846C154.285 41.006 153.385 43.436 153.205 45.686H152.755C152.755 43.5194 152.171 41.3529 151.565 39.106C151.542 39.0195 151.518 38.9328 151.495 38.846L141.235 2.93598H118.105Z" fill="#202521"/>
<path d="M579.947 34.8781C579.947 55.8481 596.777 69.0781 623.327 69.0781C649.787 69.0781 666.617 55.8481 666.617 34.8781C666.617 33.1806 666.506 31.5339 666.29 29.9408H624.406V43.7259H640.16C637.155 49.1153 631.183 52.3381 623.327 52.3381C611.807 52.3381 604.247 45.4081 604.247 34.8781C604.247 24.3481 611.807 17.3281 623.327 17.3281C631.22 17.3281 637.212 20.6236 640.202 26.0856L664.154 21.9896C658.576 8.63556 643.848 0.67807 623.327 0.67807C596.777 0.67807 579.947 13.9081 579.947 34.8781Z" fill="#202521"/>
<path fill-rule="evenodd" clip-rule="evenodd" d="M752.745 34.8781C752.745 55.8481 769.575 69.0781 796.125 69.0781C822.585 69.0781 839.415 55.8481 839.415 34.8781C839.415 13.9081 822.585 0.67807 796.125 0.67807C769.575 0.67807 752.745 13.9081 752.745 34.8781ZM815.115 34.8781C815.115 45.4081 807.645 52.3381 796.125 52.3381C784.605 52.3381 777.045 45.4081 777.045 34.8781C777.045 24.3481 784.605 17.3281 796.125 17.3281C807.645 17.3281 815.115 24.3481 815.115 34.8781Z" fill="#202521"/>
<path d="M874.702 2.92807H840.592V66.8281H860.572V31.7281C860.572 27.4081 860.482 22.4581 859.672 18.2281H860.032C860.842 21.2881 862.282 26.1481 864.082 31.0981L877.132 66.8281H898.552L912.412 30.9181C914.122 26.5981 916.192 20.4781 916.732 18.2281H917.182C916.372 22.9081 915.922 27.6781 915.922 31.7281V66.8281H936.982V2.92807H901.972L890.992 35.2381C890.853 35.6441 890.715 36.0411 890.58 36.4299C889.669 39.0579 888.887 41.3113 888.652 43.4281H888.472C888.237 41.3144 887.458 39.1326 886.548 36.5866C886.412 36.2056 886.273 35.8164 886.132 35.4181L874.702 2.92807Z" fill="#202521"/>
<path fill-rule="evenodd" clip-rule="evenodd" d="M997.341 54.6781L1002.29 66.8281H1026.95L997.251 2.92807H967.371L937.671 66.8281H962.421L967.371 54.6781H997.341ZM991.761 40.8181H972.951L977.451 29.7481C979.971 23.7181 981.411 20.1181 982.221 15.9781H982.491C983.211 20.1181 984.651 23.7181 987.261 29.7481L991.761 40.8181Z" fill="#202521"/>
<path fill-rule="evenodd" clip-rule="evenodd" d="M1070.46 2.92807H1027.53V66.8281H1069.92C1093.23 66.8281 1108.8 53.3281 1108.8 33.7981C1108.8 14.0881 1094.4 2.92807 1070.46 2.92807ZM1066.14 51.8881H1050.57V17.7781H1066.68C1077.3 17.7781 1084.5 23.8081 1084.5 34.2481C1084.5 45.0481 1077.57 51.8881 1066.14 51.8881Z" fill="#202521"/>
<path d="M683.637 66.8281L696.057 30.8281L696.087 30.728C696.62 28.9516 697.23 26.9181 697.407 24.7981H697.857C697.947 26.9581 698.577 29.0281 699.207 30.8281L711.537 66.8281H738.367L760.147 2.92807H736.017L725.757 38.8381L725.687 39.0979C725.081 41.3448 724.497 43.5116 724.497 45.6781H724.047C723.867 43.4281 722.967 40.9981 722.157 38.8381L709.737 2.92807H682.967L658.36 66.8281L683.637 66.8281Z" fill="#202521"/>
<path d="M39.5964 2.92053V15.5205H27.6264V66.8205H12.6864V15.5205H0.716431V2.92053H39.5964Z" fill="#202521"/>
<path d="M80.6952 2.92053V66.8205H65.6652V40.0905H56.3052V66.8205H41.2752V2.92053H56.3052V28.6605H65.6652V2.92053H80.6952Z" fill="#202521"/>
<path d="M98.1895 55.5705H115.019V66.8205H83.1595V2.92053H114.389V14.1705H98.1895V28.3005H113.219V39.5505H98.1895V55.5705Z" fill="#202521"/>
</svg>
