<svg width="1852" height="100" viewBox="0 0 1852 100" fill="none" xmlns="http://www.w3.org/2000/svg">
<path d="M101.802 3.48974H0.662109V14.7997H44.4721V95.7897H57.9921V14.7997H101.802V3.48974Z" fill="#202521"/>
<path d="M218.783 3.48974H205.263V43.0097H129.083V3.48974H115.563V95.7897H129.083V54.1897H205.263V95.7897H218.783V3.48974Z" fill="#202521"/>
<path d="M259.911 84.7397V54.0597H331.671V43.0097H259.911V14.5397H333.881V3.48974H246.391V95.7897H334.791V84.7397H259.911Z" fill="#202521"/>
<path d="M377.034 95.7897H407.064L428.644 36.8997C429.554 34.2997 430.464 31.3097 430.594 28.8397H431.244C431.374 31.3097 432.284 34.2997 433.194 36.8997L454.774 95.7897H484.804L516.654 3.48974H490.004L471.674 63.1597C470.764 66.1497 469.854 69.1397 469.724 71.9997H469.204C468.944 69.1397 467.644 66.0197 466.604 63.1597L444.634 3.48974H417.204L395.104 63.1597C394.064 66.0197 392.894 69.1397 392.634 71.9997H392.114C391.984 69.1397 390.944 66.1497 390.164 63.1597L371.834 3.48974H345.054L377.034 95.7897Z" fill="#202521"/>
<path d="M576.492 99.0397C613.932 99.0397 638.372 79.6697 638.372 49.6397C638.372 19.6097 613.932 0.239746 576.492 0.239746C538.922 0.239746 514.612 19.6097 514.612 49.6397C514.612 79.5397 538.922 99.0397 576.492 99.0397ZM576.492 79.5397C555.952 79.5397 542.302 67.4497 542.302 49.6397C542.302 31.6997 555.952 19.7397 576.492 19.7397C596.902 19.7397 610.552 31.6997 610.552 49.6397C610.552 67.5797 596.902 79.5397 576.492 79.5397Z" fill="#202521"/>
<path d="M725.233 95.7897H754.873L730.823 60.1697C746.293 55.0997 751.493 43.0097 751.493 32.7397C751.493 18.6997 742.913 3.48974 713.273 3.48974H650.353V95.7897H676.613V63.1597H703.263L725.233 95.7897ZM676.613 21.0397H707.293C719.903 21.0397 723.673 27.1497 723.673 33.5197C723.673 40.0197 719.903 46.3897 707.293 46.3897H676.613V21.0397Z" fill="#202521"/>
<path d="M847.665 95.7897H878.215L834.925 38.7197L835.185 38.5897L875.875 3.48974H843.505L794.365 46.3897V3.48974H768.105V95.7897H794.365V72.3897L815.165 53.7997L847.665 95.7897Z" fill="#202521"/>
<path d="M916.052 95.7897V3.48974H889.792V95.7897H916.052Z" fill="#202521"/>
<path d="M937.339 95.7897H961.129V32.3497H961.649C963.079 35.3397 966.589 40.0197 969.059 42.8797L1018.85 95.7897H1044.98V3.48974H1021.19V66.2797H1020.67C1018.98 62.6397 1016.38 59.5197 1013.39 55.8797L965.419 3.48974H937.339V95.7897Z" fill="#202521"/>
<path d="M1111.24 99.0397C1134.64 99.0397 1147.64 89.5497 1153.36 79.9297L1154.53 95.7897H1174.68V44.3097H1115.4V60.5597H1150.24V60.9497C1149.46 71.2197 1137.89 80.5798 1117.87 80.5798C1096.81 80.5798 1084.59 68.4897 1084.59 50.4197C1084.59 31.4397 1096.68 19.3497 1117.61 19.3497C1133.34 19.3497 1142.96 26.1097 1146.34 35.2097L1174.81 30.5297C1169.22 11.8097 1147.51 0.239746 1118.39 0.239746C1080.56 0.239746 1057.03 21.6897 1057.03 50.6797C1057.03 78.6297 1077.31 99.0397 1111.24 99.0397Z" fill="#202521"/>
<path d="M1183.96 95.7897H1214.12L1221.14 55.2297C1222.31 49.1197 1222.96 44.0497 1223.74 39.1097H1224.13C1225.56 42.3597 1228.03 46.3897 1231.67 51.4597L1263.26 95.7897H1294.72L1310.97 3.48974H1280.94L1273.79 43.6597L1271.19 59.7797H1270.8C1268.98 55.7497 1267.81 53.2797 1263.26 46.7797L1233.75 3.48974H1200.21L1183.96 95.7897Z" fill="#202521"/>
<path d="M1373.48 99.0397C1424.7 99.0397 1439.13 67.4497 1439.13 44.4397C1439.13 11.2897 1408.19 0.239746 1378.16 0.239746C1326.94 0.239746 1312.38 31.8297 1312.38 54.8397C1312.38 87.9897 1343.45 99.0397 1373.48 99.0397ZM1372.7 74.8597C1360.09 74.8597 1347.74 69.0097 1347.74 53.6697C1347.74 39.6297 1355.93 24.2897 1378.94 24.2897C1391.55 24.2897 1403.9 30.2697 1403.9 45.4797C1403.9 59.6497 1395.71 74.8597 1372.7 74.8597Z" fill="#202521"/>
<path d="M1440.54 95.7897H1469.4L1478.37 45.0897C1479.54 38.8497 1480.32 31.6997 1480.45 25.5897H1480.97C1481.36 30.0097 1482.14 37.0297 1483.7 44.1797L1493.32 95.7897H1524.26L1553.38 43.9197C1557.02 37.5497 1560.4 30.7897 1562.87 25.5897H1563.52C1561.18 32.3497 1559.36 39.2397 1558.32 45.0897L1549.35 95.7897H1579.77L1596.02 3.48974H1543.89L1519.71 51.3297C1517.37 55.8797 1515.29 59.6497 1514.12 63.1597H1513.86C1514.12 59.6497 1513.47 56.0097 1512.69 51.5897L1504.63 3.48974H1456.79L1440.54 95.7897Z" fill="#202521"/>
<path d="M1682.93 95.7897H1716.86L1690.21 3.48974H1647.05L1587.9 95.7897H1625.21L1635.48 78.2397H1678.9L1682.93 95.7897ZM1647.05 58.2197L1656.41 42.2297C1661.61 33.5197 1664.34 28.3197 1666.81 22.3397H1667.2C1667.98 28.5797 1668.5 33.6497 1670.58 42.2297L1674.22 58.2197H1647.05Z" fill="#202521"/>
<path d="M1725.05 95.7897H1784.46C1833.21 95.7897 1851.67 70.0497 1851.67 43.5297C1851.67 10.1197 1824.5 3.48974 1794.21 3.48974H1741.3L1725.05 95.7897ZM1762.1 74.2097L1770.81 24.9397H1791.74C1804.35 24.9397 1816.05 30.3997 1816.05 46.2597C1816.05 59.7797 1807.47 74.2097 1783.29 74.2097H1762.1Z" fill="#202521"/>
</svg>
