<svg width="499" height="43" viewBox="0 0 499 43" fill="none" xmlns="http://www.w3.org/2000/svg">
<path d="M103.754 29.2139H114.903L120.263 13.6761L120.276 13.6329C120.506 12.8662 120.77 11.9885 120.846 11.0735H121.04C121.079 12.0058 121.351 12.8992 121.623 13.6761L126.945 29.2139H138.093L147.493 1.63428H137.51L133.082 17.1332L133.052 17.2454C132.79 18.2151 132.538 19.1504 132.538 20.0854H132.344C132.266 19.1143 131.878 18.0655 131.528 17.1332L126.168 1.63428H115.68L110.319 17.1332C109.969 18.0655 109.581 19.1143 109.503 20.0854H109.309C109.309 19.1503 109.057 18.2152 108.796 17.2455L108.765 17.1332L104.337 1.63428H94.354L103.754 29.2139Z" fill="black"/>
<path fill-rule="evenodd" clip-rule="evenodd" d="M160.873 29.9519C170.351 29.9519 176.527 25.9121 176.527 19.5028C176.527 13.0934 170.351 9.05358 160.873 9.05358C151.356 9.05358 145.18 13.0934 145.18 19.5028C145.18 25.9121 151.356 29.9519 160.873 29.9519ZM160.873 24.2418C157.416 24.2418 155.085 22.3384 155.085 19.5028C155.085 16.6283 157.416 14.7637 160.873 14.7637C164.291 14.7637 166.622 16.6283 166.622 19.5028C166.622 22.3384 164.291 24.2418 160.873 24.2418Z" fill="black"/>
<path d="M188.099 15.6183V9.79163H179.787V29.2139H189.343V23.4261C189.343 21.4061 190.042 19.697 191.362 18.5705C192.372 17.6382 194.159 17.1332 196.218 17.1332C197.422 17.1332 198.51 17.2498 199.636 17.444V9.51972C199.518 9.50788 199.406 9.49605 199.296 9.48449C198.688 9.42017 198.159 9.36434 197.073 9.36434C192.372 9.36434 189.187 11.8115 188.099 15.6183Z" fill="black"/>
<path d="M223.204 29.2139H233.925L224.642 16.706L233.692 9.79163H221.417L212.639 16.8613V1.05161H203.083V29.2139H212.639V24.9022L217.533 21.2508L223.204 29.2139Z" fill="black"/>
<path d="M235.822 7.30558H245.689V0.546631H235.822V7.30558Z" fill="black"/>
<path d="M235.978 29.2139H245.534V9.79163H235.978V29.2139Z" fill="black"/>
<path d="M249.721 29.2139H259.276V21.5615C259.276 17.6771 261.141 15.6572 264.831 15.6572C268.405 15.6572 270.036 17.5217 270.036 21.445V29.2139H279.592V20.202C279.592 12.8992 275.902 9.05358 268.949 9.05358C264.287 9.05358 260.791 10.8793 259.121 14.1422V9.79163H249.721V29.2139Z" fill="black"/>
<path fill-rule="evenodd" clip-rule="evenodd" d="M298.329 29.9519C307.807 29.9519 313.984 25.9121 313.984 19.5028C313.984 13.0934 307.807 9.05358 298.329 9.05358C288.812 9.05358 282.636 13.0934 282.636 19.5028C282.636 25.9121 288.812 29.9519 298.329 29.9519ZM298.329 24.2418C294.872 24.2418 292.542 22.3384 292.542 19.5028C292.542 16.6283 294.872 14.7637 298.329 14.7637C301.748 14.7637 304.078 16.6283 304.078 19.5028C304.078 22.3384 301.748 24.2418 298.329 24.2418Z" fill="black"/>
<path d="M282.536 31.9064C282.535 31.9698 282.534 32.0335 282.534 32.0975C282.534 38.5068 288.71 42.5466 298.227 42.5466C307.705 42.5466 313.882 38.5068 313.882 32.0975C313.882 32.0746 313.881 32.0517 313.881 32.0288C313.881 31.9879 313.88 31.9471 313.88 31.9064H303.973C303.975 31.9696 303.976 32.0333 303.976 32.0975C303.976 34.9331 301.645 36.8365 298.227 36.8365C294.77 36.8365 292.439 34.9331 292.439 32.0975C292.439 32.0535 292.44 32.0097 292.441 31.9662C292.441 31.9462 292.442 31.9263 292.443 31.9064H282.536Z" fill="black"/>
<path d="M31.9287 1.6334H0.775391V9.20808H11.3799V29.213H21.2853V9.20808H31.9287V1.6334Z" fill="black"/>
<path d="M35.164 29.213H44.7198V21.3664C44.7198 17.482 46.5455 15.4621 50.1192 15.4621C53.654 15.4621 55.4797 17.4431 55.4797 21.211V29.213H65.0355V20.2788C65.0355 13.1314 61.1122 9.01386 54.3144 9.01386C49.8861 9.01386 46.4289 10.723 44.7198 13.6364V1.05073H35.164V29.213Z" fill="black"/>
<path fill-rule="evenodd" clip-rule="evenodd" d="M97.1381 20.5507C97.1381 13.3644 91.8552 9.0527 82.2994 9.0527C73.2098 9.0527 67.422 13.0925 67.422 19.5019C67.422 26.1055 72.9768 29.9511 82.4548 29.9511C88.7088 29.9511 93.4478 28.1642 96.2058 25.1343L89.0584 22.0656C87.8542 23.3863 85.3293 24.3186 82.8821 24.3186C79.5415 24.3186 77.2497 23.2698 76.5505 21.4053H97.1381V20.5507ZM76.4728 16.9381C76.9777 15.0348 78.9588 13.8306 82.2606 13.8306C85.6012 13.8306 87.6211 15.3067 87.7377 16.9381H76.4728Z" fill="black"/>
<path d="M317.351 29.213H326.363V12.8595H326.557C326.946 13.8306 328.266 15.5397 328.927 16.3555L340.735 29.213H350.446V1.6334H341.473V17.9093H341.279C340.744 16.8037 340.013 15.8619 339.175 14.7832C339.1 14.6869 339.025 14.5896 338.948 14.4909L327.645 1.6334H317.351V29.213Z" fill="black"/>
<path fill-rule="evenodd" clip-rule="evenodd" d="M368.618 29.9511C378.096 29.9511 384.272 25.9112 384.272 19.5019C384.272 13.0925 378.096 9.0527 368.618 9.0527C359.101 9.0527 352.924 13.0925 352.924 19.5019C352.924 25.9112 359.101 29.9511 368.618 29.9511ZM368.618 24.2409C365.16 24.2409 362.83 22.3375 362.83 19.5019C362.83 16.6274 365.16 14.7629 368.618 14.7629C372.036 14.7629 374.367 16.6274 374.367 19.5019C374.367 22.3375 372.036 24.2409 368.618 24.2409Z" fill="black"/>
<path d="M386.949 29.213H396.505V20.9391C396.505 17.5597 397.942 15.734 400.7 15.734C403.535 15.734 404.895 17.4431 404.895 20.8226V29.213H414.412V20.9391C414.412 17.5985 415.927 15.734 418.646 15.734C421.326 15.734 422.802 17.5597 422.802 20.8226V29.213H432.358V19.5019C432.358 12.7818 428.862 9.0527 422.608 9.0527C418.413 9.0527 415.189 10.723 413.247 13.9083C411.732 10.723 408.779 9.0527 404.856 9.0527C400.816 9.0527 397.748 10.8007 396.349 13.986V9.79075H386.949V29.213Z" fill="black"/>
<path fill-rule="evenodd" clip-rule="evenodd" d="M445.643 29.9511C450.42 29.9511 454.111 28.3973 455.276 25.8724C455.276 26.9212 455.393 28.475 455.509 29.213H464.987C464.832 27.9311 464.715 25.8724 464.715 23.6971V18.1035C464.715 12.1214 460.753 9.0527 451.042 9.0527C443.04 9.0527 437.252 11.8884 436.359 16.5497H446.536C446.847 15.0736 448.517 14.219 451.042 14.219C453.45 14.219 455.004 14.9182 455.004 16.5109V17.0158L445.915 17.5597C442.38 17.7539 440.127 18.2589 438.612 19.1523C436.825 20.2011 435.931 21.7549 435.931 23.6583C435.931 27.7369 439.35 29.9511 445.643 29.9511ZM449.372 24.979C447.119 24.979 445.798 24.2409 445.798 22.9979C445.798 21.8326 446.808 21.3276 449.294 21.1334L455.121 20.6672V21.1722C455.121 23.464 452.868 24.979 449.372 24.979Z" fill="black"/>
<path fill-rule="evenodd" clip-rule="evenodd" d="M479.7 29.9511C484.128 29.9511 487.546 28.2807 489.527 25.5228V29.213H498.811V1.05073H489.255V12.1603C487.041 10.1404 484.167 9.0527 480.01 9.0527C472.746 9.0527 467.852 13.2091 467.852 19.3465C467.852 25.7559 472.669 29.9511 479.7 29.9511ZM483.467 24.2021C479.971 24.2021 477.757 22.2987 477.757 19.3465C477.757 16.5109 479.894 14.724 483.429 14.724C486.963 14.724 489.45 16.5109 489.45 19.23V19.5407C489.45 22.3375 486.963 24.2021 483.467 24.2021Z" fill="black"/>
</svg>
