<svg width="1255" height="70" viewBox="0 0 1255 70" fill="none" xmlns="http://www.w3.org/2000/svg">
<path fill-rule="evenodd" clip-rule="evenodd" d="M362.226 34.889C362.226 55.8589 379.056 69.089 405.606 69.089C432.066 69.089 448.896 55.8589 448.896 34.889C448.896 13.9189 432.066 0.688965 405.606 0.688965C386.188 0.688965 371.969 7.76605 365.732 19.7723V2.96326H338.732V22.7891L338.719 22.7689C338.719 23.5529 338.117 24.1964 337.351 24.2632H332.303C330.646 24.2632 329.303 25.6064 329.303 27.2632V44.0613L329.301 44.0577C329.301 44.8862 328.629 45.5577 327.801 45.5577C327.785 45.5577 327.768 45.558 327.752 45.5587C327.728 45.5596 327.704 45.5612 327.681 45.5634H326.301L326.388 45.5629V27.2628C326.388 25.606 325.045 24.2628 323.388 24.2628H318.775L318.772 24.2616V24.2628H318.77V2.96326H277.005V24.2628H277.003V24.2616L277.001 24.2628H272.387C270.73 24.2628 269.387 25.606 269.387 27.2628V45.5629H269.474L268.095 45.5634C268.055 45.5597 268.015 45.5577 267.974 45.5577C267.146 45.5577 266.474 44.8862 266.474 44.0577L266.472 44.0613V27.2632C266.472 25.6064 265.129 24.2632 263.472 24.2632H258.424C257.658 24.1964 257.056 23.5529 257.056 22.7689L257.044 22.7891V2.96326H230.044V21.2633C230.044 22.9202 231.387 24.2633 233.044 24.2633H238.064C238.757 24.2897 239.33 24.7868 239.472 25.4442V42.5632C239.472 44.2201 240.815 45.5632 242.472 45.5632H245.915L245.917 45.5643V45.5632H247.363C247.381 45.564 247.399 45.5643 247.417 45.5643C248.168 45.5643 248.791 46.1167 248.9 46.8374V66.8634H286.68V45.5634H269.484L269.483 45.5629H293.387C295.044 45.5629 296.387 44.2197 296.387 42.5629V25.8255C296.388 25.8219 296.39 25.8177 296.391 25.8128C296.393 25.8008 296.395 25.785 296.395 25.7651C296.395 24.939 297.062 24.2689 297.888 24.2651C298.713 24.2689 299.381 24.939 299.381 25.7651C299.381 25.793 299.383 25.8129 299.388 25.8255V42.5629C299.388 44.2197 300.732 45.5629 302.388 45.5629H326.292L309.096 45.5634V66.8634H346.875V46.8374C346.984 46.1167 347.607 45.5643 348.358 45.5643C348.376 45.5643 348.394 45.564 348.412 45.5632H349.858V45.5643L349.86 45.5632H353.303C354.96 45.5632 356.303 44.2201 356.303 42.5632V25.4442C356.445 24.7868 357.018 24.2897 357.711 24.2633H362.732C363.158 24.2633 363.564 24.1743 363.932 24.0137C362.81 27.3467 362.226 30.9836 362.226 34.889ZM424.596 34.889C424.596 45.4189 417.126 52.3489 405.606 52.3489C394.086 52.3489 386.526 45.4189 386.526 34.889C386.526 24.3589 394.086 17.339 405.606 17.339C417.126 17.339 424.596 24.3589 424.596 34.889Z" fill="#202521"/>
<path fill-rule="evenodd" clip-rule="evenodd" d="M486.716 45.959L500.216 66.839H525.596L510.116 43.259C520.106 39.299 523.436 31.1089 523.436 23.9089C523.436 13.559 517.046 2.93896 494.996 2.93896H450.266V66.839H473.306V45.959H486.716ZM473.306 32.189V17.6089H489.596C496.796 17.6089 499.136 20.8489 499.136 24.719C499.136 28.769 496.886 32.189 489.506 32.189H473.306Z" fill="#202521"/>
<path d="M578.75 66.839L559.58 40.9189L549.05 50.9089V66.839H526.01V2.93896H549.05V28.589L576.59 2.93896H604.13L578.12 26.879L576.5 27.959L605.03 66.839H578.75Z" fill="#202521"/>
<path d="M605.586 66.839H628.626V2.93896H605.586V66.839Z" fill="#202521"/>
<path d="M630.593 2.93896H654.443L680.633 32.7289C680.811 32.9578 680.986 33.1835 681.159 33.4067C683.1 35.9057 684.794 38.0877 686.033 40.649H686.483V2.93896H707.273V66.839H684.773L657.413 37.049C655.883 35.1589 652.823 31.199 651.923 28.949H651.473V66.839H630.593V2.93896Z" fill="#202521"/>
<path d="M708.565 34.889C708.565 55.8589 725.395 69.089 751.945 69.089C778.405 69.089 795.235 55.8589 795.235 34.889C795.235 33.1915 795.124 31.5448 794.908 29.9517H753.024V43.7368H768.778C765.773 49.1262 759.801 52.3489 751.945 52.3489C740.425 52.3489 732.865 45.4189 732.865 34.889C732.865 24.3589 740.425 17.339 751.945 17.339C759.838 17.339 765.829 20.6345 768.82 26.0964L792.772 22.0005C787.194 8.64648 772.466 0.688965 751.945 0.688965C725.395 0.688965 708.565 13.9189 708.565 34.889Z" fill="#202521"/>
<path d="M159.858 66.8633V2.96326H136.908V26.9933H106.128V2.96326H83.0882V66.8633H106.128V42.2933H136.908V66.8633H159.858Z" fill="#202521"/>
<path d="M229.227 51.3832H184.857V41.7532H227.067V27.5333H184.857V18.4432H228.597V2.96326H161.817V66.8633H229.227V51.3832Z" fill="#202521"/>
<path d="M81.6071 2.96326V24.2632H54.6071V45.563H27.6071V24.2632H0.607178V2.96326H81.6071Z" fill="#202521"/>
<path d="M27.6071 45.563H54.6071V66.8633H27.6071V45.563Z" fill="#202521"/>
<path fill-rule="evenodd" clip-rule="evenodd" d="M942.288 69.0944C915.738 69.0944 898.908 55.8643 898.908 34.8943C898.908 13.9243 915.738 0.694336 942.288 0.694336C968.748 0.694336 985.578 13.9243 985.578 34.8943C985.578 55.8643 968.748 69.0944 942.288 69.0944ZM942.288 52.3543C953.808 52.3543 961.278 45.4243 961.278 34.8943C961.278 24.3643 953.808 17.3444 942.288 17.3444C930.768 17.3444 923.208 24.3643 923.208 34.8943C923.208 45.4243 930.768 52.3543 942.288 52.3543Z" fill="#202521"/>
<path d="M986.756 2.94434H1020.87L1032.3 35.4343C1032.44 35.8327 1032.58 36.2219 1032.71 36.6029C1033.62 39.1489 1034.4 41.3307 1034.64 43.4443H1034.82C1035.05 41.3278 1035.83 39.0746 1036.74 36.4469L1036.75 36.4385L1036.91 35.9647C1036.99 35.731 1037.07 35.4942 1037.16 35.2543L1048.14 2.94434H1083.15V66.8444H1062.09V31.7443C1062.09 27.6943 1062.54 22.9243 1063.35 18.2443H1062.9C1062.36 20.4943 1060.29 26.6143 1058.58 30.9343L1044.72 66.8444H1023.3L1010.25 31.1143C1008.45 26.1643 1007.01 21.3043 1006.2 18.2443H1005.84C1006.65 22.4744 1006.74 27.4243 1006.74 31.7443V66.8444H986.756V2.94434Z" fill="#202521"/>
<path fill-rule="evenodd" clip-rule="evenodd" d="M1143.5 54.6943L1148.45 66.8444H1173.11L1143.41 2.94434H1113.53L1083.83 66.8444H1108.58L1113.53 54.6943H1143.5ZM1137.92 40.8344H1119.11L1123.61 29.7643C1126.13 23.7343 1127.57 20.1343 1128.38 15.9943H1128.65C1129.37 20.1343 1130.81 23.7343 1133.42 29.7643L1137.92 40.8344Z" fill="#202521"/>
<path fill-rule="evenodd" clip-rule="evenodd" d="M1173.69 2.94434H1216.62C1240.56 2.94434 1254.96 14.1043 1254.96 33.8143C1254.96 53.3444 1239.39 66.8444 1216.08 66.8444H1173.69V2.94434ZM1196.73 51.9044H1212.3C1223.73 51.9044 1230.66 45.0643 1230.66 34.2643C1230.66 23.8243 1223.46 17.7943 1212.84 17.7943H1196.73V51.9044Z" fill="#202521"/>
<path fill-rule="evenodd" clip-rule="evenodd" d="M830.481 25.514V42.2514C830.481 43.9083 829.137 45.2514 827.481 45.2514H823.774L823.772 45.2529V45.2514H822.334C822.313 45.2524 822.292 45.2529 822.272 45.2529C821.467 45.2529 820.811 45.886 820.773 46.681V66.5519H793.773V48.252C793.773 46.5951 795.116 45.252 796.773 45.252H800.47L800.479 45.2463L800.479 45.252H801.859C801.877 45.2502 801.896 45.2489 801.915 45.248C801.936 45.2469 801.958 45.2463 801.979 45.2463C802.808 45.2463 803.479 44.5747 803.479 43.7463L803.481 43.7482V26.9514C803.481 25.2946 804.824 23.9514 806.481 23.9514H809.73C810.495 23.8826 811.094 23.2401 811.094 22.4575L811.099 22.4659V2.65186H852.863V22.5121C852.891 23.2709 853.481 23.886 854.23 23.9517L857.482 23.9514C859.139 23.9514 860.482 25.2946 860.482 26.9514V43.7515L860.485 43.7463C860.485 44.5595 861.133 45.2216 861.94 45.2456C862.748 45.2216 863.395 44.5595 863.395 43.7463L863.397 43.7498V26.9518C863.397 25.2949 864.74 23.9518 866.397 23.9518L871.444 23.9518C872.211 23.8852 872.812 23.2416 872.812 22.4575L872.825 22.4776V2.65186H899.825V20.9518C899.825 22.6087 898.482 23.9518 896.825 23.9518L891.807 23.9518C891.113 23.9775 890.539 24.4749 890.397 25.1327V42.2518C890.397 43.9086 889.054 45.2518 887.397 45.2518L882.502 45.2519C882.486 45.2526 882.469 45.2529 882.452 45.2529C881.701 45.2529 881.078 45.8052 880.969 46.5259V66.5519H843.189V46.7125C843.168 45.9028 842.505 45.2529 841.69 45.2529C841.67 45.2529 841.649 45.2524 841.629 45.2514H840.19V45.2529L840.187 45.2514H836.482C834.825 45.2514 833.482 43.9083 833.482 42.2514V25.514C833.479 25.5068 833.477 25.4972 833.476 25.485C833.475 25.4799 833.475 25.4742 833.475 25.4681L833.474 25.4536C833.474 24.6276 832.807 23.9574 831.981 23.9536C831.156 23.9574 830.488 24.6275 830.488 25.4536C830.488 25.4816 830.486 25.5015 830.481 25.514Z" fill="#202521"/>
</svg>
