<svg width="592" height="70" viewBox="0 0 592 70" fill="none" xmlns="http://www.w3.org/2000/svg">
<path d="M97.7833 66.5167H120.823V33.5767C120.823 24.0367 125.953 18.0967 136.303 18.0967C146.023 18.0967 151.693 24.1267 151.693 33.5767V66.5167H174.733V30.7867C174.733 12.2467 161.143 0.366699 136.303 0.366699C111.463 0.366699 97.7833 12.4267 97.7833 31.0567V66.5167Z" fill="#202521"/>
<path d="M244.143 51.0365H199.773V41.4065H241.983V27.1865H199.773V18.0965H243.513V2.61646H176.733V66.5165H244.143V51.0365Z" fill="#202521"/>
<path d="M268.431 2.61646H245.391V38.0765C245.391 56.7065 259.071 68.7665 283.911 68.7665C308.751 68.7665 322.341 56.8865 322.341 38.3465V2.61646H299.301V35.5565C299.301 45.0065 293.631 51.0365 283.911 51.0365C273.561 51.0365 268.431 45.0965 268.431 35.5565V2.61646Z" fill="#202521"/>
<path fill-rule="evenodd" clip-rule="evenodd" d="M325.768 66.5165V2.61646H359.878L371.308 35.1065C371.448 35.5049 371.587 35.8942 371.724 36.2754C372.633 38.821 373.413 41.003 373.648 43.1165H373.828C374.063 40.9996 374.845 38.7461 375.756 36.118C375.891 35.7293 376.029 35.3324 376.168 34.9265L387.148 2.61646H422.158V65.0763L451.188 2.61646H481.068L510.134 65.1519V2.61646H553.064C577.004 2.61646 591.404 13.7765 591.404 33.4865C591.404 53.0165 575.834 66.5165 552.524 66.5165H486.108L481.158 54.3665H451.188L446.238 66.5165H401.098V31.4165C401.098 27.3665 401.548 22.5965 402.358 17.9165H401.908C401.368 20.1665 399.298 26.2865 397.588 30.6065L383.728 66.5165H362.308L349.258 30.7865C347.458 25.8365 346.018 20.9765 345.208 17.9165H344.848C345.658 22.1465 345.748 27.0965 345.748 31.4165V66.5165H325.768ZM475.578 40.5065H456.768L461.268 29.4365C463.788 23.4065 465.228 19.8065 466.038 15.6665H466.308C467.028 19.8065 468.468 23.4065 471.078 29.4365L475.578 40.5065ZM533.174 51.5765H548.744C560.174 51.5765 567.104 44.7365 567.104 33.9365C567.104 23.4965 559.904 17.4665 549.284 17.4665H533.174V51.5765Z" fill="#202521"/>
<path d="M35.0551 23.9468C35.0591 23.7972 35.0611 23.646 35.0611 23.493C35.0611 23.4286 35.0597 23.3645 35.0568 23.3008C35.0643 22.7472 35.1044 22.2015 35.1752 21.6655L35.15 21.6655C49.3972 21.6655 52.0267 23.3008 53.307 28.1579C54.479 32.6042 57.0062 34.1595 63.9041 34.1595C71.5838 34.1595 70.7597 26.214 64.8103 20.2646C61.463 16.9173 52.6235 13.3197 42.9051 13.3197C37.0158 13.3197 37.0096 13.3239 37.0029 13.3248C36.9986 13.3253 36.9941 13.3244 35.3726 13.3199C35.3726 11.8335 39.1998 9.67264 44.9766 9.67264C50.1624 9.73435 50.171 9.73366 50.3693 9.7179C50.5632 9.70248 50.9387 9.67264 56.5175 9.67264C67.8 9.67264 77.7325 17.9106 77.7325 28.1579V47.4947C77.7325 55.1319 71.5413 61.323 63.9041 61.323L26.7374 61.323C22.4141 61.323 18.9095 57.8184 18.9095 53.4951C18.9095 51.3119 19.8032 49.3374 21.2448 47.9176H21.4197V47.7506C22.8159 46.4576 24.6843 45.6672 26.7374 45.6672H56.5175C57.2231 45.6672 57.7952 46.2392 57.7952 46.9449V48.0444C57.7952 48.7502 57.2231 49.3222 56.5175 49.3222L26.7436 49.3222C24.439 49.3222 22.5707 51.1905 22.5707 53.4951C22.5707 55.7997 24.439 57.668 26.7436 57.668L63.9041 57.668C67.9533 57.668 73.5402 54.8295 73.5402 48.0444V46.9449C73.5402 41.63 68.7599 37.3214 63.9041 37.3214H26.7374C9.36465 37.3214 0.995521 45.6715 0.995521 53.4972C0.995521 61.323 9.69501 69.6688 26.7374 69.6688L63.9041 69.6688C77.7325 69.6688 95.4911 61.323 95.4911 47.4947V28.1579C95.4911 15.5959 77.7325 1.31885 56.5175 1.31885C51.6713 1.31893 51.6128 1.33755 51.5789 1.34834C51.5411 1.36036 51.5339 1.36267 44.9766 1.31885C28.815 1.31885 21.147 9.43678 21.147 13.0838C16.988 13.0834 10.4728 13.3184 3.80932 15.5959C1.62854 16.3413 0.464908 18.7134 1.21027 20.8942C1.95562 23.0749 6.32772 24.2386 8.5085 23.4932C13.7218 21.7114 16.8594 21.4302 21.147 21.4296C21.1154 21.9054 21.1245 22.2219 21.135 22.5862C21.1411 22.7956 21.1475 23.0207 21.147 23.3008C21.1092 24.3543 20.1982 25.1655 18.8734 25.3735C18.3564 25.4546 17.8606 25.5416 17.2971 25.6405C16.4168 25.7949 15.3711 25.9783 13.8204 26.214C12.1566 26.4669 10.4184 27.118 8.288 27.916C6.98908 28.4026 5.54438 28.9437 3.88188 29.4825C1.68951 30.1931 0.488242 32.5463 1.19877 34.7387C1.9093 36.9311 6.26256 38.1323 8.45493 37.4218C9.77147 36.9951 10.8104 36.6414 11.6741 36.3473C13.6476 35.6753 14.7069 35.3146 16.0747 35.1067C18.0249 34.8102 22.8871 34.1595 26.1789 34.1595L26.1901 34.1595C26.2343 34.1598 26.2832 34.1595 26.3365 34.1584C26.3768 34.1576 26.4198 34.1592 26.4653 34.1608C26.5401 34.1636 26.6218 34.1667 26.7098 34.1595C26.8836 34.1453 27.085 34.1071 27.3086 34.0648C27.3486 34.0572 27.3894 34.0494 27.4309 34.0417C27.5708 34.017 27.7199 33.9871 27.8767 33.9508C28.6998 33.7606 29.806 33.3796 30.9244 32.6042C33.1591 31.0548 34.7411 28.4388 35.0179 24.6912C35.0422 24.5096 35.0548 24.3243 35.055 24.1361L35.0551 23.9468Z" fill="#202521"/>
</svg>
