<svg width="1129" height="70" viewBox="0 0 1129 70" fill="none" xmlns="http://www.w3.org/2000/svg">
<path fill-rule="evenodd" clip-rule="evenodd" d="M238.441 35.1189C238.441 56.0889 255.271 69.3189 281.821 69.3189C308.281 69.3189 325.111 56.0889 325.111 35.1189C325.111 14.1489 308.281 0.918945 281.821 0.918945C255.271 0.918945 238.441 14.1489 238.441 35.1189ZM300.811 35.1189C300.811 45.6489 293.341 52.5789 281.821 52.5789C270.301 52.5789 262.741 45.6489 262.741 35.1189C262.741 24.5889 270.301 17.5689 281.821 17.5689C293.341 17.5689 300.811 24.5889 300.811 35.1189Z" fill="#202521"/>
<path fill-rule="evenodd" clip-rule="evenodd" d="M364.034 46.1889L377.534 67.0689H402.914L387.434 43.4889C397.424 39.5289 400.754 31.3389 400.754 24.1389C400.754 13.7889 394.364 3.16894 372.314 3.16894H327.584V67.0689H350.624V46.1889H364.034ZM350.624 32.4189V17.8389H366.914C374.114 17.8389 376.454 21.0789 376.454 24.9489C376.454 28.9989 374.204 32.4189 366.824 32.4189H350.624Z" fill="#202521"/>
<path d="M437.265 41.1489L456.435 67.0689H482.715L454.185 28.1889L455.805 27.1089L481.815 3.16894H454.275L426.735 28.8189V3.16894H403.695V67.0689H426.735V51.1389L437.265 41.1489Z" fill="#202521"/>
<path d="M484.619 67.0689H507.659V3.16894H484.619V67.0689Z" fill="#202521"/>
<path d="M535.559 3.16894H511.709V67.0689H532.589V29.1789H533.039C533.939 31.4289 536.999 35.3889 538.529 37.2789L565.889 67.0689H588.389V3.16894H567.599V40.8789H567.149C565.91 38.3177 564.215 36.1357 562.275 33.6367C562.101 33.4135 561.926 33.1877 561.749 32.9589L535.559 3.16894Z" fill="#202521"/>
<path d="M589.83 36.1989C589.83 55.0089 603.15 69.3189 626.28 69.3189C643.11 69.3189 651.03 62.0289 654.09 56.4489L654.9 67.0689H672.45V30.2589H629.79V43.6689H650.85V43.7589C650.13 48.5289 644.1 53.8389 632.58 53.8389C620.52 53.8389 614.13 46.6389 614.13 35.9289C614.13 24.4089 620.34 17.1189 632.4 17.1189C641.13 17.1189 645.54 20.9889 647.61 25.9389L672.63 21.8889C668.85 8.74895 653.28 0.918945 632.85 0.918945C606.12 0.918945 589.83 16.3089 589.83 36.1989Z" fill="#202521"/>
<path d="M121.793 3.17685L143.573 67.0769H169.403L181.823 31.0769L181.853 30.9768C182.386 29.2003 182.996 27.1669 183.173 25.0469H183.623C183.713 27.2069 184.343 29.2769 184.973 31.0769L197.303 67.0769H223.133L244.913 3.17685H221.783L211.523 39.0869C211.5 39.1736 211.476 39.2602 211.453 39.3467C210.847 41.5937 210.263 43.7603 210.263 45.9269H209.813C209.633 43.6769 208.733 41.2469 207.923 39.0869L195.503 3.17685H171.203L158.783 39.0869C157.973 41.2469 157.073 43.6769 156.893 45.9269H156.443C156.443 43.7603 155.859 41.5938 155.253 39.3469C155.23 39.2603 155.206 39.1737 155.183 39.0869L144.923 3.17685H121.793Z" fill="#202521"/>
<path fill-rule="evenodd" clip-rule="evenodd" d="M769.792 35.1189C769.792 56.0889 786.622 69.3189 813.172 69.3189C839.632 69.3189 856.461 56.0889 856.461 35.1189C856.461 14.1489 839.632 0.918945 813.172 0.918945C786.622 0.918945 769.792 14.1489 769.792 35.1189ZM832.161 35.1189C832.161 45.6489 824.692 52.5789 813.172 52.5789C801.652 52.5789 794.091 45.6489 794.091 35.1189C794.091 24.5889 801.652 17.5689 813.172 17.5689C824.692 17.5689 832.161 24.5889 832.161 35.1189Z" fill="#202521"/>
<path d="M893.044 3.16894H858.934V67.0689H878.914V31.9689C878.914 27.6489 878.824 22.6989 878.014 18.4689H878.374C879.184 21.5289 880.624 26.3889 882.424 31.3389L895.474 67.0689H916.894L930.754 31.1589C932.464 26.8389 934.534 20.7189 935.074 18.4689H935.524C934.714 23.1489 934.264 27.9189 934.264 31.9689V67.0689H955.324V3.16894H920.314L909.334 35.4789C909.195 35.8849 909.057 36.282 908.922 36.6708C908.011 39.2988 907.229 41.5521 906.994 43.6689H906.814C906.579 41.5553 905.8 39.3735 904.89 36.8275C904.754 36.4465 904.615 36.0573 904.474 35.6589L893.044 3.16894Z" fill="#202521"/>
<path fill-rule="evenodd" clip-rule="evenodd" d="M1016.42 54.9189L1021.37 67.0689H1046.03L1016.33 3.16894H986.455L956.755 67.0689H981.505L986.455 54.9189H1016.42ZM1010.84 41.0589H992.035L996.535 29.9889C999.055 23.9589 1000.49 20.3589 1001.3 16.2189H1001.57C1002.29 20.3589 1003.73 23.9589 1006.34 29.9889L1010.84 41.0589Z" fill="#202521"/>
<path fill-rule="evenodd" clip-rule="evenodd" d="M1090.43 3.16894H1047.5V67.0689H1089.89C1113.2 67.0689 1128.77 53.5689 1128.77 34.0389C1128.77 14.3289 1114.37 3.16894 1090.43 3.16894ZM1086.11 52.1289H1070.54V18.0189H1086.65C1097.27 18.0189 1104.47 24.0489 1104.47 34.4889C1104.47 45.2889 1097.54 52.1289 1086.11 52.1289Z" fill="#202521"/>
<path d="M695.472 3.14648L676.414 58.7692L676.435 58.7724L673.576 67.0918H695.262L696.997 62.0027L697.041 62.0096L706.2 35.0241C706.752 33.4891 707.236 32.0481 707.684 30.6712L708.828 27.3169L708.752 27.3051L708.789 27.1893C709.098 26.2016 709.401 25.2355 709.71 24.2786L709.977 24.3205C710.606 26.6969 711.862 29.7185 713.807 33.5771L730.55 67.0918H753.391L763.252 38.3125L763.326 38.3242L775.309 3.14648H753.648L743.452 32.7679L743.104 33.8329L742.675 35.0801L742.695 35.0832L739.942 43.5134L739.675 43.4715C738.863 40.5197 738.328 38.7048 735.915 33.7704L721.404 3.14648H695.472Z" fill="#202521"/>
<path d="M39.6842 3.16933V15.7693H27.7142V67.0693H12.7742V15.7693H0.804199V3.16933H39.6842Z" fill="#202521"/>
<path d="M82.783 3.16933V67.0693H67.753V40.3393H58.393V67.0693H43.3629V3.16933H58.393V28.9093H67.753V3.16933H82.783Z" fill="#202521"/>
<path d="M102.118 55.8193H118.948V67.0693H87.0876V3.16933H118.318V14.4193H102.118V28.5493H117.148V39.7993H102.118V55.8193Z" fill="#202521"/>
</svg>
