<svg width="22" height="22" viewBox="0 0 22 22" fill="none" xmlns="http://www.w3.org/2000/svg">
<path fill-rule="evenodd" clip-rule="evenodd" d="M11.0495 3.1C6.6591 3.1 3.1 6.6591 3.1 11.0495C3.1 15.4398 6.6591 18.999 11.0495 18.999C15.4398 18.999 18.999 15.4398 18.999 11.0495C18.999 6.6591 15.4398 3.1 11.0495 3.1ZM1 11.0495C1 5.4993 5.4993 1 11.0495 1C16.5996 1 21.0989 5.4993 21.0989 11.0495C21.0989 16.5996 16.5996 21.0989 11.0495 21.0989C5.4993 21.0989 1 16.5996 1 11.0495Z" fill="black"/>
<path fill-rule="evenodd" clip-rule="evenodd" d="M12.816 8.8019C11.8801 7.86603 10.3628 7.86603 9.4269 8.8019C8.49103 9.73776 8.49103 11.2551 9.4269 12.191C10.1136 12.8777 10.7187 13.7197 11.1639 14.4074C11.1679 14.4135 11.1725 14.418 11.1806 14.4225C11.1904 14.4279 11.2038 14.432 11.2175 14.4326C11.2196 14.4327 11.2214 14.4327 11.2231 14.4326L12.6491 12.4012C12.7194 12.3012 12.7927 12.2165 12.8586 12.1472C13.7516 11.2088 13.7374 9.72333 12.816 8.8019ZM7.94197 7.31697C9.69793 5.56101 12.5449 5.56101 14.3009 7.31697C16.0301 9.04617 16.0564 11.833 14.3799 13.5948C14.3733 13.6018 14.3693 13.6064 14.3673 13.6088C14.367 13.6092 14.3667 13.6095 14.3665 13.6097L12.9325 15.6525C12.0333 16.9335 10.177 16.747 9.40109 15.5486C8.99058 14.9145 8.47808 14.212 7.94197 13.6759C6.18601 11.9199 6.18601 9.07293 7.94197 7.31697Z" fill="#101011"/>
</svg>
