<svg width="22" height="22" viewBox="0 0 22 22" fill="none" xmlns="http://www.w3.org/2000/svg">
<path fill-rule="evenodd" clip-rule="evenodd" d="M3.04922 11.0495C3.04922 6.6591 6.60832 3.1 10.9987 3.1C15.3891 3.1 18.9482 6.6591 18.9482 11.0495C18.9482 15.4398 15.3891 18.999 10.9987 18.999C6.60832 18.999 3.04922 15.4398 3.04922 11.0495ZM10.9987 1C5.44852 1 0.949219 5.4993 0.949219 11.0495C0.949219 16.5996 5.44852 21.0989 10.9987 21.0989C16.5489 21.0989 21.0482 16.5996 21.0482 11.0495C21.0482 5.4993 16.5489 1 10.9987 1ZM16.4082 9.8393C16.4082 8.05482 14.9616 6.60822 13.1771 6.60822C12.3576 6.60822 11.5853 6.91825 11 7.45176C10.4147 6.91825 9.64235 6.60822 8.82286 6.60822C7.03838 6.60822 5.59178 8.05482 5.59178 9.8393V10.4126C5.59178 11.5154 6.07036 12.564 6.90352 13.2866L10.312 16.2428L11 16.8395L11.688 16.2428L15.0965 13.2866C15.9296 12.564 16.4082 11.5154 16.4082 10.4126V9.8393ZM13.1771 8.70822C13.8018 8.70822 14.3082 9.21462 14.3082 9.8393V10.4126C14.3082 10.9067 14.0938 11.3764 13.7206 11.7001L11 14.0597L8.27944 11.7001C7.90618 11.3764 7.69178 10.9067 7.69178 10.4126V9.8393C7.69178 9.21462 8.19818 8.70822 8.82286 8.70822C9.25128 8.70822 9.64293 8.95027 9.83453 9.33347L10.0609 9.78611C10.2387 10.1418 10.6023 10.3665 11 10.3665C11.3977 10.3665 11.7613 10.1418 11.9391 9.78611L12.1655 9.33347C12.3571 8.95027 12.7487 8.70822 13.1771 8.70822Z" fill="black"/>
</svg>
