<svg width="19" height="18" viewBox="0 0 19 18" fill="none" xmlns="http://www.w3.org/2000/svg">
<path d="M9.98601 9.07949C9.98601 8.35955 9.98602 7.23597 9.98602 7.23594C9.98602 7.23594 9.98602 7.23594 9.98602 7.23594V5.54981M9.98601 9.07949C10.675 9.07949 11.7502 9.07949 11.7502 9.07949C11.7502 9.07949 11.7502 9.07949 11.7502 9.07949H13.4368M9.98601 9.07949C9.29711 9.07949 8.91087 9.07949 8.22197 9.07949H6.54523M9.98601 9.07949C9.98601 9.73739 9.98601 10.7642 9.98601 10.7642C9.98601 10.7642 9.98601 10.7642 9.98601 10.7642L9.98602 12.451M6.54523 9.07949C6.54523 9.07949 5.72588 9.15003 5.60964 9.2041C3.84225 10.0263 3.43047 12.3554 4.80881 13.7337L5.25242 14.1773C6.63076 15.5557 8.95988 15.1439 9.78205 13.3765C9.83613 13.2603 9.87402 13.1372 9.89467 13.0106L9.98602 12.451M6.54523 9.07949C6.54523 9.07949 5.72576 8.84997 5.60952 8.7959C3.84213 7.97373 3.43034 5.64462 4.80868 4.26628L5.2523 3.82267C6.63064 2.44433 8.95975 2.85612 9.78193 4.6235C9.836 4.73974 9.87389 4.86284 9.89455 4.98937L9.98602 5.54981M9.98602 12.451L10.0773 13.0105C10.098 13.137 10.1359 13.2601 10.19 13.3764C11.0121 15.1437 13.3413 15.5555 14.7196 14.1772L15.1632 13.7336C16.5416 12.3552 16.1298 10.0261 14.3624 9.20397C14.2461 9.1499 14.123 9.11201 13.9965 9.09136L13.4368 9.07949M13.4368 9.07949L13.9966 8.90863C14.1232 8.88798 14.2463 8.85009 14.3625 8.79602C16.1299 7.97385 16.5417 5.64474 15.1633 4.26641L14.7197 3.82279C13.3414 2.44445 11.0123 2.85624 10.1901 4.62362C10.136 4.73986 10.0981 4.86297 10.0775 4.98949L9.98602 5.54981" stroke="white"/>
<path d="M9.68604 9.07948C9.85172 9.07948 9.98607 8.94525 9.98607 8.77956C9.98607 8.08474 9.98608 7.23596 9.98608 7.23593C9.98608 7.23593 9.98608 7.23593 9.98608 7.23593V5.5498L9.8946 4.98937C9.87395 4.86284 9.83606 4.73974 9.78199 4.6235C8.95982 2.85612 6.63071 2.44434 5.25238 3.82267L4.80877 4.26628C3.43043 5.64461 3.84222 7.97372 5.6096 8.79589V8.79589C6.19801 9.06961 6.87436 9.07948 7.52332 9.07948H8.22204C8.80444 9.07948 9.17052 9.07948 9.68604 9.07948Z" fill="white" stroke="white"/>
<path d="M10.2859 9.07957C10.1202 9.07957 9.98604 8.94534 9.98604 8.77966C9.98604 8.08484 9.98604 7.23606 9.98604 7.23602C9.98604 7.23602 9.98604 7.23602 9.98604 7.23602V5.5499L10.0775 4.98958C10.0981 4.86306 10.136 4.73995 10.1901 4.62371C11.0123 2.85633 13.3414 2.44455 14.7197 3.82288L15.1633 4.2665C16.5417 5.64483 16.1299 7.97393 14.3625 8.7961C14.2463 8.85018 14.1232 8.88807 13.9966 8.90872L13.4368 9.07957H11.7502C11.7502 9.07957 11.7502 9.07957 11.7502 9.07957C11.7502 9.07957 10.9484 9.07957 10.2859 9.07957Z" fill="white" stroke="white"/>
<path d="M9.98604 9.37937C9.98604 9.21368 10.1202 9.07949 10.2859 9.07949C10.9484 9.07949 11.7502 9.07949 11.7502 9.07949C11.7502 9.07949 11.7502 9.07949 11.7502 9.07949H13.4368L13.9965 9.09136C14.123 9.11201 14.2461 9.1499 14.3624 9.20398C16.1298 10.0261 16.5415 12.3553 15.1632 13.7336L14.7196 14.1772C13.3413 15.5555 11.0122 15.1437 10.19 13.3764C10.1359 13.2601 10.098 13.137 10.0774 13.0105L9.98604 12.451L9.98604 10.7642C9.98604 10.7642 9.98604 10.7642 9.98604 10.7642C9.98604 10.7642 9.98604 10.0093 9.98604 9.37937Z" stroke="white"/>
<path d="M9.98594 9.37937C9.98594 9.21368 9.8516 9.07949 9.68591 9.07949C9.17039 9.07949 8.80431 9.07949 8.22191 9.07949H7.49032C6.86052 9.07949 6.18064 8.93846 5.6096 9.20411V9.20411C3.84222 10.0263 3.43043 12.3554 4.80877 13.7337L5.25238 14.1773C6.63071 15.5557 8.95982 15.1439 9.78199 13.3765C9.83606 13.2603 9.87395 13.1372 9.8946 13.0106L9.98595 12.451L9.98594 10.7642C9.98594 10.7642 9.98594 10.7642 9.98594 10.7642C9.98594 10.7642 9.98594 10.0093 9.98594 9.37937Z" fill="white" stroke="white"/>
</svg>
