<svg width="301" height="218" viewBox="0 0 301 218" fill="none" xmlns="http://www.w3.org/2000/svg">
<path fill-rule="evenodd" clip-rule="evenodd" d="M108.347 66.1625L108.23 74.6046C108.23 85.6034 110.848 104.644 81.9584 104.644C57.1229 104.644 39.3128 109.841 24.394 114.676C9.47517 119.511 0.170287 116.722 0.170287 104.165C0.0653642 99.2049 2.22954 94.5456 9.21505 90.8897C29.8362 82.201 48.129 78.89 58.4917 76.7692C64.2219 75.5965 64.2219 74.6046 64.2219 70.1934C64.2266 67.7582 64.064 68.5393 64.2219 66.1625C58.4917 66.1625 39.9162 68.6269 28.4458 72.5473C11.213 78.4372 0.0918922 77.9962 0.0918922 62.9082C0.072798 58.2005 2.92177 54.3509 9.21505 51.4737C30.8645 41.5759 58.4917 38.5273 64.2219 38.5273C64.2219 30.3656 81.9585 0.451675 139.826 0.451675H173.204C274.691 0.451675 300.092 38.5273 300.092 85.6034V146.953C300.092 190.826 271.353 217.304 199.877 217.304L81.9584 217.304C9.21503 217.304 0.287777 190.826 0.287777 165.997C0.287777 136.731 26.8403 114.676 81.9584 114.676C137.077 114.676 199.877 114.676 199.877 114.676C215.282 114.676 230.449 125.426 230.449 146.953C230.449 168.479 212.723 179.229 199.877 179.229L81.9781 179.229C74.6662 179.229 68.7388 173.302 68.7388 165.99C68.7388 158.678 74.6662 152.751 81.9781 152.751L176.441 152.751C180.159 152.751 182.992 151.234 182.992 146.953C182.992 142.672 180.159 141.155 176.441 141.155C176.441 141.155 96.167 141.155 81.9584 141.155C67.7499 141.155 57.1229 152.274 57.1229 165.99C57.1229 179.706 68.242 190.826 81.9584 190.826L199.877 190.826C224.107 190.826 243.749 171.183 243.749 146.953V85.6034C243.749 45.7482 208.999 26.9556 173.204 26.9556C137.408 26.9556 172.371 27.3428 139.826 26.9556C121.498 26.9556 109.355 33.8113 109.355 38.5273C122.413 38.5631 139.826 38.5264 139.826 38.5264C158.367 38.5264 174.292 38.5273 199.877 51.4737C228.904 66.1625 224.242 104.644 199.877 104.644C177.992 104.644 170.069 85.4814 158.367 76.7692C144.122 66.1625 139.524 66.1625 108.347 66.1625Z" fill="#FCFBFB"/>
</svg>
