<svg width="19" height="19" viewBox="0 0 19 19" fill="none" xmlns="http://www.w3.org/2000/svg">
<path fill-rule="evenodd" clip-rule="evenodd" d="M4.88764 13.4704L3.82935 4.71328H12.3076L11.1766 13.4704H4.88764ZM3.77294 2.61328C2.54323 2.61328 1.59021 3.68841 1.73775 4.90923L2.80813 13.7664C2.93255 14.7959 3.80626 15.5704 4.84332 15.5704H11.2206C12.2513 15.5704 13.1217 14.8052 13.2537 13.783L13.4903 11.9512H14.691C16.3293 11.9512 17.6941 10.6954 17.8301 9.06279L17.9325 7.83422C18.0856 5.99771 16.6363 4.42263 14.7934 4.42263H14.4011C14.2836 3.41725 13.4282 2.61328 12.3645 2.61328H3.77294ZM14.1914 6.52263L13.7615 9.8512H14.691C15.2371 9.8512 15.692 9.4326 15.7374 8.8884L15.8398 7.65983C15.8908 7.04766 15.4077 6.52263 14.7934 6.52263H14.1914Z" fill="black"/>
</svg>
