<svg width="19" height="19" viewBox="0 0 19 19" fill="none" xmlns="http://www.w3.org/2000/svg">
<path fill-rule="evenodd" clip-rule="evenodd" d="M9.5446 1.71094C10.1245 1.71094 10.5946 2.18104 10.5946 2.76094V3.6657C10.5946 4.2456 10.1245 4.7157 9.5446 4.7157C8.9647 4.7157 8.4946 4.2456 8.4946 3.6657V2.76094C8.4946 2.18104 8.9647 1.71094 9.5446 1.71094ZM6.5288 10.7133C6.61607 9.4605 7.8232 8.28951 9.54516 8.28951C11.2671 8.28951 12.4743 9.4605 12.5615 10.7133H6.5288ZM4.42609 10.7133C4.51105 8.09622 6.88532 6.18951 9.54516 6.18951C12.205 6.18951 14.5793 8.09622 14.6642 10.7133H17.2356C17.8155 10.7133 18.2856 11.1834 18.2856 11.7633C18.2856 12.3432 17.8155 12.8133 17.2356 12.8133H1.85469C1.27479 12.8133 0.804688 12.3432 0.804688 11.7633C0.804688 11.1834 1.27479 10.7133 1.85469 10.7133H4.42609ZM4.42374 15.3824C4.42374 14.8025 4.89384 14.3324 5.47374 14.3324H13.6166C14.1965 14.3324 14.6666 14.8025 14.6666 15.3824C14.6666 15.9623 14.1965 16.4324 13.6166 16.4324H5.47374C4.89384 16.4324 4.42374 15.9623 4.42374 15.3824ZM16.3335 4.52336C16.7435 4.93341 16.7435 5.59823 16.3335 6.00828L15.6937 6.64805C15.2837 7.0581 14.6188 7.0581 14.2088 6.64805C13.7987 6.23799 13.7987 5.57317 14.2088 5.16312L14.8486 4.52336C15.2586 4.11331 15.9234 4.11331 16.3335 4.52336ZM2.75885 4.52304C3.16891 4.11299 3.83373 4.11299 4.24378 4.52304L4.88354 5.1628C5.29359 5.57285 5.29359 6.23767 4.88354 6.64772C4.47349 7.05778 3.80867 7.05778 3.39862 6.64772L2.75885 6.00796C2.3488 5.59791 2.3488 4.93309 2.75885 4.52304Z" fill="black"/>
</svg>
