<svg width="19" height="19" viewBox="0 0 19 19" fill="none" xmlns="http://www.w3.org/2000/svg">
<path fill-rule="evenodd" clip-rule="evenodd" d="M3.88985 1.71094C3.5812 1.71094 3.28818 1.84674 3.08868 2.08224C2.88918 2.31775 2.8034 2.62911 2.85414 2.93356L4.66366 13.7907C4.74804 14.297 5.18609 14.6681 5.69938 14.6681H12.9375C13.4508 14.6681 13.8888 14.297 13.9732 13.7907L15.7827 2.93356C15.8334 2.62911 15.7477 2.31775 15.5482 2.08224C15.3487 1.84674 15.0556 1.71094 14.747 1.71094H3.88985ZM6.58886 12.5681L5.12933 3.81094H13.5075L12.048 12.5681H6.58886ZM5.69938 15.3283C5.11948 15.3283 4.64938 15.7984 4.64938 16.3783C4.64938 16.9582 5.11948 17.4283 5.69938 17.4283H12.9375C13.5174 17.4283 13.9875 16.9582 13.9875 16.3783C13.9875 15.7984 13.5174 15.3283 12.9375 15.3283H5.69938Z" fill="black"/>
</svg>
