<svg width="851" height="71" viewBox="0 0 851 71" fill="none" xmlns="http://www.w3.org/2000/svg">
<path fill-rule="evenodd" clip-rule="evenodd" d="M341.129 67.8896H364.001V24.7249H364.002C363.999 24.6619 363.998 24.5987 363.998 24.5351C363.998 21.7391 366.265 19.4724 369.061 19.4724C371.857 19.4724 374.123 21.7391 374.123 24.5351C374.123 24.5987 374.122 24.6619 374.12 24.7249H374.121V45.6961C374.121 59.9843 382.744 70.1414 399.271 70.1414C417.961 70.1414 426.813 65.5705 426.813 47.3607V3.99738H404.087V47.0227C404.093 47.1286 404.097 47.2355 404.097 47.3431C404.097 50.1404 401.829 52.4081 399.032 52.4081C396.24 52.4081 393.976 50.1499 393.967 47.3607H393.965V25.3191C393.965 12.5025 387.713 0.873779 369.287 0.873779C350.861 0.873779 341.129 3.99738 341.129 24.7249V67.8896ZM502.521 3.98974H525.561V36.9297C525.561 46.4697 530.691 52.4097 541.041 52.4097C550.761 52.4097 556.431 46.3797 556.431 36.9297V3.98974H579.471V39.7197C579.471 58.2597 565.881 70.1397 541.041 70.1397C516.201 70.1397 502.521 58.0797 502.521 39.4497V3.98974ZM768.977 3.9895V67.6716L739.378 3.9895H709.498L679.88 67.7122V3.9895H644.87L633.89 36.2995C633.751 36.7056 633.613 37.1027 633.478 37.4916C632.567 40.1195 631.785 42.3728 631.55 44.4895H631.37C631.135 42.3759 630.356 40.1943 629.446 37.6484C629.31 37.2673 629.171 36.878 629.03 36.4795L617.6 3.9895H583.49V67.8895H603.47V32.7895C603.47 28.4695 603.38 23.5195 602.57 19.2895H602.93C603.74 22.3495 605.18 27.2095 606.98 32.1595L620.03 67.8895H641.45L655.31 31.9795C657.02 27.6595 659.09 21.5395 659.63 19.2895H660.08C659.27 23.9695 658.82 28.7395 658.82 32.7895V67.8895H679.798H679.88H704.548L709.498 55.7395H739.468L744.418 67.8895H768.977H769.078H811.367C834.677 67.8895 850.247 54.3895 850.247 34.8595C850.247 15.1495 835.847 3.9895 811.907 3.9895H768.977ZM807.587 52.9495H792.017V18.8395H808.127C818.747 18.8395 825.947 24.8695 825.947 35.3095C825.947 46.1095 819.017 52.9495 807.587 52.9495ZM454.776 52.4097H499.146V67.8897H431.736V3.98974H498.516V19.4697H454.776V28.5597H496.986V42.7797H454.776V52.4097ZM733.888 41.8795H715.078L719.578 30.8095C722.098 24.7795 723.538 21.1795 724.348 17.0395H724.618C725.338 21.1795 726.778 24.7795 729.388 30.8095L733.888 41.8795ZM155.812 21.5394H180.446V67.8894H203.486V43.3194H234.266V67.8894H257.216V3.9894H234.266V28.0194H203.486V3.9894H180.472H180.446H108.292V21.5394H132.862V67.8894H155.812V21.5394ZM284.498 52.4094H328.238V67.8894H261.458V3.9894H328.238V19.4694H284.498V28.5594H326.708V42.7794H284.498V52.4094Z" fill="#0B3520"/>
<path fill-rule="evenodd" clip-rule="evenodd" d="M34.0647 22.3133L34.0284 24.921C34.0284 28.3184 34.8371 34.1999 25.9135 34.1999C18.2421 34.1999 12.7408 35.805 8.13261 37.2985C3.52438 38.792 0.650221 37.9304 0.650221 34.0519C0.617812 32.5197 1.2863 31.0805 3.44403 29.9512C9.81365 27.2674 15.464 26.2447 18.6649 25.5896C20.4349 25.2274 20.4349 24.921 20.4349 23.5584C20.4364 22.8062 20.3862 23.0475 20.4349 22.3133C18.6649 22.3133 12.9272 23.0745 9.38417 24.2855C4.06116 26.1048 0.626006 25.9686 0.626006 21.3081C0.620108 19.854 1.50012 18.6649 3.44403 17.7761C10.1313 14.7188 18.6649 13.7772 20.4349 13.7772C20.4349 11.2561 25.9135 2.01611 43.7879 2.01611H54.0979C85.4461 2.01611 93.2921 13.7772 93.2921 28.3184V47.2684C93.2921 60.8201 84.415 68.999 62.3369 68.999L25.9135 68.999C3.44403 68.999 0.686512 60.8201 0.686512 53.1509C0.686512 44.1112 8.88824 37.2985 25.9135 37.2985C42.9388 37.2985 62.3369 37.2985 62.3369 37.2985C67.0956 37.2985 71.7802 40.6191 71.7802 47.2684C71.7802 53.9177 66.3051 57.2382 62.3369 57.2382L25.9196 57.2382C23.661 57.2382 21.8301 55.4073 21.8301 53.1488C21.8301 50.8902 23.6611 49.0593 25.9196 49.0593L55.0979 49.0593C56.2464 49.0593 57.1216 48.5908 57.1216 47.2684C57.1216 45.946 56.2464 45.4774 55.0979 45.4774C55.0979 45.4774 30.3023 45.4774 25.9135 45.4774C21.5247 45.4774 18.2421 48.9121 18.2421 53.1488C18.2421 57.3856 21.6767 60.8201 25.9135 60.8201L62.3369 60.8201C69.8213 60.8201 75.8886 54.7528 75.8886 47.2684V28.3184C75.8886 16.0076 65.1548 10.2028 54.0979 10.2028C43.0411 10.2028 53.8407 10.3224 43.7879 10.2028C38.1267 10.2028 34.376 12.3205 34.376 13.7772C38.4093 13.7882 43.7879 13.7769 43.7879 13.7769C49.5153 13.7769 54.4342 13.7772 62.3369 17.7761C71.3032 22.3133 69.8629 34.1999 62.3369 34.1999C55.5769 34.1999 53.1296 28.2807 49.5153 25.5896C45.1149 22.3133 43.6948 22.3133 34.0647 22.3133Z" fill="#0B3520"/>
</svg>
