<svg width="851" height="70" viewBox="0 0 851 70" fill="none" xmlns="http://www.w3.org/2000/svg">
<path fill-rule="evenodd" clip-rule="evenodd" d="M341.129 67.3743H364.001V24.2095H364.002C363.999 24.1466 363.998 24.0833 363.998 24.0197C363.998 21.2237 366.265 18.957 369.061 18.957C371.857 18.957 374.123 21.2237 374.123 24.0197C374.123 24.0833 374.122 24.1466 374.12 24.2095H374.121V45.1807C374.121 59.4689 382.744 69.626 399.271 69.626C417.961 69.626 426.813 65.0551 426.813 46.8453V3.482H404.087V46.5073C404.093 46.6133 404.097 46.7201 404.097 46.8277C404.097 49.625 401.829 51.8927 399.032 51.8927C396.24 51.8927 393.976 49.6345 393.967 46.8453H393.965V24.8037C393.965 11.9871 387.713 0.358398 369.287 0.358398C350.861 0.358398 341.129 3.482 341.129 24.2095V67.3743ZM502.521 3.47436H525.561V36.4144C525.561 45.9544 530.691 51.8944 541.041 51.8944C550.761 51.8944 556.431 45.8644 556.431 36.4144V3.47436H579.471V39.2044C579.471 57.7444 565.881 69.6244 541.041 69.6244C516.201 69.6244 502.521 57.5644 502.521 38.9344V3.47436ZM768.977 3.47412V67.1562L739.378 3.47412H709.498L679.88 67.1968V3.47412H644.87L633.89 35.7841C633.751 36.1902 633.613 36.5873 633.478 36.9762C632.567 39.6041 631.785 41.8574 631.55 43.9741H631.37C631.135 41.8606 630.356 39.6789 629.446 37.1331C629.31 36.7519 629.171 36.3626 629.03 35.9641L617.6 3.47412H583.49V67.3741H603.47V32.2741C603.47 27.9541 603.38 23.0041 602.57 18.7741H602.93C603.74 21.8341 605.18 26.6941 606.98 31.6441L620.03 67.3741H641.45L655.31 31.4641C657.02 27.1441 659.09 21.0241 659.63 18.7741H660.08C659.27 23.4541 658.82 28.2241 658.82 32.2741V67.3741H679.798H679.88H704.548L709.498 55.2241H739.468L744.418 67.3741H768.977H769.078H811.367C834.677 67.3741 850.247 53.8741 850.247 34.3441C850.247 14.6341 835.847 3.47412 811.907 3.47412H768.977ZM807.587 52.4341H792.017V18.3241H808.127C818.747 18.3241 825.947 24.3541 825.947 34.7941C825.947 45.5941 819.017 52.4341 807.587 52.4341ZM454.776 51.8944H499.146V67.3744H431.736V3.47436H498.516V18.9544H454.776V28.0444H496.986V42.2644H454.776V51.8944ZM733.888 41.3641H715.078L719.578 30.2941C722.098 24.2641 723.538 20.6641 724.348 16.5241H724.618C725.338 20.6641 726.778 24.2641 729.388 30.2941L733.888 41.3641ZM155.812 21.024H180.446V67.374H203.486V42.804H234.266V67.374H257.216V3.47402H234.266V27.504H203.486V3.47402H180.472H180.446H108.292V21.024H132.862V67.374H155.812V21.024ZM284.498 51.894H328.238V67.374H261.458V3.47402H328.238V18.954H284.498V28.044H326.708V42.264H284.498V51.894Z" fill="#FCFCFB"/>
<path fill-rule="evenodd" clip-rule="evenodd" d="M34.0647 21.7979L34.0284 24.4056C34.0284 27.803 34.8371 33.6845 25.9135 33.6845C18.2421 33.6845 12.7408 35.2897 8.13261 36.7832C3.52438 38.2766 0.650221 37.4151 0.650221 33.5365C0.617812 32.0043 1.2863 30.5651 3.44403 29.4359C9.81365 26.752 15.464 25.7293 18.6649 25.0742C20.4349 24.712 20.4349 24.4056 20.4349 23.043C20.4364 22.2908 20.3862 22.5321 20.4349 21.7979C18.6649 21.7979 12.9272 22.5592 9.38417 23.7701C4.06116 25.5894 0.626006 25.4532 0.626006 20.7927C0.620108 19.3386 1.50012 18.1495 3.44403 17.2608C10.1313 14.2035 18.6649 13.2618 20.4349 13.2618C20.4349 10.7408 25.9135 1.50073 43.7879 1.50073H54.0979C85.4461 1.50073 93.2921 13.2618 93.2921 27.803V46.753C93.2921 60.3048 84.415 68.4836 62.3369 68.4836L25.9135 68.4836C3.44403 68.4836 0.686512 60.3048 0.686512 52.6355C0.686512 43.5958 8.88824 36.7832 25.9135 36.7832C42.9388 36.7832 62.3369 36.7832 62.3369 36.7832C67.0956 36.7832 71.7802 40.1037 71.7802 46.753C71.7802 53.4023 66.3051 56.7229 62.3369 56.7229L25.9196 56.7228C23.661 56.7228 21.8301 54.8919 21.8301 52.6334C21.8301 50.3748 23.6611 48.5439 25.9196 48.5439L55.0979 48.544C56.2464 48.544 57.1216 48.0754 57.1216 46.753C57.1216 45.4306 56.2464 44.962 55.0979 44.962C55.0979 44.962 30.3023 44.962 25.9135 44.962C21.5247 44.962 18.2421 48.3967 18.2421 52.6334C18.2421 56.8702 21.6767 60.3048 25.9135 60.3048L62.3369 60.3047C69.8213 60.3047 75.8886 54.2374 75.8886 46.753V27.803C75.8886 15.4922 65.1548 9.68744 54.0979 9.68744C43.0411 9.68744 53.8407 9.80706 43.7879 9.68744C38.1267 9.68744 34.376 11.8051 34.376 13.2618C38.4093 13.2729 43.7879 13.2615 43.7879 13.2615C49.5153 13.2615 54.4342 13.2618 62.3369 17.2608C71.3032 21.7979 69.8629 33.6845 62.3369 33.6845C55.5769 33.6845 53.1296 27.7653 49.5153 25.0742C45.1149 21.7979 43.6948 21.7979 34.0647 21.7979Z" fill="#FCFCFB"/>
</svg>
