<svg width="882" height="69" viewBox="0 0 882 69" fill="none" xmlns="http://www.w3.org/2000/svg">
<path fill-rule="evenodd" clip-rule="evenodd" d="M713.632 66.5135H737.672V44.753L768.542 44.7531V66.5135H792.582V30.7835C792.582 12.2435 778.992 0.363525 753.152 0.363525C728.312 0.363525 713.632 12.4235 713.632 31.0535V66.5135ZM768.331 30.5331L737.862 30.533C738.875 22.7881 743.951 18.0935 753.152 18.0935C761.784 18.0935 767.222 22.8494 768.331 30.5331ZM34.5029 23.0835C34.5069 22.9336 34.5089 22.782 34.5089 22.6287C34.5089 22.5641 34.5075 22.4999 34.5046 22.436C34.5121 21.8811 34.5523 21.3341 34.6232 20.7968L34.598 20.7968C48.879 20.7968 51.5148 22.436 52.7982 27.3047C53.973 31.7615 56.5062 33.3205 63.4206 33.3205C71.1184 33.3205 70.2924 25.3562 64.3288 19.3926C60.9736 16.0373 52.113 12.4311 42.3716 12.4311C36.4951 12.4311 36.4622 12.4353 36.4554 12.4362L36.4553 12.4362C36.4537 12.4364 36.4519 12.4364 36.3558 12.4361L36.355 12.4361C36.2025 12.4355 35.8146 12.4341 34.8211 12.4314C34.8211 10.9414 38.6574 8.7754 44.448 8.7754C49.6461 8.83726 49.6547 8.83657 49.8535 8.82077C50.0479 8.80532 50.4242 8.7754 56.0163 8.7754C67.3257 8.7754 77.2818 17.033 77.2818 27.3047V46.6874C77.2818 54.3428 71.0759 60.5487 63.4206 60.5487L26.1654 60.5487C21.8318 60.5487 18.3188 57.0357 18.3188 52.7022C18.3188 50.5138 19.2147 48.5346 20.6597 47.1114H20.835V46.944C22.2345 45.6479 24.1074 44.8556 26.1654 44.8556H56.0163C56.7236 44.8556 57.2971 45.429 57.2971 46.1364V47.2385C57.2971 47.9459 56.7236 48.5193 56.0163 48.5193L26.1716 48.5193C23.8615 48.5193 21.9888 50.392 21.9887 52.7021C21.9887 55.0122 23.8615 56.885 26.1716 56.885L63.4206 56.885C67.4794 56.885 73.0795 54.0397 73.0795 47.2385V46.1364C73.0795 40.8088 68.2879 36.4899 63.4206 36.4899H26.1654C8.75129 36.4899 0.362246 44.8599 0.362246 52.7043C0.362246 60.5487 9.08243 68.9144 26.1654 68.9144L63.4206 68.9144C77.2818 68.9144 95.0827 60.5487 95.0827 46.6874V39.5792V27.3047C95.0827 14.7128 77.2818 0.401733 56.0163 0.401733C51.1586 0.401818 51.1 0.420483 51.066 0.4313C51.0281 0.443349 51.0209 0.445664 44.448 0.401733C28.248 0.401733 20.5617 8.53898 20.5617 12.1947C16.3928 12.1942 9.86211 12.4299 3.18274 14.7128C0.996775 15.4599 -0.16963 17.8377 0.577501 20.0236C1.32463 22.2096 5.70713 23.376 7.8931 22.6289C13.1188 20.8428 16.2639 20.561 20.5617 20.5604C20.53 21.0372 20.5391 21.3546 20.5497 21.7197V21.7197V21.7198V21.7198V21.7198V21.7199V21.7199V21.7199C20.5557 21.9297 20.5622 22.1553 20.5617 22.436C20.5238 23.492 19.6106 24.3051 18.2827 24.5136C17.7645 24.595 17.2676 24.6821 16.7028 24.7812L16.7026 24.7812H16.7026C15.8202 24.936 14.772 25.1199 13.2177 25.3562C11.5499 25.6097 9.80755 26.2623 7.67208 27.0622L7.67199 27.0623L7.6718 27.0623C6.36987 27.55 4.92181 28.0924 3.25548 28.6324C1.05789 29.3447 -0.14624 31.7035 0.565978 33.9011C1.2782 36.0987 5.64182 37.3028 7.83941 36.5906C9.15907 36.1629 10.2004 35.8083 11.0663 35.5135C13.0444 34.8399 14.1063 34.4783 15.4773 34.2699C17.4322 33.9728 22.3059 33.3205 25.6056 33.3205L25.6168 33.3206C25.661 33.3209 25.7101 33.3206 25.7636 33.3194C25.804 33.3186 25.847 33.3202 25.8926 33.3219C25.9676 33.3247 26.0495 33.3277 26.1377 33.3205C26.3118 33.3063 26.5136 33.268 26.7376 33.2256L26.7378 33.2256L26.8605 33.2024C27.0008 33.1777 27.1502 33.1477 27.3074 33.1114C28.1325 32.9207 29.2412 32.5388 30.3624 31.7615C32.6023 30.2085 34.1882 27.5863 34.4656 23.8297C34.4899 23.6477 34.5026 23.4619 34.5027 23.2733L34.5029 23.0835ZM517.707 51.0783H473.337V41.4483H515.547V27.2283H473.337V18.1383H517.077V2.65833H450.297V66.5583H517.707V51.0783ZM524.688 2.65833H547.728V35.5983C547.728 45.1383 552.858 51.0783 563.208 51.0783C572.928 51.0783 578.598 45.0483 578.598 35.5983V2.65833H601.638V38.3883C601.638 56.9283 588.048 68.8083 563.208 68.8083C538.368 68.8083 524.688 56.7483 524.688 38.1183V2.65833ZM800.208 66.5583V2.65833H843.138C867.078 2.65833 881.478 13.8183 881.478 33.5283C881.478 53.0583 865.908 66.5583 842.598 66.5583H800.208ZM823.248 51.6183H838.818C850.248 51.6183 857.178 44.7783 857.178 33.9783C857.178 23.5383 849.978 17.5083 839.358 17.5083H823.248V51.6183ZM187.367 20.2083V2.65835H115.187V20.2083H139.757V66.5583H162.707V20.2083H187.367ZM271.071 2.65835V66.5583H248.121V41.9883H217.341V66.5583H194.301V2.65835H217.341V26.6883H248.121V2.65835H271.071ZM345.336 51.0784H300.966V41.4483H343.176V27.2283H300.966V18.1383H344.706V2.65835H277.926V66.5583H345.336V51.0784ZM608.526 66.5587H628.566V20.9176H628.566L628.566 20.8848C628.566 19.3337 629.824 18.0762 631.375 18.0762C632.926 18.0762 634.183 19.3337 634.183 20.8848L634.183 20.9176H634.197V34.2861V45.5266C634.197 53.0049 641.729 68.8083 657.387 68.8083C673.046 68.8083 678.873 56.1566 678.873 45.5266V34.2861L678.88 20.8929L678.88 20.8848C678.88 19.3337 680.138 18.0762 681.689 18.0762C683.24 18.0762 684.497 19.3337 684.497 20.8848V20.8929H684.511V66.5587H706.006V24.8539C706.006 14.2239 704.11 0.408569 682.031 0.408569C660.372 0.408569 659.875 18.1383 659.875 25.6167L659.867 34.2861V40.4063V49.2279H659.851C659.852 49.2433 659.852 49.2588 659.852 49.2742C659.852 50.8254 658.594 52.0828 657.043 52.0828C655.492 52.0828 654.235 50.8254 654.235 49.2742C654.235 49.2374 654.235 49.2007 654.237 49.1643V34.2861V25.6167C654.237 18.1383 650.705 0.408569 631.046 0.408569C609.387 0.408569 608.526 14.2239 608.526 24.8539V66.5587ZM366.29 66.5587H387.33V22.1459C387.324 22.061 387.321 21.9754 387.321 21.8891C387.321 19.7833 389.028 18.0762 391.134 18.0762C393.24 18.0762 394.947 19.7833 394.947 21.8891C394.947 21.9571 394.945 22.0247 394.942 22.0918H394.96V33.2861V42.5266C394.96 50.0049 396.492 68.8083 419.151 68.8083C442.673 68.8083 442.672 55.1525 442.671 44.548V44.3631V3.65833H422.631V21.987V47.1439C422.632 47.1857 422.633 47.2278 422.633 47.27C422.633 47.3121 422.632 47.3542 422.631 47.396V47.5266H422.625C422.493 49.5127 420.84 51.0828 418.82 51.0828C416.801 51.0828 415.148 49.5127 415.016 47.5266H415V34.2861V25.8539C415 18.3755 410.804 1.40857 391.145 0.408569C368.486 0.408569 366.29 14.2239 366.29 24.8539V66.5587Z" fill="#202521"/>
</svg>
