<svg width="434" height="353" viewBox="0 0 434 353" fill="none" xmlns="http://www.w3.org/2000/svg">
<path d="M159.494 99.0559H159.246L159.244 99.304L159.087 119.663V119.665C159.087 120.779 159.106 121.951 159.126 123.165C159.173 126.055 159.225 129.189 159.031 132.383C158.757 136.913 157.991 141.531 156.034 145.675C154.079 149.813 150.933 153.487 145.881 156.13C140.824 158.775 133.844 160.395 124.215 160.395C90.9728 160.395 67.1328 167.493 47.1783 174.092C37.22 177.386 29.1965 178.059 23.6788 175.826C20.9283 174.712 18.795 172.875 17.346 170.264C15.8945 167.65 15.122 164.245 15.1221 159.991L15.122 159.986C15.0526 156.642 15.7326 153.41 17.5765 150.399C19.42 147.389 22.4377 144.583 27.0725 142.106C52.4944 131.178 75.2651 126.493 89.5153 123.561C90.7015 123.317 91.8286 123.085 92.8933 122.863C94.8121 122.462 96.2671 122.074 97.3667 121.618C98.4686 121.162 99.2311 120.632 99.7461 119.938C100.261 119.244 100.509 118.413 100.631 117.392C100.753 116.379 100.753 115.154 100.753 113.662V113.648C100.756 111.986 100.756 108.401 100.755 105.231C100.755 103.646 100.754 102.164 100.754 101.079L100.753 99.7858L100.753 99.4304L100.753 99.3375L100.753 99.3138L100.753 99.3078V99.3063V99.3059C100.753 99.3059 100.753 99.3059 100.736 99.3058L100.753 99.3058L100.753 99.0559H100.503C96.6514 99.0559 88.5113 99.8992 79.4251 101.409C70.3365 102.919 60.2784 105.099 52.5914 107.78C46.8392 109.786 41.6053 111.25 36.9913 111.999C32.3754 112.748 28.3956 112.778 25.144 111.931C21.9001 111.086 19.3788 109.367 17.6627 106.603C15.9421 103.831 15.0172 99.9855 15.0172 94.8665L15.0172 94.8655C15.0047 91.7084 15.9332 88.8441 17.8993 86.2829C19.8684 83.7178 22.8869 81.4455 27.0697 79.4942C41.5162 72.7547 57.9643 68.3443 71.7629 65.6189C85.5643 62.8929 96.6954 61.8564 100.503 61.8564H100.753V61.6064C100.753 58.8861 102.211 53.7403 105.772 47.536C109.327 41.3413 114.965 34.1143 123.294 27.2315C139.947 13.4687 167.368 1.07178 210.42 1.07178H255.043C327.275 1.07178 371.824 16.263 398.314 39.4298C424.796 62.5901 433.273 93.7603 433.273 125.827V231.625C433.273 261.495 423.687 288.729 401.098 308.499C378.504 328.273 342.866 340.611 290.702 340.611L124.215 340.611C75.6217 340.611 48.4048 329.377 33.3316 313.97C18.2595 298.565 15.2791 278.937 15.2791 262.026C15.2791 242.123 21.9209 222.487 39.9364 207.821C57.96 193.149 87.4014 183.422 133.057 183.422H133.592H134.127H134.661H135.194H135.727H136.259H136.791H137.322H137.852H138.382H138.911H139.44H139.968H140.495H141.022H141.549H142.074H142.599H143.124H143.648H144.171H144.693H145.215H145.737H146.258H146.778H147.297H147.816H148.334H148.852H149.369H149.885H150.401H150.916H151.431H151.944H152.458H152.97H153.482H153.993H154.504H155.014H155.523H156.032H156.54H157.047H157.554H158.06H158.565H159.07H159.574H160.077H160.58H161.082H161.583H162.084H162.584H163.083H163.582H164.08H164.577H165.074H165.57H166.065H166.559H167.053H167.546H168.039H168.53H169.021H169.512H170.001H170.49H170.978H171.466H171.953H172.439H172.924H173.409H173.893H174.376H174.858H175.34H175.821H176.301H176.781H177.26H177.738H178.215H178.692H179.167H179.643H180.117H180.591H181.063H181.536H182.007H182.478H182.947H183.417H183.885H184.352H184.819H185.285H185.751H186.215H186.679H187.142H187.604H188.066H188.526H188.986H189.445H189.904H190.361H190.818H191.274H191.729H192.183H192.637H193.09H193.542H193.993H194.443H194.893H195.342H195.79H196.237H196.683H197.129H197.574H198.018H198.461H198.903H199.344H199.785H200.225H200.664H201.102H201.539H201.976H202.412H202.846H203.28H203.714H204.146H204.577H205.008H205.438H205.867H206.295H206.722H207.148H207.574H207.999H208.422H208.845H209.267H209.689H210.109H210.528H210.947H211.365H211.782H212.198H212.613H213.027H213.44H213.853H214.264H214.675H215.085H215.494H215.902H216.309H216.715H217.12H217.525H217.928H218.331H218.732H219.133H219.533H219.932H220.33H220.727H221.124H221.519H221.913H222.307H222.699H223.091H223.482H223.871H224.26H224.648H225.035H225.421H225.806H226.19H226.574H226.956H227.337H227.718H228.097H228.475H228.853H229.229H229.605H229.98H230.353H230.726H231.098H231.469H231.838H232.207H232.575H232.942H233.308H233.673H234.037H234.4H234.762H235.123H235.483H235.842H236.2H236.557H236.913H237.268H237.622H237.975H238.327H238.679H239.029H239.378H239.726H240.073H240.419H240.764H241.108H241.451H241.793H242.134H242.474H242.812H243.15H243.487H243.823H244.158H244.491H244.824H245.156H245.486H245.816H246.144H246.472H246.798H247.124H247.448H247.771H248.094H248.415H248.735H249.054H249.372H249.689H250.005H250.319H250.633H250.946H251.257H251.568H251.877H252.186H252.493H252.799H253.104H253.408H253.711H254.013H254.314H254.613H254.912H255.209H255.506H255.801H256.095H256.388H256.68H256.971H257.261H257.549H257.837H258.123H258.408H258.693H258.976H259.258H259.538H259.818H260.096H260.374H260.65H260.925H261.199H261.472H261.744H262.014H262.284H262.552H262.819H263.085H263.35H263.614H263.876H264.138H264.398H264.657H264.915H265.172H265.427H265.682H265.935H266.187H266.438H266.687H266.936H267.183H267.429H267.674H267.918H268.161H268.402H268.643H268.882H269.119H269.356H269.592H269.826H270.059H270.291H270.522H270.751H270.979H271.206H271.432H271.657H271.88H272.102H272.323H272.543H272.762H272.979H273.195H273.41H273.623H273.836H274.047H274.257H274.466H274.673H274.879H275.084H275.288H275.49H275.692H275.892H276.09H276.288H276.484H276.679H276.873H277.065H277.256H277.446H277.635H277.822H278.008H278.193H278.377H278.559H278.74H278.92H279.098H279.275H279.451H279.626H279.799H279.971H280.142H280.311H280.479H280.646H280.812H280.976H281.139H281.3H281.461H281.62H281.777H281.934H282.089H282.243H282.395H282.546H282.696H282.844H282.991H283.137H283.282H283.425H283.567H283.707H283.846H283.984H284.121H284.256H284.39H284.522H284.653H284.783H284.911H285.038H285.164H285.288H285.411H285.533H285.653H285.772H285.889H286.006H286.12H286.234H286.346H286.456H286.566H286.674H286.78H286.885H286.989H287.091H287.192H287.292H287.39H287.487H287.582H287.676H287.769H287.86H287.95H288.038H288.125H288.211H288.295H288.378H288.459H288.539H288.618H288.695H288.77H288.845H288.918H288.989H289.059H289.127H289.195H289.26H289.324H289.387H289.449H289.509H289.567H289.624H289.68H289.734H289.787H289.838H289.888H289.936H289.983H290.028H290.072H290.115H290.156H290.195H290.233H290.27H290.305H290.339H290.371H290.402H290.431H290.459H290.485H290.51H290.533H290.555H290.575H290.594H290.611H290.627H290.641H290.654H290.665H290.675H290.684H290.69H290.696H290.699H290.702C290.702 183.422 290.702 183.422 290.702 183.172V183.422C311.138 183.422 331.324 202.372 331.324 231.625C331.324 246.238 325.429 258.29 317.398 266.691C309.362 275.097 299.205 279.827 290.702 279.827L133.083 279.827C123.451 279.827 115.634 271.858 115.634 262.016C115.634 252.175 123.451 244.205 133.084 244.206L259.371 244.206C261.973 244.206 264.23 242.509 265.823 240.119C267.418 237.725 268.38 234.594 268.38 231.625C268.38 228.655 267.418 225.524 265.823 223.131C264.23 220.741 261.973 219.044 259.371 219.044V219.294C259.371 219.182 259.371 219.12 259.371 219.086C259.371 219.044 259.371 219.044 259.37 219.044H259.367H259.362H259.355H259.346H259.335H259.321H259.306H259.289H259.27H259.249H259.225H259.2H259.173H259.144H259.113H259.08H259.045H259.008H258.97H258.929H258.886H258.842H258.795H258.747H258.697H258.644H258.59H258.535H258.477H258.417H258.356H258.292H258.227H258.16H258.092H258.021H257.948H257.874H257.798H257.72H257.641H257.559H257.476H257.391H257.304H257.216H257.125H257.033H256.94H256.844H256.747H256.648H256.547H256.445H256.341H256.235H256.128H256.019H255.908H255.796H255.681H255.566H255.448H255.329H255.208H255.086H254.962H254.837H254.709H254.581H254.45H254.318H254.185H254.05H253.913H253.775H253.635H253.493H253.35H253.206H253.06H252.912H252.763H252.613H252.46H252.307H252.152H251.995H251.837H251.677H251.516H251.354H251.19H251.025H250.858H250.689H250.52H250.348H250.176H250.002H249.827H249.65H249.472H249.292H249.111H248.929H248.745H248.56H248.373H248.186H247.997H247.806H247.614H247.421H247.227H247.031H246.834H246.636H246.436H246.235H246.033H245.829H245.624H245.418H245.211H245.003H244.793H244.582H244.37H244.156H243.942H243.726H243.509H243.29H243.071H242.85H242.628H242.405H242.181H241.956H241.729H241.502H241.273H241.043H240.812H240.58H240.347H240.112H239.877H239.64H239.403H239.164H238.924H238.683H238.441H238.198H237.954H237.709H237.463H237.216H236.967H236.718H236.468H236.217H235.965H235.711H235.457H235.202H234.946H234.689H234.43H234.171H233.911H233.65H233.389H233.126H232.862H232.597H232.332H232.065H231.798H231.53H231.261H230.99H230.72H230.448H230.175H229.902H229.627H229.352H229.076H228.799H228.522H228.243H227.964H227.684H227.403H227.121H226.839H226.556H226.272H225.987H225.702H225.415H225.128H224.841H224.552H224.263H223.973H223.682H223.391H223.099H222.806H222.513H222.219H221.924H221.628H221.332H221.036H220.738H220.44H220.141H219.842H219.542H219.242H218.94H218.639H218.336H218.033H217.73H217.426H217.121H216.816H216.51H216.203H215.897H215.589H215.281H214.973H214.663H214.354H214.044H213.733H213.422H213.111H212.798H212.486H212.173H211.859H211.546H211.231H210.916H210.601H210.285H209.969H209.653H209.336H209.018H208.701H208.383H208.064H207.745H207.426H207.106H206.786H206.466H206.145H205.824H205.502H205.181H204.859H204.536H204.214H203.891H203.567H203.244H202.92H202.596H202.271H201.946H201.621H201.296H200.971H200.645H200.319H199.993H199.667H199.34H199.013H198.686H198.359H198.032H197.704H197.376H197.048H196.72H196.392H196.063H195.735H195.406H195.077H194.748H194.419H194.09H193.761H193.431H193.102H192.772H192.443H192.113H191.783H191.453H191.123H190.793H190.463H190.133H189.803H189.473H189.143H188.813H188.483H188.153H187.822H187.492H187.162H186.832H186.502H186.172H185.842H185.512H185.182H184.852H184.523H184.193H183.864H183.534H183.205H182.875H182.546H182.217H181.888H181.56H181.231H180.902H180.574H180.246H179.918H179.59H179.262H178.935H178.607H178.28H177.953H177.626H177.3H176.973H176.647H176.321H175.996H175.67H175.345H175.02H174.696H174.371H174.047H173.724H173.4H173.077H172.754H172.431H172.109H171.787H171.465H171.144H170.823H170.502H170.182H169.862H169.543H169.223H168.905H168.586H168.268H167.951H167.633H167.316H167H166.684H166.368H166.053H165.739H165.424H165.111H164.797H164.484H164.172H163.86H163.549H163.238H162.927H162.617H162.308H161.999H161.691H161.383H161.075H160.769H160.462H160.157H159.852H159.547H159.243H158.94H158.637H158.335H158.033H157.732H157.432H157.132H156.833H156.534H156.237H155.939H155.643H155.347H155.052H154.757H154.463H154.17H153.877H153.586H153.294H153.004H152.714H152.425H152.137H151.849H151.563H151.277H150.991H150.707H150.423H150.14H149.858H149.576H149.296H149.016H148.737H148.459H148.181H147.905H147.629H147.354H147.08H146.807H146.534H146.263H145.992H145.722H145.454H145.186H144.918H144.652H144.387H144.123H143.859H143.597H143.335H143.074H142.815H142.556H142.298H142.041H141.785H141.53H141.276H141.023H140.771H140.52H140.271H140.022H139.774H139.527H139.281H139.036H138.792H138.55H138.308H138.068H137.828H137.59H137.352H137.116H136.881H136.647H136.414H136.182H135.951H135.722H135.493H135.266H135.04H134.815H134.591H134.368H134.147H133.927H133.707H133.489H133.273H133.057C114.658 219.044 104.06 225.07 98.0759 233.494C92.1037 241.9 90.7622 252.646 90.7622 262.017C90.7622 271.391 92.2697 282.124 97.2056 290.521C102.153 298.937 110.534 304.989 124.215 304.989L290.702 304.989C311.408 304.989 328.349 294.93 340.106 280.737C351.861 266.548 358.448 248.213 358.448 231.625V125.827C358.448 71.276 311.832 36.7281 255.043 36.7281C240.869 36.7281 233.711 36.7611 230.267 36.8024C228.55 36.823 227.748 36.8456 227.461 36.8681C227.424 36.871 227.392 36.8741 227.366 36.8778C227.353 36.8796 227.338 36.882 227.324 36.8851C227.319 36.8861 227.311 36.8878 227.301 36.8907C227.289 36.8943 227.273 36.8996 227.256 36.9074C227.247 36.912 227.225 36.9228 227.201 36.943C225.061 36.9133 220.29 36.8479 210.423 36.7281H210.42C193.701 36.7281 181.259 41.2898 172.99 46.6701C168.857 49.3596 165.764 52.2551 163.702 54.8899C161.649 57.5138 160.592 59.9128 160.592 61.6064V61.8557L160.841 61.8564C169.57 61.8808 181.965 61.8805 192.177 61.8741C197.284 61.8709 201.844 61.8661 205.129 61.8622C206.771 61.8602 208.094 61.8585 209.006 61.8572L210.055 61.8557L210.328 61.8553L210.397 61.8552L210.415 61.8552L210.419 61.8552L210.42 61.8552C235.195 61.8552 256.437 61.8558 290.588 79.4898C309.901 89.4624 317.995 107.502 317.221 123.037C316.833 130.805 314.229 137.937 309.713 143.123C305.201 148.304 298.772 151.552 290.702 151.552C276.162 151.552 266.259 145.062 258.024 137.067C254.675 133.815 251.608 130.319 248.614 126.908C247.924 126.122 247.237 125.339 246.552 124.566C242.902 120.443 239.292 116.564 235.36 113.576C216.248 99.0559 201.174 99.0559 159.569 99.0559H159.494Z" fill="#FCFBFB" stroke="#115B38" stroke-width="0.5"/>
</svg>
