<svg width="30" height="30" viewBox="0 0 30 30" fill="none" xmlns="http://www.w3.org/2000/svg">
<path d="M7.53016 9.50087L7.31321 9.50842C5.61765 9.56737 4.4658 9.76386 3.73974 9.89662C3.2655 9.98334 2.9519 10.4351 3.03928 10.9057C3.12666 11.3763 3.58195 11.6875 4.05618 11.6008C4.69872 11.4833 5.7 11.311 7.17156 11.2481L7.45607 11.2359V12.6306C7.45607 12.9369 7.38933 13.1031 7.33583 13.1911C7.28281 13.2782 7.21133 13.3402 7.11768 13.3888C6.90024 13.5016 6.63464 13.5083 6.51356 13.5083C5.80207 13.5083 5.10525 13.6119 4.59216 13.7099C4.3327 13.7595 4.11412 13.8089 3.95866 13.8451L3.85645 13.8691L3.78147 13.8867L3.76882 13.8896L3.75943 13.8911C3.34311 13.9568 3.02483 14.3151 3.02483 14.7467C3.02483 15.2253 3.41574 15.6132 3.89796 15.6132C3.97001 15.6132 4.02917 15.6039 4.04083 15.6021L4.04084 15.6021L4.04272 15.6018C4.06539 15.5982 4.08551 15.5944 4.09836 15.5918C4.12464 15.5865 4.15262 15.5802 4.17601 15.5748L4.27025 15.5527L4.35814 15.5321C4.5018 15.4986 4.69516 15.455 4.92238 15.4115C5.3826 15.3236 5.95816 15.2412 6.51356 15.2412L6.52505 15.2412C6.68723 15.2414 7.31674 15.2409 7.92658 14.9246C8.25421 14.7546 8.58579 14.4894 8.83075 14.0867C9.07552 13.6844 9.20234 13.1968 9.20234 12.6306V11.224H14.6175C16.2862 11.224 17.114 11.6658 17.5342 12.0422C17.9501 12.4147 18.0788 12.8162 18.156 13.0569L18.1639 13.0817C18.3106 13.5375 18.8019 13.7891 19.2612 13.6436C19.7206 13.4981 19.9741 13.0106 19.8275 12.5547L19.8159 12.5183C19.7224 12.2241 19.4747 11.4459 18.7043 10.7558C17.8918 10.028 16.6116 9.4911 14.6175 9.4911H9.30037L9.40046 9.14561C9.532 8.69155 9.74509 8.173 10.083 7.68237C10.7692 6.68621 12.0144 5.7329 14.3909 5.7329H17.2215C20.2282 5.7329 22.2065 6.93843 23.4522 8.4868C24.7233 10.0667 25.2586 12.0414 25.2586 13.5513V17.1862C25.2586 18.2432 24.7518 19.7726 23.6883 21.0357C22.6457 22.2739 21.1115 23.2073 19.0646 23.2073H8.28973C6.58828 23.2073 5.74905 22.6831 5.31958 22.189C4.86456 21.6654 4.74626 21.0335 4.74626 20.6531C4.74626 20.3343 4.80971 20.0819 4.92477 19.8793C5.04012 19.6761 5.19577 19.5436 5.34573 19.4474C5.71874 19.2081 6.20006 19.1217 6.51356 19.1217H18.9957C19.4779 19.1217 19.8688 18.7338 19.8688 18.2553C19.8688 17.7768 19.4779 17.3888 18.9957 17.3888H6.51356C5.96927 17.3888 5.13049 17.5221 4.39786 17.992C3.61443 18.4944 3 19.3586 3 20.6531C3 21.3171 3.19293 22.3953 3.99716 23.3207C4.8269 24.2755 6.19564 24.9402 8.28973 24.9402H19.0646C21.7111 24.9402 23.7105 23.7119 25.0283 22.1469C26.325 20.6069 27.0048 18.6926 27.0048 17.1862V13.5513C27.0048 11.694 26.3622 9.32629 24.8169 7.40559C23.2462 5.4533 20.7694 4 17.2215 4H14.3909C11.4398 4 9.65417 5.23415 8.64139 6.70448C8.03048 7.59137 7.71859 8.53581 7.57146 9.28938L7.53016 9.50087Z" fill="#101011"/>
</svg>
