<svg width="20" height="20" viewBox="0 0 20 21" fill="none" xmlns="http://www.w3.org/2000/svg">
<path fill-rule="evenodd" clip-rule="evenodd" d="M4.99609 5.87256C4.44381 5.87256 3.99609 6.32027 3.99609 6.87256V11.8813C3.99609 12.4336 4.44381 12.8813 4.99609 12.8813H15.0042C15.5565 12.8813 16.0042 12.4336 16.0042 11.8813V6.87256C16.0042 6.32027 15.5565 5.87256 15.0042 5.87256H4.99609ZM5.99609 10.8813V7.87256H14.0042V10.8813H5.99609ZM4.99609 14.5053C4.44381 14.5053 3.99609 14.953 3.99609 15.5053C3.99609 16.0576 4.44381 16.5053 4.99609 16.5053H15.0042C15.5565 16.5053 16.0042 16.0576 16.0042 15.5053C16.0042 14.953 15.5565 14.5053 15.0042 14.5053H4.99609Z" fill="#101011"/>
</svg>
