<svg width="18" height="30" viewBox="0 0 18 30" fill="none" xmlns="http://www.w3.org/2000/svg">
<mask id="path-1-outside-1_2431_196554" maskUnits="userSpaceOnUse" x="1.49714" y="7.60736" width="15.0193" height="15.0193" fill="black">
<rect fill="white" x="1.49714" y="7.60736" width="15.0193" height="15.0193"/>
<path fill-rule="evenodd" clip-rule="evenodd" d="M4.0901 12.6828L8.10979 13.9759L8.13289 9.67603L9.81964 9.67603L9.83222 13.9781L14.0045 12.6472L14.5255 14.2507L10.3625 15.6168L12.8998 19.1489L11.5355 20.1401L8.96777 16.6276L6.45081 20.0531L5.08582 19.0613L7.57546 15.6135L3.56864 14.2877L4.0901 12.6828Z"/>
</mask>
<path fill-rule="evenodd" clip-rule="evenodd" d="M4.0901 12.6828L8.10979 13.9759L8.13289 9.67603L9.81964 9.67603L9.83222 13.9781L14.0045 12.6472L14.5255 14.2507L10.3625 15.6168L12.8998 19.1489L11.5355 20.1401L8.96777 16.6276L6.45081 20.0531L5.08582 19.0613L7.57546 15.6135L3.56864 14.2877L4.0901 12.6828Z" fill="#101011"/>
<path d="M4.0901 12.6828L3.61458 12.5283C3.69973 12.2662 3.98089 12.1225 4.24322 12.2069L4.0901 12.6828ZM8.10979 13.9759L8.60978 13.9786C8.60892 14.1379 8.53219 14.2873 8.40318 14.3808C8.27418 14.4743 8.10834 14.5007 7.95667 14.4519L8.10979 13.9759ZM8.13289 9.67603L7.6329 9.67334C7.63438 9.39825 7.8578 9.17603 8.13289 9.17603L8.13289 9.67603ZM9.81964 9.67603L9.81964 9.17603C10.0952 9.17603 10.3188 9.39899 10.3196 9.67456L9.81964 9.67603ZM9.83222 13.9781L9.98417 14.4544C9.83239 14.5029 9.66661 14.4761 9.53783 14.3822C9.40905 14.2884 9.33269 14.1389 9.33222 13.9796L9.83222 13.9781ZM14.0045 12.6472L13.8525 12.1708C14.1146 12.0872 14.395 12.2311 14.48 12.4927L14.0045 12.6472ZM14.5255 14.2507L15.001 14.0962C15.0862 14.3583 14.9432 14.6399 14.6814 14.7258L14.5255 14.2507ZM10.3625 15.6168L9.95638 15.9086C9.86343 15.7792 9.83771 15.6132 9.88713 15.4617C9.93654 15.3103 10.0552 15.1914 10.2066 15.1418L10.3625 15.6168ZM12.8998 19.1489L13.3059 18.8572C13.4664 19.0806 13.4162 19.3917 13.1937 19.5534L12.8998 19.1489ZM11.5355 20.1401L11.8294 20.5447C11.6064 20.7066 11.2945 20.6577 11.1319 20.4352L11.5355 20.1401ZM8.96777 16.6276L8.56485 16.3316C8.65918 16.2032 8.80906 16.1274 8.96838 16.1276C9.1277 16.1278 9.27739 16.2039 9.37142 16.3325L8.96777 16.6276ZM6.45081 20.0531L6.85373 20.3491C6.69084 20.5708 6.37947 20.6193 6.15692 20.4576L6.45081 20.0531ZM5.08582 19.0613L4.79192 19.4658C4.56898 19.3039 4.51913 18.992 4.68045 18.7686L5.08582 19.0613ZM7.57546 15.6135L7.73252 15.1388C7.88378 15.1888 8.00213 15.308 8.05118 15.4595C8.10023 15.6111 8.0741 15.777 7.98083 15.9062L7.57546 15.6135ZM3.56864 14.2877L3.41158 14.7624C3.15041 14.676 3.0081 14.3948 3.09311 14.1332L3.56864 14.2877ZM4.24322 12.2069L8.26291 13.5L7.95667 14.4519L3.93699 13.1588L4.24322 12.2069ZM7.60979 13.9732L7.6329 9.67334L8.63288 9.67871L8.60978 13.9786L7.60979 13.9732ZM8.13289 9.17603L9.81964 9.17603L9.81964 10.176L8.13289 10.176L8.13289 9.17603ZM10.3196 9.67456L10.3322 13.9766L9.33222 13.9796L9.31964 9.67749L10.3196 9.67456ZM9.68027 13.5017L13.8525 12.1708L14.1564 13.1235L9.98417 14.4544L9.68027 13.5017ZM14.48 12.4927L15.001 14.0962L14.05 14.4052L13.529 12.8017L14.48 12.4927ZM14.6814 14.7258L10.5184 16.0919L10.2066 15.1418L14.3696 13.7756L14.6814 14.7258ZM10.7685 15.3251L13.3059 18.8572L12.4937 19.4406L9.95638 15.9086L10.7685 15.3251ZM13.1937 19.5534L11.8294 20.5447L11.2416 19.7356L12.6059 18.7444L13.1937 19.5534ZM11.1319 20.4352L8.56412 16.9227L9.37142 16.3325L11.9391 19.8451L11.1319 20.4352ZM9.37069 16.9237L6.85373 20.3491L6.04789 19.757L8.56485 16.3316L9.37069 16.9237ZM6.15692 20.4576L4.79192 19.4658L5.37971 18.6568L6.7447 19.6485L6.15692 20.4576ZM4.68045 18.7686L7.1701 15.3208L7.98083 15.9062L5.49118 19.354L4.68045 18.7686ZM7.4184 16.0882L3.41158 14.7624L3.7257 13.813L7.73252 15.1388L7.4184 16.0882ZM3.09311 14.1332L3.61458 12.5283L4.56563 12.8373L4.04417 14.4422L3.09311 14.1332Z" fill="#101011" mask="url(#path-1-outside-1_2431_196554)"/>
</svg>
