<svg width="18" height="18" viewBox="0 0 18 18" fill="none" xmlns="http://www.w3.org/2000/svg">
<path d="M4.69327 6.15579V7.44436C4.69327 8.11203 4.20128 8.77248 3.39905 8.77248C2.87041 8.77248 2.53986 8.77248 2.00013 8.96439M4.69327 6.15579H8.53662C9.6962 6.15579 10.5623 6.39329 11.5117 7.5922M4.69327 6.15579C4.31958 6.15579 3.10912 6.15579 3.10912 6.15579C2.7377 6.15579 2.23717 6.25762 2 6.33765M4.69327 6.15579C4.69327 6.04509 4.69327 6.54418 4.69327 6.15579ZM4.69327 6.15579C4.69327 4.97537 5.76153 3 8.36713 3L10.0224 3C13.4563 3 15.7209 5.54656 15.7209 8.59044V10.4307C15.7209 12.2124 14.3084 14 12.4187 14L3.39895 14C2.80963 14 2.00013 13.6159 2.00013 12.7699C2.00013 11.9238 2.6657 11.4027 3.39895 11.4027H8.53662L11.5116 11.4027" stroke="black" stroke-width="2" stroke-linecap="round" stroke-linejoin="round"/>
</svg>
