<svg width="21" height="21" viewBox="0 0 21 21" fill="none" xmlns="http://www.w3.org/2000/svg">
<rect x="0.255371" y="0.425354" width="20.5" height="20.5" rx="10.25" fill="white"/>
<rect x="2.28027" y="2.4502" width="16.4503" height="16.4503" rx="8.22516" fill="black"/>
<path fill-rule="evenodd" clip-rule="evenodd" d="M10.5054 19.6754C15.4759 19.6754 19.5054 15.6459 19.5054 10.6754C19.5054 5.70479 15.4759 1.67535 10.5054 1.67535C5.53481 1.67535 1.50537 5.70479 1.50537 10.6754C1.50537 15.6459 5.53481 19.6754 10.5054 19.6754ZM8.26543 7.6665C8.52423 7.15114 9.10646 6.6165 10.152 6.6165L11.3582 6.6165C13.5026 6.6165 14.8857 8.17958 14.8857 10.0653V12.1145C14.8857 13.1215 14.0846 14.0175 13.1043 14.0175L7.02366 14.0175C6.48196 14.0175 6.13732 13.5754 6.13732 13.1107C6.13732 12.9774 6.18515 12.8958 6.24352 12.8424C6.30883 12.7826 6.41023 12.7392 6.53184 12.7392H10.2755L12.4432 12.7392C12.7883 12.7392 13.068 12.4595 13.068 12.1145C13.068 11.7694 12.7883 11.4897 12.4432 11.4897L10.2755 11.4897H6.53184C5.7061 11.4897 4.88781 12.0979 4.88781 13.1107C4.88781 14.1256 5.65988 15.267 7.02366 15.267L13.1043 15.267C14.8777 15.267 16.1352 13.704 16.1352 12.1145V10.0653C16.1352 7.51509 14.218 5.36699 11.3582 5.36699L10.152 5.36699C8.24798 5.36699 7.22707 6.58903 6.93745 7.6665H6.32065C5.91469 7.6665 5.45035 7.78546 5.31307 7.8317C4.98607 7.94183 4.81027 8.29619 4.92039 8.62319C5.03052 8.95018 5.38489 9.12599 5.71188 9.01586C5.71188 9.01586 5.88975 8.97083 5.95299 8.95862C6.08528 8.93307 6.17445 8.91602 6.40385 8.91602H6.85021V9.2302C6.85021 9.32458 6.8141 9.41642 6.75786 9.47902C6.70893 9.5335 6.63991 9.57319 6.53191 9.57319C6.10101 9.57319 5.63065 9.6371 5.31037 9.74666C4.9839 9.85833 4.80976 10.2135 4.92143 10.54C5.03311 10.8665 5.38829 11.0406 5.71476 10.9289C5.86737 10.8767 6.19241 10.8227 6.53191 10.8227C7.52289 10.8227 8.09972 9.99699 8.09972 9.2302V8.91602H10.2755C10.6582 8.91602 10.9296 8.95615 11.1672 9.05972C11.4004 9.16133 11.6539 9.34747 11.9535 9.72578C12.1677 9.99628 12.5607 10.0419 12.8312 9.8277C13.1017 9.61349 13.1473 9.22055 12.9331 8.95006C12.5409 8.45477 12.133 8.11757 11.6664 7.91425C11.2044 7.7129 10.7377 7.6665 10.2755 7.6665H8.26543Z" fill="white"/>
</svg>
