<svg width="18" height="18" viewBox="0 0 18 18" fill="none" xmlns="http://www.w3.org/2000/svg">
<path d="M6.09257 6.89243V7.8693C6.09257 8.37546 5.71959 8.87615 5.11141 8.87615C4.71064 8.87615 4.46005 8.87615 4.05088 9.02164M6.09257 6.89243H9.00624C9.88532 6.89243 10.5419 7.07248 11.2617 7.98138M6.09257 6.89243C5.80927 6.89243 4.89161 6.89243 4.89161 6.89243C4.61004 6.89243 4.23058 6.96962 4.05078 7.0303M6.09257 6.89243C6.09257 6.8085 6.09257 7.18687 6.09257 6.89243ZM6.09257 6.89243C6.09257 5.99754 6.90243 4.5 8.87775 4.5L10.1326 4.5C12.7359 4.5 14.4527 6.43057 14.4527 8.73815V10.8701C14.4527 12.2208 13.3818 13.5 11.9493 13.5L5.62303 13.5C4.63179 13.5 4.05088 12.6763 4.05088 11.9066C4.05088 11.2652 4.55546 10.8701 5.11134 10.8701H9.00624L11.2616 10.8701" stroke="black" stroke-width="1.5" stroke-linecap="round" stroke-linejoin="round"/>
</svg>
