<svg width="743" height="70" viewBox="0 0 743 70" fill="none" xmlns="http://www.w3.org/2000/svg">
<path fill-rule="evenodd" clip-rule="evenodd" d="M232.948 67.3743H255.82V24.2095H255.82C255.818 24.1466 255.817 24.0833 255.817 24.0197C255.817 21.2237 258.084 18.957 260.88 18.957C263.676 18.957 265.942 21.2237 265.942 24.0197C265.942 24.0833 265.941 24.1466 265.939 24.2095H265.939V45.1807C265.939 59.4689 274.563 69.626 291.09 69.626C309.779 69.626 318.632 65.0551 318.632 46.8453V3.482H295.906V46.5073C295.912 46.6133 295.916 46.7201 295.916 46.8277C295.916 49.625 293.648 51.8927 290.851 51.8927C288.059 51.8927 285.795 49.6345 285.786 46.8453H285.784V24.8037C285.784 11.9871 279.532 0.358398 261.106 0.358398C242.68 0.358398 232.948 3.482 232.948 24.2095V67.3743ZM394.34 3.47436H417.38V36.4144C417.38 45.9544 422.51 51.8944 432.86 51.8944C442.58 51.8944 448.25 45.8644 448.25 36.4144V3.47436H471.29V39.2044C471.29 57.7444 457.7 69.6244 432.86 69.6244C408.02 69.6244 394.34 57.5644 394.34 38.9344V3.47436ZM660.795 3.47412V67.1562L631.197 3.47412H601.317L571.699 67.1968V3.47412H536.689L525.709 35.7841C525.57 36.1902 525.432 36.5873 525.297 36.9762C524.386 39.6041 523.604 41.8574 523.369 43.9741H523.189C522.954 41.8606 522.175 39.6789 521.265 37.1331C521.129 36.7519 520.99 36.3626 520.849 35.9641L509.419 3.47412H475.309V67.3741H495.289V32.2741C495.289 27.9541 495.199 23.0041 494.389 18.7741H494.749C495.559 21.8341 496.999 26.6941 498.799 31.6441L511.849 67.3741H533.269L547.129 31.4641C548.839 27.1441 550.909 21.0241 551.449 18.7741H551.899C551.089 23.4541 550.639 28.2241 550.639 32.2741V67.3741H571.617H571.699H596.367L601.317 55.2241H631.287L636.237 67.3741H660.795H660.897H703.185C726.495 67.3741 742.065 53.8741 742.065 34.3441C742.065 14.6341 727.665 3.47412 703.725 3.47412H660.795ZM699.405 52.4341H683.835V18.3241H699.945C710.565 18.3241 717.765 24.3541 717.765 34.7941C717.765 45.5941 710.835 52.4341 699.405 52.4341ZM346.595 51.8944H390.965V67.3744H323.555V3.47436H390.335V18.9544H346.595V28.0444H388.805V42.2644H346.595V51.8944ZM625.707 41.3641H606.897L611.397 30.2941C613.917 24.2641 615.357 20.6641 616.167 16.5241H616.437C617.157 20.6641 618.597 24.2641 621.207 30.2941L625.707 41.3641ZM47.6308 21.024H72.2652V67.374H95.3052V42.804H126.085V67.374H149.035V3.47402H126.085V27.504H95.3052V3.47402H72.2908H72.2652H0.11084V21.024H24.6808V67.374H47.6308V21.024ZM176.317 51.894H220.057V67.374H153.277V3.47402H220.057V18.954H176.317V28.044H218.527V42.264H176.317V51.894Z" fill="#FCFCFB"/>
</svg>
