<svg width="309" height="18" viewBox="0 0 309 18" fill="none" xmlns="http://www.w3.org/2000/svg">
<path d="M5.80537 8.1648L6.96392 8.36075C6.97045 8.33203 6.97747 8.3035 6.98496 8.27517L5.88537 7.86622L1.3077 5.2233L2.1429 3.7767L6.72057 6.41962L7.61475 7.15934C7.63574 7.13759 7.65712 7.11621 7.67887 7.09522L6.93914 6.20104L4.29623 1.62337L5.74283 0.78817L8.38575 5.36584L8.7947 6.46543C8.82303 6.45794 8.85156 6.45092 8.88028 6.44439L8.68433 5.28584V4.00543e-08L10.3547 0V5.28584L10.1528 6.4799C10.1788 6.48737 10.2046 6.49524 10.2302 6.50351L10.6533 5.36584L13.2962 0.788172L14.7428 1.62337L12.0999 6.20104L11.298 7.17034L11.294 7.17366C11.3109 7.19145 11.3276 7.20949 11.344 7.22776L11.3492 7.22148L12.3185 6.41962L16.8962 3.7767L17.7314 5.2233L13.1537 7.86622L11.9746 8.30473L11.92 8.31396C11.9267 8.34078 11.9329 8.36777 11.9387 8.39491L11.9933 8.37459L13.2337 8.1648H18.5195V9.8352L13.2337 9.8352L11.9933 9.62541L11.9068 9.59323C11.899 9.62222 11.8906 9.65101 11.8818 9.67958L11.9746 9.69527L13.1537 10.1338L17.7314 12.7767L16.8962 14.2233L12.3185 11.5804L11.3492 10.7785L11.2809 10.696C11.2595 10.7182 11.2377 10.74 11.2155 10.7614L11.2981 10.8297L12.0999 11.799L14.7428 16.3766L13.2962 17.2118L10.6533 12.6342L10.2148 11.4551L10.1991 11.3623C10.1705 11.3711 10.1418 11.3794 10.1128 11.3873L10.1449 11.4738L10.3547 12.7142V18H8.68433V12.7142L8.89412 11.4738L8.91444 11.4191C8.8873 11.4134 8.86031 11.4071 8.83349 11.4005L8.82426 11.4551L8.38575 12.6342L5.74283 17.2118L4.29622 16.3766L6.93914 11.799L7.741 10.8297L7.74729 10.8245C7.72902 10.8081 7.71098 10.7914 7.69319 10.7745L7.68986 10.7785L6.72057 11.5804L2.1429 14.2233L1.3077 12.7767L5.88537 10.1338L7.02304 9.71067C7.01477 9.68504 7.0069 9.65923 6.99942 9.63325L5.80537 9.8352L0.519531 9.8352L0.519531 8.1648L5.80537 8.1648Z" fill="#272727"/>
<path d="M24.2435 7.016H21.6755V5.432H28.6955V7.016H26.1275V14H24.2435V7.016ZM29.5395 5.432H31.2435V8.66H31.2795C31.4955 8.3 31.7715 8.04 32.1075 7.88C32.4435 7.712 32.7715 7.628 33.0915 7.628C33.5475 7.628 33.9195 7.692 34.2075 7.82C34.5035 7.94 34.7355 8.112 34.9035 8.336C35.0715 8.552 35.1875 8.82 35.2515 9.14C35.3235 9.452 35.3595 9.8 35.3595 10.184V14H33.6555V10.496C33.6555 9.984 33.5755 9.604 33.4155 9.356C33.2555 9.1 32.9715 8.972 32.5635 8.972C32.0995 8.972 31.7635 9.112 31.5555 9.392C31.3475 9.664 31.2435 10.116 31.2435 10.748V14H29.5395V5.432ZM40.8647 10.232C40.7847 9.8 40.6407 9.472 40.4327 9.248C40.2327 9.024 39.9247 8.912 39.5087 8.912C39.2367 8.912 39.0087 8.96 38.8247 9.056C38.6487 9.144 38.5047 9.256 38.3927 9.392C38.2887 9.528 38.2127 9.672 38.1647 9.824C38.1247 9.976 38.1007 10.112 38.0927 10.232H40.8647ZM38.0927 11.312C38.1167 11.864 38.2567 12.264 38.5127 12.512C38.7687 12.76 39.1367 12.884 39.6167 12.884C39.9607 12.884 40.2567 12.8 40.5047 12.632C40.7527 12.456 40.9047 12.272 40.9607 12.08H42.4607C42.2207 12.824 41.8527 13.356 41.3567 13.676C40.8607 13.996 40.2607 14.156 39.5567 14.156C39.0687 14.156 38.6287 14.08 38.2367 13.928C37.8447 13.768 37.5127 13.544 37.2407 13.256C36.9687 12.968 36.7567 12.624 36.6047 12.224C36.4607 11.824 36.3887 11.384 36.3887 10.904C36.3887 10.44 36.4647 10.008 36.6167 9.608C36.7687 9.208 36.9847 8.864 37.2647 8.576C37.5447 8.28 37.8767 8.048 38.2607 7.88C38.6527 7.712 39.0847 7.628 39.5567 7.628C40.0847 7.628 40.5447 7.732 40.9367 7.94C41.3287 8.14 41.6487 8.412 41.8967 8.756C42.1528 9.1 42.3368 9.492 42.4488 9.932C42.5608 10.372 42.6007 10.832 42.5687 11.312H38.0927ZM43.7954 5.432H45.6674L49.2434 11.18H49.2674V5.432H51.0314V14H49.1474L45.5834 8.264H45.5594V14H43.7954V5.432ZM56.7219 10.232C56.6419 9.8 56.4979 9.472 56.2899 9.248C56.0899 9.024 55.7819 8.912 55.3659 8.912C55.0939 8.912 54.8659 8.96 54.6819 9.056C54.5059 9.144 54.3619 9.256 54.2499 9.392C54.1459 9.528 54.0699 9.672 54.0219 9.824C53.9819 9.976 53.9579 10.112 53.9499 10.232H56.7219ZM53.9499 11.312C53.9739 11.864 54.1139 12.264 54.3699 12.512C54.6259 12.76 54.9939 12.884 55.4739 12.884C55.8179 12.884 56.1139 12.8 56.3619 12.632C56.6099 12.456 56.7619 12.272 56.8179 12.08H58.3179C58.0779 12.824 57.7099 13.356 57.2139 13.676C56.7179 13.996 56.1179 14.156 55.4139 14.156C54.9259 14.156 54.4859 14.08 54.0939 13.928C53.7019 13.768 53.3699 13.544 53.0979 13.256C52.8259 12.968 52.6139 12.624 52.4619 12.224C52.3179 11.824 52.2459 11.384 52.2459 10.904C52.2459 10.44 52.3219 10.008 52.4739 9.608C52.6259 9.208 52.8419 8.864 53.1219 8.576C53.4019 8.28 53.7339 8.048 54.1179 7.88C54.5099 7.712 54.9419 7.628 55.4139 7.628C55.9419 7.628 56.4019 7.732 56.7939 7.94C57.1859 8.14 57.5059 8.412 57.7539 8.756C58.0099 9.1 58.1939 9.492 58.3059 9.932C58.4179 10.372 58.4579 10.832 58.4259 11.312H53.9499ZM65.2925 14H63.6725V13.136H63.6365C63.4205 13.496 63.1405 13.756 62.7965 13.916C62.4525 14.076 62.1005 14.156 61.7405 14.156C61.2845 14.156 60.9085 14.096 60.6125 13.976C60.3245 13.856 60.0965 13.688 59.9285 13.472C59.7605 13.248 59.6405 12.98 59.5685 12.668C59.5045 12.348 59.4725 11.996 59.4725 11.612V7.796H61.1765V11.3C61.1765 11.812 61.2565 12.196 61.4165 12.452C61.5765 12.7 61.8605 12.824 62.2685 12.824C62.7325 12.824 63.0685 12.688 63.2765 12.416C63.4845 12.136 63.5885 11.68 63.5885 11.048V7.796H65.2925V14ZM66.6698 7.796H68.2778V8.636H68.3018C68.5258 8.316 68.7938 8.068 69.1058 7.892C69.4258 7.716 69.7898 7.628 70.1978 7.628C70.5898 7.628 70.9458 7.704 71.2658 7.856C71.5938 8.008 71.8418 8.276 72.0098 8.66C72.1938 8.388 72.4418 8.148 72.7538 7.94C73.0738 7.732 73.4498 7.628 73.8818 7.628C74.2098 7.628 74.5138 7.668 74.7938 7.748C75.0738 7.828 75.3138 7.956 75.5138 8.132C75.7138 8.308 75.8698 8.54 75.9818 8.828C76.0938 9.108 76.1498 9.448 76.1498 9.848V14H74.4458V10.484C74.4458 10.276 74.4378 10.08 74.4218 9.896C74.4058 9.712 74.3618 9.552 74.2898 9.416C74.2178 9.28 74.1098 9.172 73.9658 9.092C73.8298 9.012 73.6418 8.972 73.4018 8.972C73.1618 8.972 72.9658 9.02 72.8138 9.116C72.6698 9.204 72.5538 9.324 72.4658 9.476C72.3858 9.62 72.3298 9.788 72.2978 9.98C72.2738 10.164 72.2618 10.352 72.2618 10.544V14H70.5578V10.52C70.5578 10.336 70.5538 10.156 70.5458 9.98C70.5378 9.796 70.5018 9.628 70.4378 9.476C70.3818 9.324 70.2818 9.204 70.1378 9.116C70.0018 9.02 69.7978 8.972 69.5258 8.972C69.4458 8.972 69.3378 8.992 69.2018 9.032C69.0738 9.064 68.9458 9.132 68.8178 9.236C68.6978 9.332 68.5938 9.476 68.5058 9.668C68.4178 9.852 68.3738 10.096 68.3738 10.4V14H66.6698V7.796ZM77.4608 9.704C77.4848 9.304 77.5848 8.972 77.7608 8.708C77.9368 8.444 78.1608 8.232 78.4328 8.072C78.7048 7.912 79.0088 7.8 79.3448 7.736C79.6888 7.664 80.0328 7.628 80.3768 7.628C80.6888 7.628 81.0048 7.652 81.3248 7.7C81.6448 7.74 81.9368 7.824 82.2008 7.952C82.4648 8.08 82.6808 8.26 82.8488 8.492C83.0168 8.716 83.1008 9.016 83.1008 9.392V12.62C83.1008 12.9 83.1168 13.168 83.1488 13.424C83.1808 13.68 83.2368 13.872 83.3168 14H81.5888C81.5568 13.904 81.5288 13.808 81.5048 13.712C81.4888 13.608 81.4768 13.504 81.4688 13.4C81.1968 13.68 80.8768 13.876 80.5088 13.988C80.1408 14.1 79.7648 14.156 79.3808 14.156C79.0848 14.156 78.8088 14.12 78.5528 14.048C78.2968 13.976 78.0728 13.864 77.8808 13.712C77.6888 13.56 77.5368 13.368 77.4248 13.136C77.3208 12.904 77.2688 12.628 77.2688 12.308C77.2688 11.956 77.3288 11.668 77.4488 11.444C77.5768 11.212 77.7368 11.028 77.9288 10.892C78.1288 10.756 78.3528 10.656 78.6008 10.592C78.8568 10.52 79.1128 10.464 79.3688 10.424C79.6248 10.384 79.8768 10.352 80.1248 10.328C80.3728 10.304 80.5928 10.268 80.7848 10.22C80.9768 10.172 81.1288 10.104 81.2408 10.016C81.3528 9.92 81.4048 9.784 81.3968 9.608C81.3968 9.424 81.3648 9.28 81.3008 9.176C81.2448 9.064 81.1648 8.98 81.0608 8.924C80.9648 8.86 80.8488 8.82 80.7128 8.804C80.5848 8.78 80.4448 8.768 80.2928 8.768C79.9568 8.768 79.6928 8.84 79.5008 8.984C79.3088 9.128 79.1968 9.368 79.1648 9.704H77.4608ZM81.3968 10.964C81.3248 11.028 81.2328 11.08 81.1208 11.12C81.0168 11.152 80.9008 11.18 80.7728 11.204C80.6528 11.228 80.5248 11.248 80.3888 11.264C80.2528 11.28 80.1168 11.3 79.9808 11.324C79.8528 11.348 79.7248 11.38 79.5968 11.42C79.4768 11.46 79.3688 11.516 79.2728 11.588C79.1848 11.652 79.1128 11.736 79.0568 11.84C79.0008 11.944 78.9728 12.076 78.9728 12.236C78.9728 12.388 79.0008 12.516 79.0568 12.62C79.1128 12.724 79.1888 12.808 79.2848 12.872C79.3808 12.928 79.4928 12.968 79.6208 12.992C79.7488 13.016 79.8808 13.028 80.0168 13.028C80.3528 13.028 80.6128 12.972 80.7968 12.86C80.9808 12.748 81.1168 12.616 81.2048 12.464C81.2928 12.304 81.3448 12.144 81.3608 11.984C81.3848 11.824 81.3968 11.696 81.3968 11.6V10.964ZM88.8634 10.88C88.8634 10.624 88.8394 10.38 88.7914 10.148C88.7434 9.908 88.6594 9.7 88.5394 9.524C88.4274 9.34 88.2794 9.192 88.0954 9.08C87.9114 8.968 87.6794 8.912 87.3994 8.912C87.1194 8.912 86.8834 8.968 86.6914 9.08C86.4994 9.192 86.3434 9.34 86.2234 9.524C86.1114 9.708 86.0274 9.92 85.9714 10.16C85.9234 10.392 85.8994 10.636 85.8994 10.892C85.8994 11.132 85.9274 11.372 85.9834 11.612C86.0394 11.852 86.1274 12.068 86.2474 12.26C86.3754 12.444 86.5314 12.596 86.7154 12.716C86.9074 12.828 87.1354 12.884 87.3994 12.884C87.6794 12.884 87.9114 12.828 88.0954 12.716C88.2874 12.604 88.4394 12.456 88.5514 12.272C88.6634 12.08 88.7434 11.864 88.7914 11.624C88.8394 11.384 88.8634 11.136 88.8634 10.88ZM88.8874 13.208H88.8634C88.6634 13.544 88.3994 13.788 88.0714 13.94C87.7514 14.084 87.3874 14.156 86.9794 14.156C86.5154 14.156 86.1074 14.068 85.7554 13.892C85.4034 13.708 85.1114 13.464 84.8794 13.16C84.6554 12.848 84.4834 12.492 84.3634 12.092C84.2514 11.692 84.1954 11.276 84.1954 10.844C84.1954 10.428 84.2514 10.028 84.3634 9.644C84.4834 9.252 84.6554 8.908 84.8794 8.612C85.1114 8.316 85.3994 8.08 85.7434 7.904C86.0874 7.72 86.4874 7.628 86.9434 7.628C87.3114 7.628 87.6594 7.708 87.9874 7.868C88.3234 8.02 88.5874 8.248 88.7794 8.552H88.8034V5.432H90.5074V14H88.8874V13.208Z" fill="#272727"/>
</svg>
