<svg width="19" height="19" viewBox="0 0 19 19" fill="none" xmlns="http://www.w3.org/2000/svg">
<path fill-rule="evenodd" clip-rule="evenodd" d="M9.27464 18.5965C14.117 18.5965 18.0425 14.671 18.0425 9.82872C18.0425 4.98639 14.117 1.06091 9.27464 1.06091C4.43232 1.06091 0.506836 4.98639 0.506836 9.82872C0.506836 14.671 4.43232 18.5965 9.27464 18.5965ZM16.0425 9.82872C16.0425 13.5665 13.0124 16.5965 9.27464 16.5965C5.53689 16.5965 2.50684 13.5665 2.50684 9.82872C2.50684 6.09096 5.53689 3.06091 9.27464 3.06091C13.0124 3.06091 16.0425 6.09096 16.0425 9.82872ZM10.2744 4.77811V5.77811V5.78711C11.3483 6.12198 12.2598 6.98676 12.2598 8.23526H10.2598C10.2598 8.14749 10.2183 8.0161 10.0501 7.88038C9.87992 7.7431 9.60865 7.63272 9.27344 7.63272C8.93823 7.63272 8.66696 7.7431 8.4968 7.88038C8.32858 8.0161 8.28711 8.14749 8.28711 8.23526L8.28705 8.24165C8.28651 8.2794 8.28577 8.33068 8.44193 8.44105C8.64901 8.58742 9.00242 8.73065 9.53099 8.87154C10.1105 9.026 10.7502 9.24151 11.2593 9.60131C11.8103 9.99076 12.2598 10.5937 12.2598 11.4403C12.2598 12.6888 11.3483 13.5536 10.2744 13.8885V14.8793H8.27441V13.8891C7.1997 13.5547 6.28711 12.6896 6.28711 11.4403H8.28711C8.28711 11.5281 8.32858 11.6595 8.4968 11.7952C8.66696 11.9325 8.93823 12.0429 9.27344 12.0429C9.60865 12.0429 9.87992 11.9325 10.0501 11.7952C10.2183 11.6595 10.2598 11.5281 10.2598 11.4403L10.2598 11.434C10.2604 11.3962 10.2611 11.3449 10.1049 11.2345C9.89786 11.0882 9.54446 10.945 9.01588 10.8041C8.43639 10.6496 7.79663 10.4341 7.28757 10.0743C6.73656 9.68484 6.28711 9.08188 6.28711 8.23526C6.28711 6.986 7.1997 6.12093 8.27441 5.7865V5.77811V4.77811H10.2744Z" fill="black"/>
</svg>
