<svg width="9" height="16" viewBox="0 0 9 16" fill="none" xmlns="http://www.w3.org/2000/svg">
<path d="M4.22099 3.69724C4.33104 3.47429 4.64896 3.47429 4.75901 3.69724L5.90906 6.02709C5.95272 6.11554 6.03708 6.17688 6.13468 6.19115L8.70695 6.56712C8.95293 6.60308 9.05096 6.90543 8.87288 7.07888L7.01208 8.89129C6.94132 8.96021 6.90902 9.05955 6.92572 9.15691L7.36481 11.717C7.40684 11.9621 7.14958 12.149 6.92949 12.0332L4.62964 10.8238C4.54222 10.7778 4.43778 10.7778 4.35037 10.8238L2.05051 12.0332C1.83042 12.149 1.57316 11.9621 1.6152 11.717L2.05428 9.15691C2.07098 9.05955 2.03868 8.96021 1.96792 8.89129L0.10712 7.07888C-0.0709585 6.90543 0.027077 6.60308 0.273052 6.56712L2.84532 6.19115C2.94293 6.17688 3.02728 6.11554 3.07095 6.02709L4.22099 3.69724Z" fill="#373A42"/>
</svg>
