<svg width="501" height="500" viewBox="0 0 501 500" fill="none" xmlns="http://www.w3.org/2000/svg">
<circle cx="21.1022" cy="21.2" r="0.8" fill="#D2D6DB"/>
<circle cx="62.7023" cy="21.2" r="1.6" fill="#D2D6DB"/>
<circle cx="104.302" cy="21.2" r="0.8" fill="#D2D6DB"/>
<circle cx="145.902" cy="21.2" r="1.6" fill="#D2D6DB"/>
<circle cx="187.502" cy="21.2" r="0.8" fill="#D2D6DB"/>
<circle cx="229.102" cy="21.2" r="1.6" fill="#D2D6DB"/>
<circle cx="270.702" cy="21.2" r="0.8" fill="#D2D6DB"/>
<circle cx="312.302" cy="21.2" r="1.6" fill="#D2D6DB"/>
<circle cx="353.902" cy="21.2" r="0.8" fill="#D2D6DB"/>
<circle cx="395.502" cy="21.2" r="1.6" fill="#D2D6DB"/>
<circle cx="437.102" cy="21.2" r="0.8" fill="#D2D6DB"/>
<circle cx="478.702" cy="21.2" r="1.6" fill="#D2D6DB"/>
<circle cx="21.1022" cy="62.8" r="0.8" fill="#D2D6DB"/>
<circle cx="62.7023" cy="62.8" r="0.8" fill="#D2D6DB"/>
<circle cx="104.302" cy="62.8" r="1.6" fill="#D2D6DB"/>
<circle cx="145.902" cy="62.8" r="0.8" fill="#D2D6DB"/>
<circle cx="187.502" cy="62.8" r="1.6" fill="#D2D6DB"/>
<circle cx="229.102" cy="62.8" r="0.8" fill="#D2D6DB"/>
<circle cx="270.702" cy="62.8" r="1.6" fill="#D2D6DB"/>
<circle cx="312.302" cy="62.8" r="0.8" fill="#D2D6DB"/>
<circle cx="353.902" cy="62.8" r="1.6" fill="#D2D6DB"/>
<circle cx="395.502" cy="62.8" r="0.8" fill="#D2D6DB"/>
<circle cx="437.102" cy="62.8" r="1.6" fill="#D2D6DB"/>
<circle cx="478.702" cy="62.8" r="0.8" fill="#D2D6DB"/>
<circle cx="21.1022" cy="104.4" r="0.8" fill="#D2D6DB"/>
<circle cx="62.7023" cy="104.4" r="1.6" fill="#D2D6DB"/>
<circle cx="104.302" cy="104.4" r="0.8" fill="#D2D6DB"/>
<circle cx="145.902" cy="104.4" r="1.6" fill="#D2D6DB"/>
<circle cx="187.502" cy="104.4" r="0.8" fill="#D2D6DB"/>
<circle cx="229.102" cy="104.4" r="1.6" fill="#D2D6DB"/>
<circle cx="270.702" cy="104.4" r="0.8" fill="#D2D6DB"/>
<circle cx="312.302" cy="104.4" r="1.6" fill="#D2D6DB"/>
<circle cx="353.902" cy="104.4" r="0.8" fill="#D2D6DB"/>
<circle cx="395.502" cy="104.4" r="1.6" fill="#D2D6DB"/>
<circle cx="437.102" cy="104.4" r="0.8" fill="#D2D6DB"/>
<circle cx="478.702" cy="104.4" r="1.6" fill="#D2D6DB"/>
<circle cx="21.1022" cy="146" r="0.8" fill="#D2D6DB"/>
<circle cx="62.7023" cy="146" r="0.8" fill="#D2D6DB"/>
<circle cx="104.302" cy="146" r="1.6" fill="#D2D6DB"/>
<circle cx="145.902" cy="146" r="0.8" fill="#D2D6DB"/>
<circle cx="187.502" cy="146" r="1.6" fill="#D2D6DB"/>
<circle cx="229.102" cy="146" r="0.8" fill="#D2D6DB"/>
<circle cx="270.702" cy="146" r="1.6" fill="#D2D6DB"/>
<circle cx="312.302" cy="146" r="0.8" fill="#D2D6DB"/>
<circle cx="353.902" cy="146" r="1.6" fill="#D2D6DB"/>
<circle cx="395.502" cy="146" r="0.8" fill="#D2D6DB"/>
<circle cx="437.102" cy="146" r="1.6" fill="#D2D6DB"/>
<circle cx="478.702" cy="146" r="0.8" fill="#D2D6DB"/>
<circle cx="21.1022" cy="187.6" r="0.8" fill="#D2D6DB"/>
<circle cx="62.7023" cy="187.6" r="1.6" fill="#D2D6DB"/>
<circle cx="104.302" cy="187.6" r="0.8" fill="#D2D6DB"/>
<circle cx="145.902" cy="187.6" r="1.6" fill="#D2D6DB"/>
<circle cx="187.502" cy="187.6" r="0.8" fill="#D2D6DB"/>
<circle cx="229.102" cy="187.6" r="1.6" fill="#D2D6DB"/>
<circle cx="270.702" cy="187.6" r="0.8" fill="#D2D6DB"/>
<circle cx="312.302" cy="187.6" r="1.6" fill="#D2D6DB"/>
<circle cx="353.902" cy="187.6" r="0.8" fill="#D2D6DB"/>
<circle cx="395.502" cy="187.6" r="1.6" fill="#D2D6DB"/>
<circle cx="437.102" cy="187.6" r="0.8" fill="#D2D6DB"/>
<circle cx="478.702" cy="187.6" r="1.6" fill="#D2D6DB"/>
<circle cx="21.1022" cy="229.2" r="0.8" fill="#D2D6DB"/>
<circle cx="62.7023" cy="229.2" r="0.8" fill="#D2D6DB"/>
<circle cx="104.302" cy="229.2" r="1.6" fill="#D2D6DB"/>
<circle cx="145.902" cy="229.2" r="0.8" fill="#D2D6DB"/>
<circle cx="187.502" cy="229.2" r="1.6" fill="#D2D6DB"/>
<circle cx="229.102" cy="229.2" r="0.8" fill="#D2D6DB"/>
<circle cx="270.702" cy="229.2" r="1.6" fill="#D2D6DB"/>
<circle cx="312.302" cy="229.2" r="0.8" fill="#D2D6DB"/>
<circle cx="353.902" cy="229.2" r="1.6" fill="#D2D6DB"/>
<circle cx="395.502" cy="229.2" r="0.8" fill="#D2D6DB"/>
<circle cx="437.102" cy="229.2" r="1.6" fill="#D2D6DB"/>
<circle cx="478.702" cy="229.2" r="0.8" fill="#D2D6DB"/>
<circle cx="21.1022" cy="270.8" r="0.8" fill="#D2D6DB"/>
<circle cx="62.7023" cy="270.8" r="1.6" fill="#D2D6DB"/>
<circle cx="104.302" cy="270.8" r="0.8" fill="#D2D6DB"/>
<circle cx="145.902" cy="270.8" r="1.6" fill="#D2D6DB"/>
<circle cx="187.502" cy="270.8" r="0.8" fill="#D2D6DB"/>
<circle cx="229.102" cy="270.8" r="1.6" fill="#D2D6DB"/>
<circle cx="270.702" cy="270.8" r="0.8" fill="#D2D6DB"/>
<circle cx="312.302" cy="270.8" r="1.6" fill="#D2D6DB"/>
<circle cx="353.902" cy="270.8" r="0.8" fill="#D2D6DB"/>
<circle cx="395.502" cy="270.8" r="1.6" fill="#D2D6DB"/>
<circle cx="437.102" cy="270.8" r="0.8" fill="#D2D6DB"/>
<circle cx="478.702" cy="270.8" r="1.6" fill="#D2D6DB"/>
<circle cx="21.1022" cy="312.4" r="0.8" fill="#D2D6DB"/>
<circle cx="62.7023" cy="312.4" r="0.8" fill="#D2D6DB"/>
<circle cx="104.302" cy="312.4" r="1.6" fill="#D2D6DB"/>
<circle cx="145.902" cy="312.4" r="0.8" fill="#D2D6DB"/>
<circle cx="187.502" cy="312.4" r="1.6" fill="#D2D6DB"/>
<circle cx="229.102" cy="312.4" r="0.8" fill="#D2D6DB"/>
<circle cx="270.702" cy="312.4" r="1.6" fill="#D2D6DB"/>
<circle cx="312.302" cy="312.4" r="0.8" fill="#D2D6DB"/>
<circle cx="353.902" cy="312.4" r="1.6" fill="#D2D6DB"/>
<circle cx="395.502" cy="312.4" r="0.8" fill="#D2D6DB"/>
<circle cx="437.102" cy="312.4" r="1.6" fill="#D2D6DB"/>
<circle cx="478.702" cy="312.4" r="0.8" fill="#D2D6DB"/>
<circle cx="21.1022" cy="354" r="0.8" fill="#D2D6DB"/>
<circle cx="62.7023" cy="354" r="1.6" fill="#D2D6DB"/>
<circle cx="104.302" cy="354" r="0.8" fill="#D2D6DB"/>
<circle cx="145.902" cy="354" r="1.6" fill="#D2D6DB"/>
<circle cx="187.502" cy="354" r="0.8" fill="#D2D6DB"/>
<circle cx="229.102" cy="354" r="1.6" fill="#D2D6DB"/>
<circle cx="270.702" cy="354" r="0.8" fill="#D2D6DB"/>
<circle cx="312.302" cy="354" r="1.6" fill="#D2D6DB"/>
<circle cx="353.902" cy="354" r="0.8" fill="#D2D6DB"/>
<circle cx="395.502" cy="354" r="1.6" fill="#D2D6DB"/>
<circle cx="437.102" cy="354" r="0.8" fill="#D2D6DB"/>
<circle cx="478.702" cy="354" r="1.6" fill="#D2D6DB"/>
<circle cx="21.1022" cy="395.6" r="0.8" fill="#D2D6DB"/>
<circle cx="62.7023" cy="395.6" r="0.8" fill="#D2D6DB"/>
<circle cx="104.302" cy="395.6" r="1.6" fill="#D2D6DB"/>
<circle cx="145.902" cy="395.6" r="0.8" fill="#D2D6DB"/>
<circle cx="187.502" cy="395.6" r="1.6" fill="#D2D6DB"/>
<circle cx="229.102" cy="395.6" r="0.8" fill="#D2D6DB"/>
<circle cx="270.702" cy="395.6" r="1.6" fill="#D2D6DB"/>
<circle cx="312.302" cy="395.6" r="0.8" fill="#D2D6DB"/>
<circle cx="353.902" cy="395.6" r="1.6" fill="#D2D6DB"/>
<circle cx="395.502" cy="395.6" r="0.8" fill="#D2D6DB"/>
<circle cx="437.102" cy="395.6" r="1.6" fill="#D2D6DB"/>
<circle cx="478.702" cy="395.6" r="0.8" fill="#D2D6DB"/>
<circle cx="21.1022" cy="437.2" r="0.8" fill="#D2D6DB"/>
<circle cx="62.7023" cy="437.2" r="1.6" fill="#D2D6DB"/>
<circle cx="104.302" cy="437.2" r="0.8" fill="#D2D6DB"/>
<circle cx="145.902" cy="437.2" r="1.6" fill="#D2D6DB"/>
<circle cx="187.502" cy="437.2" r="0.8" fill="#D2D6DB"/>
<circle cx="229.102" cy="437.2" r="1.6" fill="#D2D6DB"/>
<circle cx="270.702" cy="437.2" r="0.8" fill="#D2D6DB"/>
<circle cx="312.302" cy="437.2" r="1.6" fill="#D2D6DB"/>
<circle cx="353.902" cy="437.2" r="0.8" fill="#D2D6DB"/>
<circle cx="395.502" cy="437.2" r="1.6" fill="#D2D6DB"/>
<circle cx="437.102" cy="437.2" r="0.8" fill="#D2D6DB"/>
<circle cx="478.702" cy="437.2" r="1.6" fill="#D2D6DB"/>
<circle cx="21.1022" cy="478.8" r="0.8" fill="#D2D6DB"/>
<circle cx="62.7023" cy="478.8" r="0.8" fill="#D2D6DB"/>
<circle cx="104.302" cy="478.8" r="1.6" fill="#D2D6DB"/>
<circle cx="145.902" cy="478.8" r="0.8" fill="#D2D6DB"/>
<circle cx="187.502" cy="478.8" r="1.6" fill="#D2D6DB"/>
<circle cx="229.102" cy="478.8" r="0.8" fill="#D2D6DB"/>
<circle cx="270.702" cy="478.8" r="1.6" fill="#D2D6DB"/>
<circle cx="312.302" cy="478.8" r="0.8" fill="#D2D6DB"/>
<circle cx="353.902" cy="478.8" r="1.6" fill="#D2D6DB"/>
<circle cx="395.502" cy="478.8" r="0.8" fill="#D2D6DB"/>
<circle cx="437.102" cy="478.8" r="1.6" fill="#D2D6DB"/>
<circle cx="478.702" cy="478.8" r="0.8" fill="#D2D6DB"/>
</svg>
